<?xml version="1.0" encoding="utf-8"?>
<!-- Generator: Adobe Illustrator 27.5.0, SVG Export Plug-In . SVG Version: 6.00 Build 0)  -->
<svg version="1.1" id="Layer_1" xmlns="http://www.w3.org/2000/svg" xmlns:xlink="http://www.w3.org/1999/xlink" x="0px" y="0px"
	 viewBox="0 0 5000 5000" style="enable-background:new 0 0 5000 5000;" xml:space="preserve">
<g>
	<g>
		<g>
			<g>
				<path style="fill:#E5EAF0;" d="M2910.734,480.418l115.083,1306.24c3.806,43.196-28.006,78.081-71.202,78.081H1409.37
					c-43.082,0-81.04-34.885-84.846-78.081l-115.083-1306.24H2910.734z"/>
			</g>
			<g>
				<path style="fill:#C5CCD8;" d="M2906.123,428.081l4.611,52.338H1209.442l-4.611-52.338
					c-3.806-43.196,28.006-78.081,71.087-78.081h1545.245C2864.359,350,2902.317,384.885,2906.123,428.081z"/>
			</g>
			<g>
				<path style="fill:#FFFFFF;" d="M1319.318,423.925c1.107,12.561-8.156,22.632-20.719,22.632
					c-12.48,0-23.601-10.071-24.708-22.632c-1.107-12.561,8.233-22.713,20.713-22.713
					C1307.167,401.212,1318.211,411.364,1319.318,423.925z"/>
			</g>
			<g>
				<path style="fill:#FFFFFF;" d="M1378.473,423.925c1.107,12.561-8.156,22.632-20.719,22.632
					c-12.48,0-23.601-10.071-24.707-22.632c-1.107-12.561,8.232-22.713,20.712-22.713
					C1366.322,401.212,1377.366,411.364,1378.473,423.925z"/>
			</g>
			<g>
				<path style="fill:#FFFFFF;" d="M1437.628,423.925c1.107,12.561-8.156,22.632-20.719,22.632
					c-12.48,0-23.601-10.071-24.707-22.632c-1.107-12.561,8.232-22.713,20.712-22.713
					C1425.477,401.212,1436.521,411.364,1437.628,423.925z"/>
			</g>
		</g>
		<g>
			<g>
				<path style="fill:#FFFFFF;" d="M2811.801,721.241l79.528,902.673c4.21,47.786-31.15,86.403-78.791,86.403H1524.353
					c-47.641,0-89.806-38.618-94.016-86.403l-79.528-902.673c-4.209-47.779,31.15-86.403,78.791-86.403h1288.185
					C2765.426,634.838,2807.591,673.462,2811.801,721.241z"/>
			</g>
			<g>
				<path style="fill:#F43F62;" d="M1423.035,1541.034l7.302,82.88c4.21,47.786,46.375,86.403,94.016,86.403h1288.185
					c47.641,0,83.001-38.618,78.791-86.403l-7.302-82.88H1423.035z"/>
			</g>
			<g>
				<path style="fill:#A1172F;" d="M1626.86,1541.033h-203.825l7.302,82.883c4.21,47.786,46.375,86.404,94.016,86.404h117.422
					L1626.86,1541.033z"/>
			</g>
			<g>
				<g>
					<path style="fill:#A1172F;" d="M2808.885,1618.571c0.658,7.469-4.913,13.476-12.38,13.476H1727.709
						c-7.467,0-14.096-6.007-14.754-13.476c-0.658-7.465,4.905-13.569,12.372-13.569h1068.796
						C2801.589,1605.002,2808.227,1611.107,2808.885,1618.571z"/>
				</g>
			</g>
			<g>
				<g>
					<path style="fill:#FFFFFF;" d="M2224.399,1618.483c0.666,7.558-4.814,13.565-12.372,13.565h-484.318
						c-7.467,0-14.096-6.007-14.754-13.476c-0.658-7.465,4.905-13.569,12.372-13.569h484.318
						C2217.202,1605.002,2223.741,1611.013,2224.399,1618.483z"/>
				</g>
			</g>
			<g>
				<g>
					<polygon style="fill:#FFFFFF;" points="1524.561,1652.512 1502.671,1652.512 1497.943,1598.84 1519.832,1598.84 					"/>
				</g>
				<g>
					<polygon style="fill:#FFFFFF;" points="1566.867,1652.512 1544.977,1652.512 1540.249,1598.84 1562.138,1598.84 					"/>
				</g>
			</g>
		</g>
		<g>
			<g>
				<g>
					<polygon style="fill:#FABE25;" points="1719.349,1211.741 1695.821,1211.741 1679.476,1026.218 1703.005,1026.218 					"/>
				</g>
				<g>
					
						<ellipse transform="matrix(0.6914 -0.7225 0.7225 0.6914 -365.111 1616.6337)" style="fill:#FABE25;" cx="1709.694" cy="1235.675" rx="32.996" ry="36.034"/>
				</g>
				<g>
					<path style="fill:#FABE25;" d="M1755.326,1362.241c1.382,15.688-67.581,15.688-68.963,0l6.317-105.57h37.727L1755.326,1362.241
						z"/>
				</g>
			</g>
			<g>
				<path style="fill:#434C69;" d="M2438.827,1075.939l17.631,200.125c11.506,130.592-633.917,130.592-645.422,0l-17.632-200.125
					H2438.827z"/>
			</g>
			<g>
				<g>
					<g>
						<path style="fill:#585D83;" d="M2549.394,1031.301l-416.116,169.503c-3.818,1.552-8.238,1.552-12.252,0l-446.062-169.503
							c-14.682-5.585-16.451-25.667-2.746-31.172l416.352-167.72c3.818-1.552,8.083-1.552,12.174,0l445.905,167.72
							C2561.323,1005.635,2563.093,1025.716,2549.394,1031.301z"/>
					</g>
					<g>
						<path style="fill:#FABE25;" d="M2215.995,1005.841c1.922,21.811-44.036,39.463-102.579,39.463
							c-58.549,0-107.611-17.653-109.532-39.463c-1.921-21.804,44.019-39.59,102.567-39.59
							C2164.994,966.251,2214.074,984.037,2215.995,1005.841z"/>
					</g>
				</g>
			</g>
		</g>
	</g>
	<g>
		<g>
			<g>
				<g>
					<g>
						<path style="fill:#FFA49D;" d="M3122.59,2191.443c0,0,266.7,422.256,351.216,453.951c30.4,11.533,79.126-2.911,129.469-26.413
							c58.752-27.487,119.875-67.268,156.635-92.815c21.345-14.77,34.496-24.687,34.496-24.687l-76.646-77.724l-21.129-21.56
							l-75.892-76.971l-58.644,29.213l-31.262,15.633l-290.955-279.419L3122.59,2191.443z"/>
					</g>
					<g>
						<path style="fill:#F68B82;" d="M3552.501,2351.097l1.402,7.438l49.373,260.446c58.752-27.487,119.875-67.268,156.635-92.815
							l-42.15-102.411l-6.684-16.386l-14.446-5.174l-134.535-47.758L3552.501,2351.097z"/>
					</g>
					<g>
						<polygon style="fill:#3B6AEB;" points="3552.501,2342.472 3663.213,2537.485 3697.062,2597.204 3767.78,2554.731 
							3919.024,2463.748 3830.735,2191.443 						"/>
					</g>
					<g>
						<path style="fill:#162AD4;" d="M3663.213,2537.485l33.85,59.719l70.718-42.473c-2.911-85.377-9.594-267.023-9.594-267.023
							L3663.213,2537.485z"/>
					</g>
					<g>
						<g>
							<g>
								<g>
									<g>
										<g>
											<g>
												<g>
													<polygon style="fill:#FFA49D;" points="3019.118,4305.513 3005.043,4437.114 2940.665,4492.783 2810.633,4426.812 
														2813.078,4305.513 													"/>
												</g>
												<g>
													<g>
														<g>
															<g>
																<g>
																	<path style="fill:#30323E;" d="M2770.615,4483.297c-3.528-4.348-34.299-43.026-28.093-61.783
																		c1.12-3.38,3.914-7.779,10.879-9.56c5.549-1.421,10.605-0.337,14.626,3.139
																		c15.428,13.341,10.935,60.555,10.369,65.896c-0.185,1.766-1.416,3.247-3.12,3.751
																		c-0.412,0.122-0.833,0.182-1.249,0.182C2772.726,4484.924,2771.46,4484.345,2770.615,4483.297z M2755.581,4420.47
																		c-3.347,0.854-4.274,2.482-4.712,3.804c-2.91,8.79,8.639,29.042,19.596,44.316
																		c0.717-18.062-0.845-40.502-8.188-46.848c-1.258-1.086-2.618-1.614-4.24-1.614
																		C2757.281,4420.128,2756.465,4420.244,2755.581,4420.47z"/>
																</g>
															</g>
															<g>
																<g>
																	<g>
																		<g>
																			<g>
																				<path style="fill:#585D83;" d="M2514.739,4598.193h487.772l2.562-161.059
																					c-53.867,21.889-137.019,18.176-194.402-10.316l-18.638,28.78l-190.839,75.25l-37.998,14.941
																					C2539.287,4554.754,2521.57,4574.392,2514.739,4598.193z"/>
																			</g>
																		</g>
																	</g>
																	<g>
																		<g>
																			<g>
																				<path style="fill:#30323E;" d="M3002.461,4598.154v32.698c0,10.195-8.27,18.563-18.561,18.563h-451.917
																					c-11.348,0-20.581-9.331-20.581-20.677v-8.077c0-2.118,0.096-4.137,0.289-6.157
																					c0.095-1.827,0.288-3.56,0.576-5.292c0.289-1.921,0.674-3.748,1.059-5.579l1.442-5.48H3002.461z"/>
																			</g>
																		</g>
																	</g>
																	<g>
																		<g>
																			<g>
																				<path style="fill:#434C69;" d="M2779.063,4511.205l-131.403,47.587c-14.521,5.254-30.98-0.695-38.592-14.25
																					l-7.882-13.697l190.877-75.245l5.531,13.001C2804.789,4485.479,2796.353,4504.842,2779.063,4511.205z"/>
																			</g>
																		</g>
																	</g>
																</g>
																<g>
																	<g>
																		<g>
																			<g>
																				<path style="fill:#30323E;" d="M2648.007,4540.275c-1.708,0-3.334-1.006-4.047-2.68l-11.304-26.64
																					c-0.948-2.234,0.094-4.813,2.331-5.762c2.227-0.946,4.815,0.09,5.764,2.328l11.304,26.641
																					c0.948,2.234-0.094,4.813-2.33,5.762C2649.162,4540.162,2648.583,4540.275,2648.007,4540.275z"/>
																			</g>
																		</g>
																	</g>
																	<g>
																		<g>
																			<g>
																				<path style="fill:#30323E;" d="M2682.066,4528.201c-1.708,0-3.334-1.006-4.047-2.68l-11.304-26.641
																					c-0.948-2.234,0.094-4.813,2.331-5.762c2.232-0.944,4.807,0.092,5.764,2.328l11.304,26.641
																					c0.948,2.234-0.094,4.813-2.33,5.762C2683.22,4528.087,2682.641,4528.201,2682.066,4528.201z"/>
																			</g>
																		</g>
																	</g>
																	<g>
																		<g>
																			<g>
																				<path style="fill:#30323E;" d="M2716.125,4516.126c-1.708,0-3.334-1.006-4.047-2.68l-11.304-26.643
																					c-0.948-2.234,0.094-4.815,2.33-5.762c2.232-0.944,4.815,0.09,5.764,2.328l11.304,26.643
																					c0.948,2.234-0.094,4.815-2.33,5.762C2717.279,4516.013,2716.7,4516.126,2716.125,4516.126z"/>
																			</g>
																		</g>
																	</g>
																	<g>
																		<g>
																			<g>
																				<path style="fill:#30323E;" d="M2750.179,4504.05c-1.708,0-3.335-1.006-4.047-2.68l-11.3-26.641
																					c-0.948-2.236,0.094-4.815,2.33-5.762c2.232-0.946,4.811,0.092,5.764,2.329l11.3,26.64
																					c0.948,2.236-0.099,4.815-2.331,5.762C2751.333,4503.936,2750.754,4504.05,2750.179,4504.05z"/>
																			</g>
																		</g>
																	</g>
																</g>
															</g>
															<g>
																<g>
																	<path style="fill:#30323E;" d="M2772.782,4480.357c-5.223-1.105-51.255-11.306-58.8-28.878
																		c-1.863-4.333-1.472-8.86,1.129-13.096c2.601-4.231,6.42-6.575,11.051-6.778
																		c19.004-0.994,47.813,37.462,51.058,41.833c1.09,1.465,1.159,3.455,0.172,4.991
																		c-0.82,1.279-2.223,2.023-3.699,2.023C2773.392,4480.452,2773.087,4480.422,2772.782,4480.357z M2726.548,4440.385
																		c-1.193,0.052-2.597,0.401-3.944,2.599c-1.103,1.792-1.271,3.341-0.549,5.026
																		c3.442,8.017,23.141,15.854,40.135,20.658c-11.476-13.54-26.746-28.291-35.325-28.291
																		C2726.758,4440.376,2726.651,4440.381,2726.548,4440.385z"/>
																</g>
															</g>
														</g>
													</g>
												</g>
											</g>
											<g>
												<g>
													<g>
														<g>
															
																<rect x="3130.562" y="3537.961" transform="matrix(-1 -1.224647e-16 1.224647e-16 -1 6330.5098 8187.9614)" style="fill:#5D1F1E;" width="69.387" height="1112.039"/>
														</g>
														<g>
															
																<rect x="3641.74" y="3537.961" transform="matrix(-1 -1.224647e-16 1.224647e-16 -1 7352.8657 8187.9614)" style="fill:#5D1F1E;" width="69.387" height="1112.039"/>
														</g>
														<g>
															
																<rect x="4152.917" y="3537.961" transform="matrix(-1 -1.224647e-16 1.224647e-16 -1 8375.2217 8187.9614)" style="fill:#5D1F1E;" width="69.387" height="1112.039"/>
														</g>
														<g>
															<g>
																<g>
																	<polygon style="fill:#FFA49D;" points="3462.754,4305.513 3448.679,4437.114 3384.301,4492.783 3254.269,4426.812 
																		3256.714,4305.513 																	"/>
																</g>
																<g>
																	<g>
																		<g>
																			<g>
																				<g>
																					<path style="fill:#30323E;" d="M3214.251,4483.297c-3.528-4.348-34.299-43.026-28.093-61.783
																						c1.12-3.38,3.914-7.779,10.879-9.56c5.549-1.421,10.605-0.337,14.626,3.139
																						c15.428,13.341,10.935,60.555,10.369,65.896c-0.185,1.766-1.416,3.247-3.12,3.751
																						c-0.412,0.122-0.833,0.182-1.249,0.182C3216.362,4484.924,3215.096,4484.345,3214.251,4483.297z
																						 M3199.217,4420.47c-3.347,0.854-4.274,2.482-4.712,3.804c-2.91,8.79,8.639,29.042,19.596,44.316
																						c0.717-18.062-0.845-40.502-8.188-46.848c-1.258-1.086-2.618-1.614-4.24-1.614
																						C3200.917,4420.128,3200.101,4420.244,3199.217,4420.47z"/>
																				</g>
																			</g>
																			<g>
																				<g>
																					<g>
																						<g>
																							<g>
																								<path style="fill:#585D83;" d="M2958.375,4598.193h487.772l2.562-161.059
																									c-53.867,21.889-137.019,18.176-194.402-10.316l-18.638,28.78l-190.839,75.25l-37.998,14.941
																									C2982.923,4554.754,2965.206,4574.392,2958.375,4598.193z"/>
																							</g>
																						</g>
																					</g>
																					<g>
																						<g>
																							<g>
																								<path style="fill:#30323E;" d="M3446.097,4598.154v32.698c0,10.195-8.27,18.563-18.561,18.563h-451.917
																									c-11.348,0-20.581-9.331-20.581-20.677v-8.077c0-2.118,0.096-4.137,0.289-6.157
																									c0.095-1.827,0.288-3.56,0.576-5.292c0.289-1.921,0.674-3.748,1.059-5.579l1.442-5.48H3446.097z"/>
																							</g>
																						</g>
																					</g>
																					<g>
																						<g>
																							<g>
																								<path style="fill:#434C69;" d="M3222.699,4511.205l-131.403,47.587c-14.521,5.254-30.98-0.695-38.592-14.25
																									l-7.882-13.697L3235.7,4455.6l5.531,13.001C3248.425,4485.479,3239.989,4504.842,3222.699,4511.205z"/>
																							</g>
																						</g>
																					</g>
																				</g>
																				<g>
																					<g>
																						<g>
																							<g>
																								<path style="fill:#30323E;" d="M3091.643,4540.275c-1.708,0-3.334-1.006-4.047-2.68l-11.304-26.64
																									c-0.948-2.234,0.094-4.813,2.331-5.762c2.227-0.946,4.815,0.09,5.764,2.328l11.304,26.641
																									c0.948,2.234-0.094,4.813-2.33,5.762C3092.798,4540.162,3092.219,4540.275,3091.643,4540.275z"/>
																							</g>
																						</g>
																					</g>
																					<g>
																						<g>
																							<g>
																								<path style="fill:#30323E;" d="M3125.702,4528.201c-1.708,0-3.334-1.006-4.047-2.68l-11.304-26.641
																									c-0.948-2.234,0.095-4.813,2.331-5.762c2.232-0.944,4.807,0.092,5.764,2.328l11.304,26.641
																									c0.948,2.234-0.094,4.813-2.33,5.762C3126.856,4528.087,3126.277,4528.201,3125.702,4528.201z"/>
																							</g>
																						</g>
																					</g>
																					<g>
																						<g>
																							<g>
																								<path style="fill:#30323E;" d="M3159.76,4516.126c-1.708,0-3.334-1.006-4.047-2.68l-11.304-26.643
																									c-0.948-2.234,0.094-4.815,2.33-5.762c2.232-0.944,4.815,0.09,5.764,2.328l11.304,26.643
																									c0.948,2.234-0.094,4.815-2.33,5.762C3160.915,4516.013,3160.336,4516.126,3159.76,4516.126z"/>
																							</g>
																						</g>
																					</g>
																					<g>
																						<g>
																							<g>
																								<path style="fill:#30323E;" d="M3193.815,4504.05c-1.708,0-3.335-1.006-4.047-2.68l-11.3-26.641
																									c-0.948-2.236,0.094-4.815,2.33-5.762c2.232-0.946,4.811,0.092,5.764,2.329l11.3,26.64
																									c0.948,2.236-0.099,4.815-2.331,5.762C3194.969,4503.936,3194.39,4504.05,3193.815,4504.05z"/>
																							</g>
																						</g>
																					</g>
																				</g>
																			</g>
																			<g>
																				<g>
																					<path style="fill:#30323E;" d="M3216.418,4480.357c-5.223-1.105-51.255-11.306-58.8-28.878
																						c-1.863-4.333-1.472-8.86,1.129-13.096c2.601-4.231,6.42-6.575,11.051-6.778
																						c19.003-0.994,47.813,37.462,51.058,41.833c1.09,1.465,1.159,3.455,0.172,4.991
																						c-0.82,1.279-2.223,2.023-3.699,2.023C3217.028,4480.452,3216.723,4480.422,3216.418,4480.357z
																						 M3170.184,4440.385c-1.193,0.052-2.597,0.401-3.944,2.599c-1.103,1.792-1.271,3.341-0.549,5.026
																						c3.442,8.017,23.141,15.854,40.135,20.658c-11.476-13.54-26.746-28.291-35.324-28.291
																						C3170.394,4440.376,3170.287,4440.381,3170.184,4440.385z"/>
																				</g>
																			</g>
																		</g>
																	</g>
																</g>
															</g>
															<g>
																<g>
																	<path style="fill:#E47544;" d="M2994.542,3574.887c0,20.53,8.297,39.061,21.74,52.445
																		c13.385,13.442,31.915,21.74,52.445,21.74h633.787c-20.53,0-39.06-8.297-52.445-21.74
																		c-13.442-13.383-21.74-31.915-21.74-52.445c0-40.998,33.186-74.184,74.184-74.184h-633.787
																		C3027.728,3500.703,2994.542,3533.889,2994.542,3574.887z"/>
																</g>
																<g>
																	<g>
																		<g>
																			<g>
																				<path style="fill:#E47544;" d="M3655.034,3560.713l212.057-1230.778c-25.173-20.153-13.492-36.759,2.257-47.333
																					c15.702-10.642,35.476-15.25,55.629-11.333h660.476c-20.153-3.917-39.927,0.691-55.629,11.333
																					c-15.75,10.574-27.43,27.18-31.347,47.333L4286.42,3560.713H3655.034z"/>
																			</g>
																		</g>
																	</g>
																	<g>
																		<path style="fill:#EE8E50;" d="M4585.454,2271.269c-20.153-3.917-39.927,0.691-55.629,11.333
																			c-15.75,10.574-27.43,27.18-31.347,47.333L4286.42,3560.713c-7.823,40.245,18.421,79.154,58.666,86.977
																			c20.153,3.917,39.927-0.691,55.629-11.334c15.749-10.572,27.43-27.178,31.347-47.331l212.057-1230.778
																			C4651.943,2318,4625.699,2279.092,4585.454,2271.269z"/>
																	</g>
																</g>
																<g>
																	<path style="fill:#4B5173;" d="M2750.413,4315.276l119.785-937.074c10.809-88.607,73.269-162.246,158.919-187.382
																		l574.421-81.029l116.233-203.176l18.387,5.363l149.034,43.703v238.19l-458.187,306.847l-244.768-0.003
																		l-139.414,822.749L2750.413,4315.276z"/>
																</g>
																<g>
																	<path style="fill:#30323E;" d="M3184.237,3500.716h278.757l458.188-306.844v-238.193l-149.033-43.703
																		c-23.376,75.116,11.549,181.466-0.831,216.114l-432.318,76.226c-87.591,23.099-148.756,102.185-149.126,192.735
																		L3184.237,3500.716z"/>
																</g>
																<g>
																	<path style="fill:#4B5173;" d="M3469.457,4391.64h-304.234l45.77-994.551
																		c0.362-90.597,61.526-169.685,149.154-192.82l382.71-98.951c16.654-46.692,37.546-182.285,78.301-266.338
																		l430.026,158.845c0,0,8.693,114.396,4.878,234.724c-4.663,149.58-109.643,268.156-259.223,268.156h-459.881
																		L3469.457,4391.64z"/>
																</g>
																<g>
																	<path style="fill:#3B6AEB;" d="M4342.883,2631.81c-8.753,60.019-17.297,109.719-21.36,132.848
																		c-1.563,8.965-2.501,13.859-2.501,13.859l-10.523,75.124l-22.193,159.212l-7.606,55.323l-1.667,11.462
																		c-0.208,1.46-0.625,2.92-1.146,4.381c-32.821,91.999-658.091,52.301-643.921-43.764c0,0,1.667-12.714,4.793-34.906
																		c6.668-48.241,19.797-141.39,35.843-247.044c33.863-222.456,80.751-500.341,108.154-530.872
																		c102.215-113.779,477.001-83.04,569.735,17.608C4386.019,2283.492,4363.93,2487.505,4342.883,2631.81z"/>
																</g>
																<g>
																	<path style="fill:#162AD4;" d="M4342.883,2631.81c-8.753,60.019-17.297,109.719-21.36,132.848
																		c-1.563,8.965-2.501,13.859-2.501,13.859l-10.523,75.124l-22.193,159.212l-7.606,55.323l-1.667,11.462
																		c-0.208,1.46-0.625,2.92-1.146,4.381l-639.128-78.67c6.668-48.241,19.797-141.39,35.843-247.044l447.619-28.343
																		c0,0,36.989-346.131,43.97-368.638c6.981-22.609,45.533-73.664,45.533-73.664L4342.883,2631.81z"/>
																</g>
															</g>
														</g>
														<g>
															<path style="fill:#EE8E50;" d="M3581.813,3574.887c0,20.53,8.297,39.061,21.74,52.445
																c13.385,13.442,31.914,21.74,52.445,21.74h657.06c40.998,0,74.184-33.186,74.184-74.184
																c0-20.53-8.297-39.062-21.741-52.445c-13.383-13.442-31.913-21.74-52.443-21.74h-657.06
																C3614.999,3500.703,3581.813,3533.889,3581.813,3574.887z"/>
														</g>
													</g>
												</g>
											</g>
										</g>
										<g>
											<path style="fill:#30323E;" d="M3753.759,1655.04c0,0-6.638,140.662,104.12,140.662
												c110.759,0,51.434-172.13,51.434-172.13"/>
										</g>
										<g>
											<path style="fill:#FFA49D;" d="M3936.67,2153.523c-0.094,35.095,3.327,69.35,50.848,70.738
												c49.134,1.435,148.003-76.384,154.202-99.933l-12.539-159.734c0,0-109.387,40.961-181.258,61.215
												C3956.859,2034.745,3936.67,2153.523,3936.67,2153.523z"/>
										</g>
										<g>
											<path style="fill:#F68B82;" d="M3949.447,2056.854l5.781-33.099l2.238-12.773l148.992-40.838
												c0.093,0.839,0.187,1.771,0.28,2.704c0.653,10.163-1.398,22.19-6.993,36.456
												c-41.304,104.146-137.804,104.146-156.731,103.12L3949.447,2056.854z"/>
										</g>
										<g>
											<path style="fill:#FFA49D;" d="M3906.299,2089.937c20.821,7.205,62.734,7.095,83.443,1.802
												c80.473-20.147,132.089-115.814,141.544-128.421c0.562-0.676,0.9-1.127,1.013-1.346
												c62.127-24.763,113.449-119.529,73.494-151.156c-55.036-43.333-90.938,17.218-90.938,17.218
												s-43.333-12.266-43.333-70.453c0-58.077,22.059-84.412-51.66-84.412c-51.772,0-134.835,27.797-188.746,24.763
												c-0.449,2.473-1.013,4.946-1.463,7.54c-3.039,15.756-5.29,33.089-6.978,51.433
												C3811.306,1885.885,3834.266,2064.278,3906.299,2089.937z"/>
										</g>
										<g>
											<path style="fill:#1E1D1E;" d="M3877.73,1799.922c-1.31,0-2.597-0.605-3.423-1.744
												c-0.066-0.091-6.901-9.322-16.52-10.213c-5.723-0.542-11.27,1.91-16.861,7.195c-1.706,1.601-4.38,1.53-5.976-0.173
												c-1.607-1.698-1.53-4.372,0.165-5.973c7.495-7.063,15.441-10.224,23.53-9.457c13.46,1.29,22.155,13.174,22.518,13.677
												c1.354,1.893,0.924,4.521-0.958,5.885C3879.458,1799.661,3878.589,1799.922,3877.73,1799.922z"/>
										</g>
										<g>
											<path style="fill:#1E1D1E;" d="M3995.492,1798.852c-1.31,0-2.597-0.603-3.423-1.742
												c-0.066-0.091-6.901-9.322-16.52-10.216c-5.58-0.501-11.259,1.904-16.861,7.198c-1.706,1.601-4.38,1.53-5.976-0.173
												c-1.607-1.698-1.53-4.372,0.165-5.973c7.495-7.063,15.474-10.238,23.53-9.459c13.46,1.29,22.155,13.177,22.518,13.68
												c1.354,1.893,0.924,4.521-0.958,5.885C3997.22,1798.593,3996.351,1798.852,3995.492,1798.852z"/>
										</g>
										<g>
											<path style="fill:#FFA49D;" d="M3831.115,1697.931c53.91,3.034,136.973-24.763,188.746-24.763
												c73.719,0,51.66,26.335,51.66,84.412c0,58.187,43.333,70.453,43.333,70.453s7.427-97.019-15.984-154.981
												c-27.349-67.975-165.11-81.824-231.514-49.856C3851.598,1630.846,3839.218,1658.874,3831.115,1697.931z"/>
										</g>
										<g>
											<path style="fill:#A1172F;" d="M3895.698,1975.137l-0.041,1.417c0.043,17.254,9.426,32.488,23.383,40.647
												c6.659,3.798,14.235,6.093,22.309,6.328c19.963,0.582,37.458-11.464,44.733-28.83c2.107-4.854,3.354-10.165,3.625-15.729
												l0.032-1.092c0.029-0.98-0.273-1.863-0.248-2.737c-34.139-5.036-66.072-7.055-93.386-2.722
												C3895.971,1973.29,3895.727,1974.157,3895.698,1975.137z"/>
										</g>
										<g>
											<path style="fill:#FFFFFF;" d="M3895.698,1975.137l-0.041,1.417c33.851,11.746,63.939,9.931,94.051,2.417l0.032-1.092
												c0.029-0.98-0.273-1.863-0.248-2.737c-34.139-5.036-66.072-7.055-93.386-2.722
												C3895.971,1973.29,3895.727,1974.157,3895.698,1975.137z"/>
										</g>
										<g>
											<path style="fill:#F43F62;" d="M3919.04,2017.201c6.659,3.798,14.235,6.093,22.309,6.328
												c19.963,0.582,37.458-11.464,44.733-28.83c-13.309-7.921-30.205-8.851-44.948-1.31
												C3930.827,1998.655,3923.15,2007.276,3919.04,2017.201z"/>
										</g>
										<g>
											<path style="fill:#F68B82;" d="M3908.271,1925.642c-5.085,0-10.059-2.267-14.153-6.477
												c-5.514-5.679-8.288-13.702-7.429-21.461c0.649-5.927,3.038-11.009,5.338-15.923c0.738-1.563,1.475-3.123,2.135-4.705
												c8.959-21.178,6.075-47.322,3.753-68.33c-0.253-2.32,1.42-4.408,3.742-4.664c2.3-0.245,4.413,1.422,4.667,3.739
												c2.421,21.981,5.437,49.339-4.369,72.542c-0.716,1.681-1.486,3.343-2.267,5.005c-2.113,4.488-4.094,8.725-4.589,13.262
												c-0.583,5.206,1.365,10.816,5.084,14.646c2.675,2.754,5.745,4.146,8.794,3.885c2.586-0.182,4.358,1.549,4.556,3.871
												c0.187,2.325-1.552,4.364-3.874,4.554C3909.196,1925.625,3908.733,1925.642,3908.271,1925.642z"/>
										</g>
										<g>
											
												<ellipse transform="matrix(0.0291 -0.9996 0.9996 0.0291 1910.8346 5638.8965)" style="fill:#1E1D1E;" cx="3858.256" cy="1835.773" rx="22.196" ry="12.775"/>
										</g>
										<g>
											
												<ellipse transform="matrix(0.0291 -0.9996 0.9996 0.0291 2020.3872 5751.2935)" style="fill:#1E1D1E;" cx="3970.889" cy="1835.576" rx="22.196" ry="12.775"/>
										</g>
										<g>
											<path style="fill:#30323E;" d="M4193.571,1613.083c201.625,111.884-49.884,459.878-55.512,464.604
												c-0.113,0.115-8.753-111.502-8.753-111.502c0.562-0.676,2.879-3.993,2.992-4.213
												c62.127-24.763,113.449-119.529,73.494-151.156c-55.036-43.333-90.938,17.218-90.938,17.218s5.857-27.654-8-110.614
												c0,0-46.145,12.337-37.987-44.251c0,0-328.66,159.799-314.674-41.437c13.986-201.236,164.729-163.553,221.443-135.582
												c56.714,27.971,79.246,72.259,149.951,72.259C4196.291,1568.407,4193.571,1613.083,4193.571,1613.083z"/>
										</g>
										<g>
											<polygon style="fill:#162AD4;" points="3987.518,2224.261 4053.35,2310.92 4183.417,2170.46 4141.721,2124.328 
																							"/>
										</g>
										<g>
											<path style="fill:#162AD4;" d="M3987.518,2224.261l-89.862,58.443c0.425-31.294-4.665-84.256-1.913-113.743
												l44.411-38.012L3987.518,2224.261z"/>
										</g>
									</g>
								</g>
							</g>
						</g>
					</g>
					<g>
						<g>
							
								<rect x="4456.497" y="3164.864" transform="matrix(-1 -1.224647e-16 1.224647e-16 -1 8994.6152 7808.791)" style="fill:#C5CCD8;" width="81.621" height="1479.063"/>
						</g>
						<g>
							
								<rect x="3979.099" y="3164.864" transform="matrix(-1 -1.224647e-16 1.224647e-16 -1 8039.8193 7808.791)" style="fill:#C5CCD8;" width="81.621" height="1479.063"/>
						</g>
						<g>
							
								<rect x="2313.374" y="3164.864" transform="matrix(-1 -1.224647e-16 1.224647e-16 -1 4708.3682 7808.791)" style="fill:#C5CCD8;" width="81.621" height="1479.063"/>
						</g>
						<g>
							
								<rect x="1835.976" y="3164.864" transform="matrix(-1 -1.224647e-16 1.224647e-16 -1 3753.5725 7808.791)" style="fill:#C5CCD8;" width="81.621" height="1479.063"/>
						</g>
						<g>
							<rect x="1664.861" y="3078.129" style="fill:#E5EAF0;" width="2092.998" height="134.516"/>
						</g>
						<g>
							<rect x="3530.847" y="3078.131" style="fill:#D4DBE4;" width="1114.709" height="134.514"/>
						</g>
					</g>
				</g>
			</g>
			<g>
				<g>
					<path style="fill:#30323E;" d="M3016.997,2992.671l-0.804,83.232l442.233,4.272l0.068-7.07
						c0.406-42.039-33.387-76.492-75.427-76.898L3016.997,2992.671z"/>
				</g>
				<g>
					<path style="fill:#4B5173;" d="M2228.976,2436.702l119.304,592.97c4.489,23.233,24.594,40.016,48.25,40.245l641.626,6.198
						l-130.798-652.565c-4.392-23.232-24.594-40.016-48.158-40.244l-581.016-5.613
						C2246.796,2377.39,2223.05,2405.911,2228.976,2436.702z"/>
				</g>
				<g>
					<path style="fill:#30323E;" d="M2859.2,2383.306c23.565,0.228,43.766,17.012,48.158,40.244l130.798,652.565l56.555,0.546
						l-130.798-652.565c-4.392-23.232-24.594-40.016-48.158-40.244L2859.2,2383.306z"/>
				</g>
				<g>
					<path style="fill:#30323E;" d="M2578.569,2760.231c7.437,40.158,37.854,72.997,67.922,73.288
						c30.068,0.29,48.48-32.077,40.95-72.236c-7.437-40.158-37.854-73.003-67.922-73.293
						C2589.452,2687.699,2571.137,2720.073,2578.569,2760.231z"/>
				</g>
			</g>
		</g>
		<g>
			<g>
				<path style="fill:#FFA49D;" d="M4429.885,2633.896l-27.924,336.963c-9.065,70.438-74.811,119.304-144.935,107.532
					l-754.471-121.909c0,0-276.74-5.21-273.406-41.678c2.605-29.59,28.445-37.201,38.031-39.175
					c-15.108,1.771-73.561,6.456-75.749-29.696c-0.729-14.902,27.716-24.278,47.304-26.99c-10.732-5.103-43.553-8.125-49.179-20.315
					c-12.191-26.573,42.303-20.737,74.812-16.153c-6.356-4.375-41.157-16.464-36.885-37.506
					c4.481-22.716,95.234-7.296,138.057-2.086c-3.751-5.312-25.319-16.046-23.964-30.948c4.48-48.241,172.025,51.578,189.217,61.891
					l0.104-0.621l633.293,16.25l19.276-252.458L4429.885,2633.896z"/>
			</g>
		</g>
		<g>
			<g>
				<path style="fill:#3B6AEB;" d="M4471.146,2689.534l-318.106-20.63c0,0,16.984-278.613,33.759-335.299
					c26.882-90.646,127.951-116.176,127.951-116.176s81.688,42.41,109.716,133.473
					C4452.495,2441.971,4471.146,2689.534,4471.146,2689.534z"/>
			</g>
		</g>
		<g>
			<g>
				<path style="fill:#FFA49D;" d="M3237.446,2092.983c-1.102-5.164-38.198-171.222-73.53-184.174
					c-35.956-13.148-50.957,4.048-50.957,4.048s-95.645-189.224-129.936-173.302c-34.396,15.907,62.599,168.009,62.599,168.009
					s-41.999-46.549-53.755-14.201c-11.143,30.371,16.348,50.888,19.496,53.193c-4.305-2.578-57.936-33.409-67.624-7.072
					c-10.072,27.482,27.281,58.782,27.281,58.782s-35.311-7.833-35.377,26.432c-0.103,38.275,89.591,149.386,186.949,166.745"/>
			</g>
			<g>
				<path style="fill:#F68B82;" d="M3113.004,1912.839c-8.465,14.935-16.397,30.156-21.768,45.999
					c-2.387,7.957-4.578,16.002-4.504,23.861c0.096,7.798,2.844,14.891,8.961,18.825c12.187,9.212,29.547,3.252,42.542-6.604
					c13.471-9.751,25.246-22.32,36.266-35.45c-8.182,15.166-18.833,29.099-32.285,40.589c-6.634,5.822-14.504,10.681-23.656,13.124
					c-9.145,2.487-19.764,0.93-27.8-4.804c-8.487-5.597-12.413-16.498-12.009-25.715c0.446-9.349,2.998-17.995,6.425-26.1
					C3092.123,1940.409,3101.667,1925.821,3113.004,1912.839z"/>
			</g>
			<g>
				<path style="fill:#F68B82;" d="M3011.645,1946.693c16.429,9.179,31.831,20.124,46.12,32.61
					c7.209,6.191,13.849,13.091,19.808,20.823c2.918,3.924,5.55,8.155,7.587,12.899c1.971,4.694,3.41,10.274,2.149,16.173
					c-2.937,12.178-15.698,18.011-25.936,17.147c-10.437-0.594-19.666-4.281-28.093-8.838
					c-16.925-9.058-31.872-20.812-45.035-34.261c15.364,10.731,31.124,20.966,47.842,28.401c8.349,3.511,17.058,6.724,25.461,6.697
					c2.065-0.016,3.994-0.446,6.003-0.578c1.78-0.672,3.569-1.315,5.234-2.146c1.306-1.315,3.031-2.295,4.119-3.687
					c1.062-1.398,1.896-2.884,2.161-4.584c1.599-6.846-3.017-15.392-7.96-22.545c-5.107-7.396-11.425-14.115-17.792-20.801
					C3040.298,1970.856,3026.064,1958.717,3011.645,1946.693z"/>
			</g>
			<g>
				<path style="fill:#F68B82;" d="M3026.356,2030.277c7.086,6.229,13.397,13.383,18.317,21.665
					c2.596,4.066,4.517,8.612,6.077,13.46c1.341,4.826,1.968,10.786-0.797,16.487c-6.889,11.275-20.199,11.672-29.342,8.59
					c-9.559-3.01-17.485-8.794-23.954-15.639c8.382,4.21,17.028,7.655,25.502,9.229c4.23,0.627,8.443,0.902,12.089-0.275
					c3.644-1.012,7.021-3.236,8.205-5.794c2.984-5.563-0.272-15.111-3.624-23.052
					C3035.201,2046.73,3030.884,2038.526,3026.356,2030.277z"/>
			</g>
		</g>
	</g>
	<g>
		<g>
			<g>
				<path style="fill:#FFA49D;" d="M2269.259,1831.579c-5.236,36.859-91.007,119.596-187.145,122.736
					c0,0-144.313,360.154-302.868,395.341c-88.389,19.585-324.336-86.716-324.336-86.716l96.348-259.611l162.849,97.812
					l255.008-245.794c0,0,0,0,0.105-0.102c1.78-4.817,60.636-159.498,96.453-167.04c36.445-7.645,48.488,10.999,48.488,10.999
					s118.445-168.82,149.235-148.713c30.894,20.107-83.677,153.003-83.677,153.003s46.918-38.955,53.725-6.177
					c6.493,30.789-22.83,46.707-26.182,48.487c4.503-1.882,60.427-24.085,66.082,2.618c5.865,27.859-34.455,52.782-34.455,52.782
					S2273.971,1798.587,2269.259,1831.579z"/>
			</g>
			<g>
				<path style="fill:#F68B82;" d="M2114.118,1699.178c9.146,14.054,16.323,29.424,20.78,45.955
					c2.183,8.282,3.438,16.971,2.568,26.056c-0.891,8.942-6.214,18.941-15.198,23.162c-8.567,4.419-19.046,4.43-27.525,0.748
					c-8.489-3.643-15.395-9.427-20.966-15.964c-11.344-12.959-19.637-27.872-25.356-43.638
					c8.818,14.154,18.421,27.878,30.032,39.115c11.15,11.281,26.974,19.381,39.915,12.244c6.401-2.911,10.012-9.311,11.195-16.778
					c1.171-7.533,0.187-15.579-0.988-23.563C2125.634,1730.517,2120.142,1714.757,2114.118,1699.178z"/>
			</g>
			<g>
				<path style="fill:#F68B82;" d="M2206.97,1745.898c-15.534,9.608-30.915,19.326-45.26,30.178
					c-7.051,5.558-14.064,11.143-19.999,17.543c-5.749,6.196-11.358,13.768-10.768,20.509c0.017,1.662,0.607,3.186,1.425,4.672
					c0.846,1.475,2.361,2.652,3.425,4.089c1.478,1.024,3.099,1.887,4.707,2.784c1.907,0.402,3.694,1.079,5.671,1.387
					c8.056,1.2,16.88-0.672,25.404-2.878c17.124-4.799,33.73-12.437,50.039-20.586c-14.522,11.154-30.541,20.41-48.102,26.794
					c-8.75,3.219-18.156,5.492-28.314,4.617c-10.005-0.6-21.538-8.018-22.678-20.229c-0.393-5.883,1.783-11.077,4.341-15.331
					c2.63-4.292,5.757-8.007,9.12-11.38c6.825-6.615,14.184-12.338,21.998-17.279
					C2173.489,1760.772,2189.854,1752.402,2206.97,1745.898z"/>
			</g>
			<g>
				<path style="fill:#F68B82;" d="M2181.158,1824.303c-5.479,7.346-10.751,14.654-15.373,22.061
					c-4.319,7.181-8.749,15.92-6.666,21.599c0.761,2.581,3.676,5.178,7.022,6.658c3.322,1.634,7.399,1.964,11.551,1.959
					c8.36-0.319,17.168-2.394,25.844-5.239c-7.162,5.729-15.592,10.219-25.23,11.804c-9.247,1.711-22.062-0.506-27.165-12.409
					c-1.878-5.916-0.432-11.595,1.538-16.057c2.188-4.457,4.677-8.574,7.754-12.123
					C2166.34,1835.27,2173.438,1829.278,2181.158,1824.303z"/>
			</g>
		</g>
		<g>
			<path style="fill:#A4F2FC;" d="M1519.525,2327.453l-247.049-159.288l113.733-304.754l233.842,147.627
				C1649.06,2020.259,1548.429,2336.668,1519.525,2327.453z"/>
		</g>
		<g>
			<polygon style="fill:#89DCEA;" points="1488.735,2307.661 1488.84,2307.661 1441.19,2005.422 1346.517,2215.921 			"/>
		</g>
		<g>
			<g>
				<g>
					<g>
						<polygon style="fill:#FFA49D;" points="1254.657,4342.497 1262.162,4460.169 1317.578,4509.946 1436.395,4450.958 
							1438.89,4342.497 						"/>
					</g>
					<g>
						<g>
							<g>
								<g>
									<g>
										<path style="fill:#E5EAF0;" d="M1466.883,4502.919c-0.372,0-0.746-0.054-1.11-0.163c-1.504-0.451-2.548-1.775-2.645-3.354
											c-0.3-4.776-2.495-46.993,11.815-58.922c3.73-3.108,8.292-4.077,13.199-2.807c6.159,1.593,8.488,5.526,9.359,8.548
											c4.825,16.771-24.183,51.356-27.505,55.244C1469.2,4502.401,1468.046,4502.919,1466.883,4502.919z M1483.683,4444.981
											c-1.45,0-2.687,0.472-3.854,1.443c-6.811,5.673-9.074,25.739-9.13,41.889c10.387-13.657,21.495-31.766,19.232-39.625
											c-0.34-1.182-1.106-2.638-4.067-3.402C1485.083,4445.085,1484.358,4444.981,1483.683,4444.981z"/>
									</g>
								</g>
								<g>
									<g>
										<g>
											<g>
												<g>
													<path style="fill:#585D83;" d="M1694.356,4604.2h-436.148l3.927-144.013c47.321,19.572,121.816,16.252,174.226-9.224
														l15.554,25.734l167.736,67.286l33.399,13.36C1674.083,4565.359,1689.167,4582.917,1694.356,4604.2z"/>
												</g>
											</g>
										</g>
										<g>
											<g>
												<g>
													<path style="fill:#30323E;" d="M1258.254,4604.165l-1.262,29.237c-0.394,9.116,6.678,16.599,15.88,16.599h404.089
														c10.147,0,18.763-8.343,19.201-18.488l0.312-7.222c0.082-1.894,0.074-3.699-0.021-5.505
														c-0.015-1.633-0.12-3.183-0.311-4.732c-0.184-1.717-0.458-3.351-0.731-4.988l-1.078-4.9H1258.254z"/>
												</g>
											</g>
										</g>
										<g>
											<g>
												<g>
													<path style="fill:#434C69;" d="M1461.365,4526.418l115.659,42.551c12.781,4.698,27.728-0.622,35.057-12.742
														l7.576-12.247l-167.771-67.281l-5.448,11.625C1439.355,4503.415,1446.151,4520.729,1461.365,4526.418z"/>
												</g>
											</g>
										</g>
									</g>
									<g>
										<g>
											<g>
												<g>
													<path style="fill:#E5EAF0;" d="M1577.428,4552.412c1.527,0,3.021-0.9,3.722-2.396l11.136-23.821
														c0.934-1.998,0.101-4.304-1.861-5.152c-1.955-0.846-4.309,0.081-5.244,2.082l-11.136,23.821
														c-0.934,1.997-0.101,4.304,1.861,5.152C1576.4,4552.311,1576.914,4552.412,1577.428,4552.412z"/>
												</g>
											</g>
										</g>
										<g>
											<g>
												<g>
													<path style="fill:#E5EAF0;" d="M1547.44,4541.616c1.527,0,3.021-0.9,3.722-2.396l11.136-23.821
														c0.934-1.998,0.101-4.304-1.861-5.152c-1.959-0.844-4.302,0.083-5.244,2.082l-11.136,23.821
														c-0.934,1.998-0.101,4.304,1.861,5.152C1546.412,4541.514,1546.926,4541.616,1547.44,4541.616z"/>
												</g>
											</g>
										</g>
										<g>
											<g>
												<g>
													<path style="fill:#E5EAF0;" d="M1517.453,4530.819c1.527,0,3.021-0.9,3.722-2.396l11.136-23.823
														c0.934-1.997,0.101-4.306-1.861-5.152c-1.959-0.844-4.309,0.081-5.244,2.082l-11.136,23.823
														c-0.934,1.998-0.101,4.306,1.861,5.152C1516.425,4530.717,1516.938,4530.819,1517.453,4530.819z"/>
												</g>
											</g>
										</g>
										<g>
											<g>
												<g>
													<path style="fill:#E5EAF0;" d="M1487.469,4520.021c1.527,0,3.021-0.9,3.722-2.396l11.132-23.821
														c0.934-2,0.101-4.306-1.861-5.152c-1.959-0.846-4.305,0.083-5.244,2.082l-11.132,23.821
														c-0.934,1.999-0.098,4.305,1.861,5.151C1486.441,4519.918,1486.954,4520.021,1487.469,4520.021z"/>
												</g>
											</g>
										</g>
									</g>
								</g>
								<g>
									<g>
										<path style="fill:#E5EAF0;" d="M1467.355,4498.92c-1.32,0-2.546-0.666-3.23-1.81c-0.823-1.374-0.685-3.152,0.346-4.463
											c3.07-3.908,30.315-38.293,47.269-37.405c4.133,0.182,7.458,2.277,9.62,6.061c2.162,3.788,2.336,7.836,0.504,11.71
											c-7.425,15.712-48.979,24.834-53.692,25.822C1467.897,4498.894,1467.624,4498.92,1467.355,4498.92z M1510.773,4463.086
											c-7.671,0-21.894,13.189-32.678,25.296c15.382-4.296,33.298-11.303,36.685-18.472c0.71-1.506,0.62-2.892-0.297-4.494
											c-1.12-1.965-2.362-2.277-3.426-2.323C1510.964,4463.09,1510.869,4463.086,1510.773,4463.086z"/>
									</g>
								</g>
							</g>
						</g>
					</g>
				</g>
				<g>
					<path style="fill:#4B5173;" d="M1488.271,4362.584c0.651,32.327-271.852,32.327-272.069,0l-110.479-1052.872l-52.613-343.014
						l-35.69-233.233h361.023l21.588,8.136L1488.271,4362.584z"/>
				</g>
				<g>
					<polygon style="fill:#30323E;" points="1190.12,2768.83 1190.12,2875.464 1115.485,3341.931 1105.722,3309.712 
						1053.109,2966.698 					"/>
				</g>
				<g>
					<g>
						<polygon style="fill:#FFA49D;" points="708.732,4342.497 716.237,4460.169 771.653,4509.946 890.469,4450.958 
							892.965,4342.497 						"/>
					</g>
					<g>
						<g>
							<g>
								<g>
									<g>
										<path style="fill:#E5EAF0;" d="M920.958,4502.919c-0.372,0-0.746-0.054-1.11-0.163c-1.504-0.451-2.548-1.775-2.645-3.354
											c-0.3-4.776-2.496-46.993,11.815-58.922c3.73-3.108,8.292-4.077,13.199-2.807c6.159,1.593,8.488,5.526,9.359,8.548
											c4.825,16.771-24.183,51.356-27.505,55.244C923.275,4502.401,922.121,4502.919,920.958,4502.919z M937.757,4444.981
											c-1.45,0-2.687,0.472-3.854,1.443c-6.811,5.673-9.074,25.739-9.13,41.889c10.387-13.657,21.495-31.766,19.232-39.625
											c-0.34-1.182-1.106-2.638-4.067-3.402C939.158,4445.085,938.433,4444.981,937.757,4444.981z"/>
									</g>
								</g>
								<g>
									<g>
										<g>
											<g>
												<g>
													<path style="fill:#585D83;" d="M1148.431,4604.2H712.283l3.927-144.013c47.321,19.572,121.816,16.252,174.226-9.224
														l15.554,25.734l167.736,67.286l33.399,13.36C1128.158,4565.359,1143.242,4582.917,1148.431,4604.2z"/>
												</g>
											</g>
										</g>
										<g>
											<g>
												<g>
													<path style="fill:#30323E;" d="M712.329,4604.165l-1.262,29.237c-0.394,9.116,6.678,16.599,15.88,16.599h404.089
														c10.147,0,18.763-8.343,19.201-18.488l0.312-7.222c0.082-1.894,0.074-3.699-0.021-5.505
														c-0.015-1.633-0.12-3.183-0.311-4.732c-0.184-1.717-0.458-3.351-0.731-4.988l-1.078-4.9H712.329z"/>
												</g>
											</g>
										</g>
										<g>
											<g>
												<g>
													<path style="fill:#434C69;" d="M915.44,4526.418l115.659,42.551c12.781,4.698,27.728-0.622,35.057-12.742l7.576-12.247
														l-167.771-67.281l-5.448,11.625C893.43,4503.415,900.225,4520.729,915.44,4526.418z"/>
												</g>
											</g>
										</g>
									</g>
									<g>
										<g>
											<g>
												<g>
													<path style="fill:#E5EAF0;" d="M1031.503,4552.412c1.527,0,3.021-0.9,3.722-2.396l11.136-23.821
														c0.934-1.998,0.101-4.304-1.861-5.152c-1.955-0.846-4.309,0.081-5.244,2.082l-11.136,23.821
														c-0.934,1.997-0.101,4.304,1.861,5.152C1030.475,4552.311,1030.989,4552.412,1031.503,4552.412z"/>
												</g>
											</g>
										</g>
										<g>
											<g>
												<g>
													<path style="fill:#E5EAF0;" d="M1001.515,4541.616c1.527,0,3.021-0.9,3.722-2.396l11.136-23.821
														c0.934-1.998,0.101-4.304-1.861-5.152c-1.959-0.844-4.302,0.083-5.244,2.082l-11.136,23.821
														c-0.934,1.998-0.101,4.304,1.861,5.152C1000.487,4541.514,1001.001,4541.616,1001.515,4541.616z"/>
												</g>
											</g>
										</g>
										<g>
											<g>
												<g>
													<path style="fill:#E5EAF0;" d="M971.527,4530.819c1.527,0,3.021-0.9,3.722-2.396l11.136-23.823
														c0.934-1.997,0.101-4.306-1.861-5.152c-1.959-0.844-4.309,0.081-5.243,2.082l-11.136,23.823
														c-0.934,1.998-0.101,4.306,1.861,5.152C970.499,4530.717,971.013,4530.819,971.527,4530.819z"/>
												</g>
											</g>
										</g>
										<g>
											<g>
												<g>
													<path style="fill:#E5EAF0;" d="M941.543,4520.021c1.527,0,3.021-0.9,3.722-2.396l11.133-23.821
														c0.934-2,0.101-4.306-1.861-5.152c-1.959-0.846-4.305,0.083-5.244,2.082l-11.132,23.821
														c-0.934,1.999-0.098,4.305,1.861,5.151C940.515,4519.918,941.029,4520.021,941.543,4520.021z"/>
												</g>
											</g>
										</g>
									</g>
								</g>
								<g>
									<g>
										<path style="fill:#E5EAF0;" d="M921.43,4498.92c-1.32,0-2.546-0.666-3.23-1.81c-0.823-1.374-0.685-3.152,0.346-4.463
											c3.07-3.908,30.315-38.293,47.269-37.405c4.133,0.182,7.458,2.277,9.62,6.061c2.162,3.788,2.336,7.836,0.504,11.71
											c-7.425,15.712-48.979,24.834-53.692,25.822C921.972,4498.894,921.698,4498.92,921.43,4498.92z M964.847,4463.086
											c-7.671,0-21.894,13.189-32.678,25.296c15.382-4.296,33.298-11.303,36.685-18.472c0.71-1.506,0.62-2.892-0.297-4.494
											c-1.12-1.965-2.362-2.277-3.426-2.323C965.039,4463.09,964.943,4463.086,964.847,4463.086z"/>
									</g>
								</g>
							</g>
						</g>
					</g>
				</g>
				<g>
					<path style="fill:#4B5173;" d="M746.585,2733.5l-85.666,1629.107c-0.587,32.328,278.522,32.328,278.724,0L1179.081,2733.5
						h-51.49H746.585z"/>
				</g>
			</g>
			<g>
				<g>
					<path style="fill:#FFA49D;" d="M1219.085,1927.033c0,0-166.382,55.809-172.02,55.809c-5.543,0-107.512-68.521-107.512-68.521
						l9.365-202.888l50.172-224.007l31.25-58.964l110.475,18.348l23.223,173.359v1.05c0.096,5.446,0.86,30.201,7.645,59.155
						c4.109,17.587,10.512,36.701,20.26,53.901L1219.085,1927.033z"/>
				</g>
				<g>
					<path style="fill:#F68B82;" d="M1171.683,1680.375c-32.014-24.083-159.214-125.002-168.388-196.868c0,0,0,0,0.096,0.098
						c2.58,3.728,75.593,110.952,160.647,137.615C1164.134,1626.665,1164.898,1651.42,1171.683,1680.375z"/>
				</g>
				<g>
					<g>
						<path style="fill:#A4F2FC;" d="M1428.728,2382.435v440.059c0,50.271-747.744,43.358-747.744-6.806l12.672-72.577
							l52.991-303.179l-66.292-310.409l-43.461-203.275c19.584-73.308,227.15-147.45,227.15-147.45l34.979-24.719l49.745-42.622
							c16.232,36.547,53.515,71.631,108.601,105.355l39.063-4.295c10.054,9.951,36.235,75.926,37.911,80.114l0.104,0.21
							c18.432-18.537,32.256-45.24,42.1-71.529c17.175-45.552,15.29-87.023,15.29-87.023l66.501,62.938
							c0,0,107.763,40.423,160.231,92.996C1465.905,1937.349,1428.728,2382.435,1428.728,2382.435z"/>
					</g>
					<g>
						<path style="fill:#89DCEA;" d="M1024.904,2595.344l-32.884,147.767H693.655l52.991-303.179l-66.292-310.409l9.006-30.267
							l127.556-64.825c0,0,32.884,19.897,30.266,98.237c-2.618,78.227-91.635,256.159-91.635,256.159L1024.904,2595.344z"/>
					</g>
					<g>
						<path style="fill:#89DCEA;" d="M1258.455,1797.263c0,0-48.907,8.687-65.151,51.078
							c-16.331,42.306-5.473,263.821-5.473,263.821h-53.251c-4.864-25.365-7.471-51.078-8.513-75.488
							c-3.475-78.356,8.513-143.855,8.513-143.855c50.557-50.471,57.365-158.535,57.365-158.535L1258.455,1797.263z"/>
					</g>
					<g>
						<path style="fill:#89DCEA;" d="M1272.528,1852.684l-97.858-31.36c15.809-48.8,16.861-87.993,17.275-87.043l66.51,62.982
							L1272.528,1852.684z"/>
					</g>
					<g>
						<path style="fill:#6BC8D7;" d="M1126.067,2036.674l0.607,11.552c0,0-0.087-81.306-28.926-139.077
							c-28.927-57.856-198.582-155.057-198.582-155.057l49.776-42.611c17.044,39.027,57.103,73.351,108.586,105.328l39.091-4.343
							c9.99,9.989,36.224,76.01,37.875,80.18l0.087,0.174C1134.58,1892.819,1122.592,1958.318,1126.067,2036.674z"/>
					</g>
					<g>
						<path style="fill:#89DCEA;" d="M1057.528,1816.808c0,0-72.709,33.619-104.243,46.65l-89.04-84.612l34.921-24.754
							l49.776-42.611C966.076,1750.864,1006.545,1785.017,1057.528,1816.808z"/>
					</g>
					<g>
						<path style="fill:#6BC8D7;" d="M1164.953,1950.483c-4.36,4.422-11.481,4.422-15.901,0c-4.359-4.359-4.359-11.482,0-15.9
							c4.42-4.359,11.542-4.359,15.901,0C1169.373,1939.001,1169.373,1946.124,1164.953,1950.483z"/>
					</g>
					<g>
						<path style="fill:#6BC8D7;" d="M1164.953,2002.061c-4.36,4.422-11.481,4.422-15.901,0c-4.359-4.359-4.359-11.482,0-15.901
							c4.42-4.359,11.542-4.359,15.901,0C1169.373,1990.579,1169.373,1997.702,1164.953,2002.061z"/>
					</g>
					<g>
						<path style="fill:#6BC8D7;" d="M1164.953,2053.639c-4.36,4.422-11.481,4.422-15.901,0c-4.359-4.359-4.359-11.482,0-15.901
							c4.42-4.359,11.542-4.359,15.901,0C1169.373,2042.157,1169.373,2049.281,1164.953,2053.639z"/>
					</g>
				</g>
				<g>
					<g>
						<path style="fill:#1E1D1E;" d="M1407.559,1234.925c-17.349,34.106-50.028,61.68-87.936,67.146
							c-37.908,5.466-79.737-14.262-94.948-49.437c-8.912-20.796-8.318-44.684-1.902-66.426
							c6.536-21.631,18.538-41.116,31.966-59.301c9.388-12.597,19.727-24.956,33.392-32.795
							c13.547-7.845,31.016-10.578,45.038-3.568l89.838,32.087C1428.237,1160.654,1424.909,1200.702,1407.559,1234.925z"/>
					</g>
					<g>
						<path style="fill:#FFA49D;" d="M1237.818,1634.69c-22.816,7.253-45.751,6.417-68.091,0
							c-91.621-25.664-170.882-142.24-173.734-146.401c-66.903-28.879-119.665-133.688-75.222-166.843
							c61.318-45.392,98.394,21.626,98.394,21.626s-4.991-105.876,22.341-168.148c31.966-73.081,182.291-83.775,253.591-46.936
							c17.944,9.388,31.015,43.849,38.383,90.785c2.852,17.233,4.754,36.126,5.942,56.092
							C1347.739,1415.684,1317.08,1609.026,1237.818,1634.69z"/>
					</g>
					<g>
						<path style="fill:#A1172F;" d="M1253.041,1510.111v1.543c-0.595,18.777-11.289,35.058-26.738,43.495
							c-7.368,3.922-15.685,6.18-24.48,6.18c-21.745,0-40.402-13.665-47.77-32.795c-2.14-5.35-3.328-11.17-3.447-17.233v-1.189
							c0-1.068,0.357-2.019,0.357-2.971c37.314-4.398,72.131-5.582,101.721,0
							C1252.803,1508.092,1253.041,1509.044,1253.041,1510.111z"/>
					</g>
					<g>
						<path style="fill:#FFFFFF;" d="M1253.041,1510.111v1.543c-37.214,11.709-69.902,8.779-102.434-0.354v-1.189
							c0-1.068,0.357-2.019,0.357-2.971c37.314-4.398,72.131-5.582,101.721,0
							C1252.803,1508.092,1253.041,1509.044,1253.041,1510.111z"/>
					</g>
					<g>
						<path style="fill:#A4F2FC;" d="M1226.304,1555.15c-7.368,3.922-15.685,6.18-24.48,6.18c-21.745,0-40.402-13.665-47.77-32.795
							c14.735-8.199,33.154-8.675,48.959,0C1214.063,1534.592,1222.145,1544.218,1226.304,1555.15z"/>
					</g>
					<g>
						<path style="fill:#F68B82;" d="M1241.474,1455.479c-0.671,0-1.332-0.036-2.003-0.11c-2.322-0.259-3.995-2.347-3.742-4.667
							c0.264-2.317,2.366-3.979,4.667-3.736c3.368,0.36,6.912-1.065,9.982-4.05c4.248-4.13,6.592-10.288,6.119-16.074
							c-0.396-5.03-2.443-9.74-4.611-14.729c-0.792-1.819-1.585-3.637-2.3-5.478c-9.905-25.479-5.756-55.101-2.41-78.903
							c0.33-2.303,2.41-3.94,4.766-3.599c2.311,0.325,3.929,2.46,3.599,4.771c-3.203,22.832-7.187,51.243,1.926,74.666
							c0.671,1.739,1.42,3.456,2.168,5.176c2.344,5.404,4.777,10.989,5.294,17.414c0.682,8.356-2.553,16.888-8.661,22.818
							C1251.908,1453.214,1246.724,1455.479,1241.474,1455.479z"/>
					</g>
					<g>
						<ellipse style="fill:#1E1D1E;" cx="1298.212" cy="1359.626" rx="13.909" ry="24.167"/>
					</g>
					<g>
						<ellipse style="fill:#1E1D1E;" cx="1175.637" cy="1355.838" rx="13.909" ry="24.167"/>
					</g>
					<g>
						<path style="fill:#1E1D1E;" d="M1278.289,1319.62c-0.902,0-1.805-0.286-2.575-0.875c-1.838-1.417-2.201-4.061-0.781-5.91
							c0.407-0.534,10.136-13.061,24.653-14.03c8.827-0.616,17.18,3.095,25.027,10.929c1.64,1.651,1.651,4.325,0,5.976
							c-1.651,1.651-4.347,1.651-5.976,0c-6.02-6.015-12.051-8.871-18.435-8.474c-10.676,0.682-18.479,10.637-18.556,10.739
							C1280.809,1319.054,1279.554,1319.62,1278.289,1319.62z"/>
					</g>
					<g>
						<path style="fill:#1E1D1E;" d="M1150.159,1314.725c-0.902,0-1.805-0.283-2.564-0.869c-1.86-1.417-2.212-4.069-0.793-5.924
							c0.407-0.531,10.136-13.061,24.664-14.027c8.827-0.583,17.18,3.098,25.016,10.932c1.651,1.651,1.64,4.325,0,5.976
							c-1.651,1.651-4.336,1.651-5.987,0c-6.031-6.037-12.227-8.92-18.468-8.472c-10.742,0.713-18.435,10.623-18.512,10.725
							C1152.69,1314.153,1151.425,1314.725,1150.159,1314.725z"/>
					</g>
					<g>
						<path style="fill:#1E1D1E;" d="M1333.531,1218.825c-17.384-0.731-37.177-2.828-57.18-6.914
							c-67.339-13.72-138.972-40.525-138.972-9.107c0,59.481-68.282,11.935-91.322,56.444c-2.304,4.295-3.98,8.591-5.131,12.779
							c-11.52,38.122,16.756,66.185,5.131,77.916c-13.091,12.989-26.914-6.913-26.914-6.913s-37.073-67.024-98.338-21.574
							c-44.509,33.202,8.273,137.928,75.193,166.83c5.655,6.494-8.378,55.083-13.929,85.56c0,0-39.901-58.121-105.564-200.237
							c-17.07-37.073-6.597-129.128-4.922-150.278c1.466-20.004,3.456-29.009,5.55-31.944
							c-12.671-23.037-32.465-65.035-20.631-83.99c32.465-52.465,138.762-8.586,182.014-82.421
							c97.5-166.304,255.322-25.967,299.726,59.906c7.331,14.241,83.99,4.398,104.307,8.064
							C1485.699,1100.696,1408.096,1221.862,1333.531,1218.825z"/>
					</g>
					<g>
						<path style="fill:#1E1D1E;" d="M886.351,1207.201c-0.837-1.156-4.503-7.231-9.216-15.816
							C881.429,1185.31,885.932,1205.003,886.351,1207.201z"/>
					</g>
				</g>
				<g>
					<g>
						<path style="fill:#F43F62;" d="M1226.304,1555.15c-7.368,3.922-15.685,6.18-24.48,6.18c-21.745,0-40.402-13.665-47.77-32.795
							c14.735-8.199,33.154-8.675,48.959,0C1214.063,1534.592,1222.145,1544.218,1226.304,1555.15z"/>
					</g>
					<g>
						<path style="fill:#F68B82;" d="M1241.474,1455.479c-0.671,0-1.332-0.036-2.003-0.11c-2.322-0.259-3.995-2.347-3.742-4.667
							c0.264-2.317,2.366-3.979,4.667-3.736c3.368,0.36,6.912-1.065,9.982-4.05c4.248-4.13,6.592-10.288,6.119-16.074
							c-0.396-5.03-2.443-9.74-4.611-14.729c-0.792-1.819-1.585-3.637-2.3-5.478c-9.905-25.479-5.756-55.101-2.41-78.903
							c0.33-2.303,2.41-3.94,4.766-3.599c2.311,0.325,3.929,2.46,3.599,4.771c-3.203,22.832-7.187,51.243,1.926,74.666
							c0.671,1.739,1.42,3.456,2.168,5.176c2.344,5.404,4.777,10.989,5.294,17.414c0.682,8.356-2.553,16.888-8.661,22.818
							C1251.908,1453.214,1246.724,1455.479,1241.474,1455.479z"/>
					</g>
				</g>
			</g>
			<g>
				<path style="fill:#FFA49D;" d="M1024.904,2553.872l-28.945,184.559c0,0-589.42-35.73-632.639-151.552
					c-43.219-115.815,85.452-358.085,85.452-358.085l241.792,76.058l-76.547,145.867L1024.904,2553.872z"/>
			</g>
			<g>
				<path style="fill:#A4F2FC;" d="M653.402,1900.235c-31.965,7.44-208.542,270.515-229.73,332.468
					c-6.359,17.442,259.287,153.633,265.647,136.191c0,0,169.54-202.574,153.291-288.783
					C813.738,1926.929,653.402,1900.235,653.402,1900.235z"/>
			</g>
			<g>
				<g>
					<path style="fill:#4B5173;" d="M1318.186,2459.383l-42.351,286.992c-2.395,16.229-17.552,29.436-33.873,29.436h-176.894
						c-16.227,0-27.486-13.207-25.091-29.436l42.351-286.992c2.395-16.229,17.552-29.436,33.779-29.436H1293
						C1309.321,2429.947,1320.581,2443.154,1318.186,2459.383z"/>
				</g>
				<g>
					<path style="fill:#30323E;" d="M1157.146,2429.947c-16.227,0-31.416,13.207-33.775,29.436l-42.36,286.992
						c-2.453,16.229,8.868,29.436,25.095,29.436h-41.039c-16.227,0-27.454-13.207-25.096-29.436l42.36-286.992
						c2.359-16.229,17.548-29.436,33.775-29.436H1157.146z"/>
				</g>
			</g>
			<g>
				<path style="fill:#FFA49D;" d="M1252.892,2614.719c-5.131,30.16-73.832,33.407-73.832,33.407s60.218,0.629,50.373,32.047
					c-9.111,28.902-78.44,22.305-89.122,21.155c9.53,1.78,67.863,13.51,49.85,37.073c-19.688,25.552-194.162,0-194.162,0
					l28.905-184.529c0,0,22.621-71.109,55.923-70.271l-13.824,79.802c0,0,134.887-21.262,138.239,14.032
					c1.152,12.252-6.598,19.897-17.07,24.714C1220.323,2598.483,1255.72,2598.064,1252.892,2614.719z"/>
			</g>
		</g>
	</g>
</g>
</svg>
