<?xml version="1.0" encoding="utf-8"?>
<!-- Generator: Adobe Illustrator 27.5.0, SVG Export Plug-In . SVG Version: 6.00 Build 0)  -->
<svg version="1.1" id="Layer_1" xmlns="http://www.w3.org/2000/svg" xmlns:xlink="http://www.w3.org/1999/xlink" x="0px" y="0px"
	 viewBox="0 0 2000 2000" style="enable-background:new 0 0 2000 2000;" xml:space="preserve">
<rect style="fill:#FFFFFF;" width="2000" height="2000"/>
<g>
	<path style="fill:#F7EEDA;" d="M1562.686,966.507c2.682,194.664-100.22,369.997-249.68,500.715
		c-55.252,48.327-117.281,93.236-183.378,133.135c-105.376,63.621-221.214,114.511-336.639,146.219
		c-33.21,9.135-68.601,6.837-103.549,4.538c-7.956-0.56-15.913-1.091-23.781-1.473c-3.094-0.177-6.218-0.354-9.312-0.649
		c-9.548-0.913-18.977-2.74-27.11-7.367c-27.67-15.677-11.61-81.183-11.61-107.645c0-47.708,0-95.387,0.029-143.096v-22.219
		c0.03-28.112,0.03-56.254,0.03-84.396c0.029-57.197,0.029-114.394,0.059-171.59c0.029-42.021,0-84.012,0-126.004
		c0-23.781,0-47.561-0.029-71.341V843.243c0-19.714,0-39.428,0.029-59.142c0.029-39.958,0.089-79.946,0.147-119.904
		c0-2.328-0.03-4.862-0.059-7.544v-1.297c-0.059-4.125-0.147-8.604-0.265-13.408c-0.118-4.332-0.265-8.929-0.412-13.703
		c-0.56-18.064-1.356-39.28-1.974-61.912c-0.855-32.002-1.414-66.803-0.531-99.335v-0.442c0.413-14.793,1.09-29.114,2.181-42.492
		c0.177-2.151,0.354-4.273,0.56-6.365c2.299-24.841,6.1-45.97,12.111-60.085c2.829-6.66,6.159-11.787,10.019-14.97
		c35.656-29.409,87.46-43.199,133.43-48.828c86.782-10.667,181.963-6.718,275.287,11.08c3.124,0.59,6.247,1.208,9.371,1.827
		c0.56,0.118,1.09,0.236,1.65,0.324c28.407,5.776,56.637,12.819,84.337,21.158c51.598,15.441,98.157,35.538,139.854,60.527
		c91.35,54.78,159.185,133.017,204.859,236.979C1531.421,723.929,1561.036,846.661,1562.686,966.507z"/>
	<path style="fill:#E8D0A9;" d="M812.191,1055.294c-0.059-0.118-0.147-0.236-0.236-0.354
		C811.72,1055.235,811.779,1055.353,812.191,1055.294L812.191,1055.294z M502.309,933.092c-2.21,1.002-4.568,2.24-7.131,3.742
		C494.854,937.453,497.653,935.92,502.309,933.092L502.309,933.092z M1368.317,790.349c-2.092-20.716-21.806-33.181-39.664-39.634
		c-21.364-7.691-44.968-11.168-67.569-12.642c-2.387-0.147-4.774-0.265-7.131-0.354c1.149-0.501,2.357-0.943,3.477-1.473
		c11.669-5.127,23.22-10.638,34.536-16.561c9.459-4.892,18.948-9.901,27.523-16.266c14.793-11.021,27.67-28.289,21.983-47.708
		c-5.776-19.567-26.108-30.057-44.231-35.715c-21.629-6.748-44.496-10.667-66.98-12.966c-44.025-4.45-88.875-1.415-131.986,8.663
		c14.645-12.406,28.908-25.224,42.758-38.485c35.774-34.33,68.807-71.783,97.155-112.508c14.321-20.568,27.434-41.991,39.222-64.151
		c2.063-3.89,4.096-7.839,6.041-11.816c10.343-21.011,18.8-43.112,21.511-66.509c0.56-4.803,0.855-9.665,0.825-14.557
		c-0.029-19.831-4.833-39.781-15.47-56.607c-12.76-20.244-33.21-33.711-56.961-37.129c-23.073-3.33-46.736,2.682-67.953,11.581
		c-7.485,3.124-14.734,6.689-21.806,10.579c-14.321,7.868-27.906,17.032-41.225,26.55c-18.624,13.319-36.687,27.405-54.132,42.257
		c-21.335,18.093-41.756,37.306-61.175,57.492c-35.361,36.746-67.54,76.586-95.8,119.049c-28.26,42.434-52.777,87.46-72.874,134.284
		c-1.179,2.682-2.269,5.422-3.359,8.074c-0.177-0.265-0.324-0.53-0.56-0.795c-1.886-2.24-6.1-3.065-8.31-0.737
		c-17.445,18.181-29.998,40.636-36.51,64.829c-2.475,1.562-4.98,3.094-7.455,4.656c-21.364-80.27-63.267-153.763-84.307-234.091
		c-7.573-28.997-27.552-71.224-48.386-100.043c-6.011,14.115-9.813,35.243-12.111,60.085c-0.206,2.092-0.383,4.214-0.56,6.365
		c-1.09,13.378-1.768,27.7-2.181,42.492V467c-0.884,32.532-0.324,67.333,0.531,99.335c0.619,22.631,1.414,43.848,1.974,61.912
		c0.147,4.774,0.295,9.371,0.412,13.703c0.118,4.804,0.206,9.283,0.265,13.408v1.297c0.029,2.682,0.059,5.216,0.059,7.544
		c-0.059,39.958-0.118,79.946-0.147,119.904c-0.029,19.714-0.029,39.428-0.029,59.142v124.384
		c0.029,25.342,0.029,50.655,0.059,75.967c86.016,6.218,166.021,24.959,245.879-17.533c37.542-19.979-1.149,60.144,38.632,45.056
		c49.182-18.624,331.158-170.677,378.395-196.314c20.48-11.11,41.284-22.926,59.937-36.923
		C1355.676,826.594,1370.38,810.505,1368.317,790.349z"/>
	<path style="fill:#E8D0A9;" d="M1588.368,1431.416c-14.203-12.288-32.886-18.948-51.038-22.601
		c-10.078-2.03-20.333-3.566-30.646-4.774c-14.204-1.677-28.525-2.767-42.64-3.798c-70.369-5.072-141.386-1.709-211.048,9.78
		c11.257-9.368,22.13-19.242,32.503-29.615c20.598-20.536,47.826-47.767,42.168-79.737c-4.597-26.138-30.912-37.987-54.515-41.608
		c-13.437-2.063-26.934-2.125-40.459-1.945c-10.626,0.121-21.249,0.498-31.863,1.087c13.632-25.251,24.358-52.069,31.71-79.807
		c4.402-16.617,7.55-33.543,9.521-50.617c1.859-16.072,2.189-32.382-0.675-48.363c-2.764-15.453-9.147-30.493-20.206-41.847
		c-10.411-10.685-24.264-17.389-38.962-19.572c-31.171-4.635-63.123,7.007-90.236,21.494
		c-28.702,15.338-55.794,34.227-81.463,54.165c-51.922,40.327-97.68,88.386-135.911,141.849
		c-38.217,53.437-68.683,112.466-89.797,174.697c-0.144,0.419-0.277,0.843-0.418,1.264c-7.444,20.863-15.842,41.47-23.801,62.207
		c-2.914,11.952-6.256,23.828-9.78,35.644c-12.002,59.036-20.047,119.097-28.598,178.778c75.125-4.04,150.085-10.927,224.674-20.757
		c106.172-13.997,211.608-33.744,315.629-59.23c5.776-1.417,11.522-2.832,17.268-4.305c46.235-11.607,92.204-24.396,137.791-38.246
		c25.637-7.812,51.156-15.972,76.557-24.488c22.955-7.665,46.765-14.586,68.719-24.844c16.885-7.924,34.477-19.917,40.224-38.662
		C1608.288,1460.415,1601.599,1442.852,1588.368,1431.416L1588.368,1431.416z"/>
	<path style="fill:#52252F;" d="M1001.782,630.058c5.779-17.843-0.195-37.813-14.018-50.319c-4.438-4.013-9.439-7.102-14.837-9.217
		c8.537-12.948,9.845-30.732,0.536-43.889c-6.978-9.857-18.626-15.612-30.479-16.281c-0.133-5.431-1.217-10.862-3.297-15.939
		c-5.354-13.063-13.464-25.852-25.996-32.082c-67.074-33.331-93.713,4.29-98.755,2.122c-16.299-7.01-32.388-11.684-50.248-7.924
		c-32.411,6.825-54.274,37.227-60.924,68.256c-1.971,9.194-38.538,2.248-56.012,71.344c-9.111,36.036,17.492,92.638,49.812,106.803
		c4.638,2.036,9.385,3.704,14.192,5.154c15.789,23.456,36.994,20.872,61.14,35.512c24.393,14.793,54.471,20.336,80.411,6.094
		c4.196-2.307,8.068-5.139,11.572-8.345c15.294,6.68,31.746,10.629,48.504,9.91c24.499-1.052,47.891-11.657,62.236-31.955
		c2.702-3.825,4.959-7.956,6.766-12.276C994.666,706.833,1030.124,653.073,1001.782,630.058L1001.782,630.058z"/>
	<path style="fill:#D1583F;" d="M728.705,667.756c0.451-1.833,0.2-3.863-0.645-5.734c-2.11-4.674-1.09-10.659-2.293-15.594
		c-1.246-5.13-4.562-10.158-9.106-12.933c-5.396-3.3-12.144-3.02-16.959,1.178c-4.022,3.513-5.487,8.705-6.088,13.824
		c-2.605,22.098,4.933,44.455,18.512,61.755c2.917,3.719,9.521,2.319,11.569-1.491C730.406,696.284,732.1,681.391,728.705,667.756
		L728.705,667.756z"/>
	<path style="fill:#D1583F;" d="M691.097,893.748c17.348,27.464,41.164,113.091,71.562,126.24
		c37.106,16.051,77.756-47.735,114.762-63.305c-6.224-3.963-11.593-8.581-14.634-15.105c-3.265-7.005,7.364-11.755,7.836-19.399
		c1.426-23.114,5.472-45.705,10.874-68.256c2.334-9.751,6.064-48.64,14.115-53.431c2.514-1.497,4.069-4.217,2.864-7.741
		c-0.194-0.578-10.906-4.344-11.112-4.912c-0.086-1.388,9.875,0.613,9.073-0.383c-7.482-18.562-30.652-38.22-47.251-50.452
		c-20.185-14.875-46.724-24.803-72.552-20.686c-8.923,1.423-17.25,4.939-24.246,10.131c-0.91-1.067-2.166-1.886-3.784-2.307
		c-3.719-0.966-8.885,1.199-9.571,5.145c-7.231,41.732-14.475,94.653-34.89,132.584c-4.573,8.49-10.941,16.39-18.683,22.452
		C687.236,887.466,689.108,890.601,691.097,893.748L691.097,893.748z"/>
	<path style="fill:#D1583F;" d="M952.516,626.185c-7.222-106.926-155.395-125.969-217.024-49.187
		c-16.776,20.896-19.634,40.577-20.798,66.137c-0.637,13.929-0.69,27.965,1.494,41.727c-0.946,1.111-1.556,2.587-1.544,4.473
		c0.106,17.418,4.706,37.312,7.582,54.492c2.749,16.416,9.141,20.748,16.101,35.968c9.438,20.636,32.497,26.276,52.945,29.907
		c21.167,3.76,25.239,9.362,46.712,10.511c18.5,0.99,42.766-10.924,60.91-16.305c43.998-13.057,48.633-49.429,53.988-67.39
		C958.1,719.008,954.573,656.622,952.516,626.185L952.516,626.185z"/>
	<path style="fill:#596E35;" d="M998.899,998.361c-14.999-10.697-29.527-17.946-41.638-20.86
		c-14.027-15.795-19.832-8.693-40.842-11.584c-26.609-3.713-52.482,1.152-78.237,7.868c-28.348,7.399-57.226,16.623-86.93,13.941
		c-22.513-2.007-44.526-11.525-62.236-25.463c-20.509-16.175-35.892-38.455-42.492-63.795c-1.385-5.337-6.748-6.221-10.549-4.246
		c-5.952-2.328-12.141-3.268-18.27-3.032v76.436c0.029,70.048,0.059,140.063,0.029,210.105
		c-0.029,98.749-0.059,197.466-0.088,296.212c-0.029,50.77-0.029,101.546-0.029,152.348c0,28.168-16.06,97.892,11.61,114.597
		c8.133,4.921,17.563,6.869,27.11,7.841c3.094,0.292,6.218,0.501,9.312,0.674c42.492,2.272,85.044,1.002,127.33-3.239
		c76.439-126.74,154.205-252.777,226.106-382.169c27.435-49.326,53.897-98.628,70.516-153.232
		C1116.21,1123.305,1054.18,1037.613,998.899,998.361L998.899,998.361z"/>
	<path style="fill:#596E35;" d="M1000.106,966.451c-2.063-6.161-5.569-11.348-9.96-15.768
		c-18.742-18.975-90.731-113.133-106.735-97.721c-10.608,10.255-50.77,90.092-103.812,105.651c-3.742,1.09-7.337,2.502-10.225-0.118
		c-29.379-26.61-52.691-62.872-52.04-101.49c0.557-33.01,5.619-45.687,5.531-45.657c-39.384-24.591-102.81-2.543-105.138-1.391
		l-0.024,157.67c12.73,16.8,25.342,33.77,38.986,49.833c14.528,17.15,31.56,32.441,52.953,40.253
		c22.513,8.251,47.767,7.276,70.752,1.529c16.207-4.037,31.619-10.549,46.588-17.972c48.887,0.354,71.312-16.738,119.256-26.403
		c15.677-3.156,31.236-6.866,46.647-11.08c2.652-0.737,4.626-2.711,6.011-5.425C1003.524,989.465,1002.198,972.727,1000.106,966.451
		L1000.106,966.451z"/>
	<path style="fill:#2B0907;" d="M816.725,633.995c2.988-9.471,0.722-24.558-9.839-26.206c-15.338-2.39-16.847,16.926-12.771,27.119
		C800.447,650.739,813.029,645.709,816.725,633.995L816.725,633.995z"/>
	<path style="fill:#D1583F;" d="M664.97,718.536c0.295-1.267,0.295-2.623,0-4.005c-1.65-7.34-9.813-7.75-15.706-5.923
		c-7.102,2.24-14.056,5.039-20.922,7.924c-3.625,1.503-7.22,3.009-10.608,4.921c0,27.493-0.029,54.96-0.029,82.454
		c23.545-22.219,45.999-47.446,48.74-81.154C666.591,720.864,665.972,719.479,664.97,718.536L664.97,718.536z"/>
	<path style="fill:#2B0907;" d="M910.074,633.019c2.186-9.633-0.748-24.438-10.493-25.254c-14.15-1.19-14.422,18.102-10.11,27.906
		C896.16,650.898,907.369,644.933,910.074,633.019L910.074,633.019z"/>
	<path style="fill:#52252F;" d="M829.725,581.634c-1.387-3.789-4.12-7.05-7.656-9.183c-8.35-5.028-18.643-5.771-27.83-2.936
		c-9.416,2.904-17.687,8.611-22.922,16.783c-7.289,11.389,2.451,16.483,10.975,13.459c5.538-1.966,19.218-2.177,25.232-2.62
		C818.433,596.338,835.752,598.102,829.725,581.634L829.725,581.634z"/>
	<path style="fill:#596E35;" d="M718.661,1347.312c-3.925-8.13-12.88-14.539-22.151-13.635c-5.413,0.53-9.774,3.577-13.641,7.205
		c-2.363,2.216-5.207,5.637-8.487,7.367c-1.771-1.108-4.128-1.088-5.51,0.963c-4.447-0.348-6.615,5.419-3.787,7.721
		c-8.033,17.498-13.832,35.983-16.976,55.001c-1.476,8.917-3.907,19.375-1.815,28.36c2.213,9.497,11.56,12.742,19.519,7.27
		c7.891-5.425,14.875-13.281,21.299-20.309c6.621-7.24,12.774-14.967,18.099-23.215c5.534-8.575,10.281-17.86,13.464-27.576
		C721.725,1367.155,723.06,1356.429,718.661,1347.312L718.661,1347.312z"/>
	<path style="fill:#52252F;" d="M880.25,577.296c12.482-21.417,43.615-1.871,50.932,14.548c10.178,22.849-35.291,3.191-46.659,1.694
		C876.864,592.531,876.381,583.935,880.25,577.296L880.25,577.296z"/>
	<path style="fill:#52252F;" d="M966.159,576.087c0.041-1.217-0.215-2.507-0.946-3.825c-24.122-43.462-71.721-70.575-121.472-68.586
		c-10.249,0.41-20.433,1.986-30.311,4.695c-1.995-1.441-4.644-1.948-6.928-1.288c-0.542-1.352-1.146-2.679-1.895-3.943
		c-3.657-6.185-11.858-3.415-13.496,1.856c-38.741,10.281-72.367,38.155-90.286,73.949c-5.195,10.376-9.161,21.352-11.587,32.703
		c-1.022,4.806,2.322,8.16,6.047,8.991c0.348,0.79,0.804,1.544,1.394,2.219c6.937,7.959,14.631,15.627,24.768,19.278
		c9.663,3.483,20.642,1.645,29.111-3.996c19.982-13.305,22.313-37.728,18.968-59.581c-1.108-7.232-2.797-14.366-4.24-21.538
		c9.553-0.908,18.815-3.362,26.854-9.015c5.334-3.748,9.739-8.445,12.698-14.1c5.204,10.426,15.25,18.924,25.516,23.945
		c16.063,7.85,34.91,9.733,52.04,4.515c9.091,6.353,18.179,12.706,27.267,19.059c8.861,6.197,17.793,14.018,28.221,17.407
		c9.247,3.003,20.795,0.922,26.424-7.606C967.232,586.787,967.786,581.041,966.159,576.087L966.159,576.087z"/>
	<path style="fill:#94301C;" d="M859.76,629.368c4.962,3.857,8.463,9.332,9.262,15.627c0.751,5.926-1.138,12.589-5.098,17.315
		c-1.535,1.827-1.795,4.456,0,6.25c1.573,1.574,4.709,1.839,6.25,0c5.611-6.692,8.664-15.417,7.609-24.181
		c-0.996-8.286-5.139-16.107-11.772-21.261c-1.883-1.465-4.414-1.836-6.25,0C858.234,624.641,857.863,627.894,859.76,629.368
		L859.76,629.368z"/>
	<path style="fill:#D1583F;" d="M721.785,1320.572c-0.177-1.827-0.855-3.504-1.974-4.832c0.118-1.382-52.317-119.931-63.476-132.354
		c-12.544-13.964-32.317-17.023-50.033-14.047c-10.048,1.686-19.561,5.475-28.864,9.507c-7.729,3.35-18.229,6.657-20.07,16.107
		c-1.199,6.156,1.806,10.847,6.303,13.923c-0.451,0.239-0.908,0.454-1.352,0.698c-5.416,3.003-10.729,6.831-12.503,13.078
		c-1.674,5.897,1.043,12.014,5.661,15.718c2.602,2.089,5.454,3.324,8.457,3.958c-2.178,4.037-2.903,8.687-1.073,13.632
		c2.077,5.622,6.176,8.221,10.947,9.683c-1.341,1.707-2.443,3.695-3.244,6.026c-1.795,5.224-1.397,11.324,1.842,15.898
		c3.866,5.457,10.205,7.01,16.59,6.922c5.351-0.073,9.035-0.017,13.42,3.353c4.653,3.584,8.634,8.366,12.45,12.786
		c1.865,2.166,2.796,4.933,2.796,7.747c-0.003,13.673,34.371,65.147,67.879,65.144
		C690.054,1383.519,726.558,1371.493,721.785,1320.572L721.785,1320.572z"/>
	<path style="fill:#94301C;" d="M850.207,650.637c-6.999-2.083-15.067,1.193-18.671,7.532c-1.143,2.01-0.542,4.924,1.585,6.047
		c2.098,1.108,4.827,0.563,6.047-1.585c0.25-0.439,0.527-0.861,0.828-1.264c-0.23,0.298-0.46,0.595-0.69,0.893
		c0.619-0.799,1.329-1.503,2.125-2.128l-0.893,0.69c0.857-0.651,1.783-1.185,2.773-1.612c-0.351,0.15-0.704,0.301-1.055,0.448
		c0.996-0.41,2.027-0.695,3.094-0.855c-0.392,0.053-0.784,0.106-1.176,0.159c1.067-0.142,2.13-0.15,3.197-0.009
		c-0.392-0.05-0.784-0.106-1.176-0.156c0.566,0.083,1.117,0.203,1.662,0.368c2.216,0.657,4.915-0.796,5.437-3.088
		C853.834,653.698,852.579,651.344,850.207,650.637L850.207,650.637z"/>
	<path style="fill:#596E35;" d="M1079.75,1096.462c-2.213-4.043-35.562-1.344-48.248,1.421c-18.291,3.99-33.16,16.564-45.203,30.322
		c-14.598,16.682-27.42,35.072-40.828,52.703l-42.687,56.115c-28.445,37.398-56.982,74.727-85.321,112.198
		c-25.84,34.165-51.253,69.317-68.256,108.874c-17.742,41.272-26.15,87.935-15.167,132.036c-0.183,0.48-13.552-8.245-13.278-7.783
		c12.927,21.854,30.237,48.424,49.243,58.095c21.385,10.88,46.421,10.134,68.613,2.019c24.049-8.79,44.09-25.107,61.255-43.771
		c17.516-19.042,33.007-40.061,48.613-60.665c31.056-41.004,60.618-83.285,86.007-128.064c24.95-44.013,43.096-91.447,59.28-139.468
		C1122.663,1184.756,1082.711,1101.873,1079.75,1096.462L1079.75,1096.462z"/>
	<path style="fill:#FFFFFF;" d="M875.763,691.728c-1.288-3.339-3.551-4.573-5.826-5.481c-9.144-3.651-19.561,1.745-28.433,11.351
		c-1.789,1.939-2.991,5.64-1.276,8.28c0.919,1.411,2.449,2.245,3.689,2.337c4.464,0.318,8.286-2.242,12.833-2.982
		c5.021-0.816,10.016-0.318,14.99-0.286c1.226,0.009,2.578-0.059,3.633-1.647c1.179-1.777,1.588-4.992,1.305-7.547
		C876.503,694.144,876.185,692.824,875.763,691.728L875.763,691.728z"/>
	<path style="fill:#D1583F;" d="M669.874,691.877c5.136-6.665,6.913-15.04,5.307-23.315c-0.911-4.7-2.832-9.017-5.254-13.075
		c1.288-15.895-3.577-31.563-13.997-43.942c-11.43-13.578-29.948-20.845-47.549-19.743c-9.288,0.583-19.251,3.027-26.574,9.035
		c-6.875,5.643-10.09,15.63-5.861,23.727c-3.539,1.574-6.848,3.589-9.592,6.386c-5.169,5.266-7.95,13.322-6.147,20.606
		c2.051,8.307,9.548,13.045,17.766,13.402c1.096,0.05,2.178-0.006,3.256-0.097c-1.624,0.749-3.2,1.567-4.647,2.552
		c-8.678,5.905-14.071,17.848-5.466,26.456c6.365,6.365,15.37,5.204,23.524,6.245c-3.182,1.883-5.899,4.52-7.673,7.815
		c-3.625,6.724-2.402,14.764,2.92,20.209c4.122,4.216,9.774,5.97,14.807,8.746c4.405,2.437,6.621,5.959,9.677,10.305
		c3.471,4.945,7.323,9.966,12.927,12.618c14.121,6.681,29.718-2.301,35.117-15.951c2.525-6.383,2.858-12.828,1.877-19.163
		C670.902,715.127,672.266,703.208,669.874,691.877L669.874,691.877z"/>
	<path style="fill:#596E35;" d="M859.664,1469.194c-30.67-48.895-125.282-152.044-132.643-161.872
		c-3.53-4.712-13.705-8.425-11.018-3.18c11.669,22.808-10.938,56.389-23.881,79.377c-6.442,11.442-14.003,25.557-22.006,35.974
		c-10.877,14.159-29.771,8.814-21.818,27.276c10.308,23.928,25.089,55.349,37.854,78.036c13.281,23.612,27.019,47.398,42.843,69.42
		c13.207,18.382,31.448,35.276,55.856,30.611c12.379-2.363,23.403-9.553,33.269-17.059c9.53-7.246,18.609-15.085,26.721-23.892
		C903.727,1519.935,860.18,1470.014,859.664,1469.194L859.664,1469.194z"/>
	<path style="fill:#3B1C25;" d="M960.49,1159.536c-25.407,27.735-50.257,56.033-72.938,86.06
		c-20.495,27.128-38.859,55.744-55.326,85.48c-10.641,19.21-20.554,38.815-30.078,58.603c-1.034,2.148-0.589,4.774,1.585,6.044
		c1.933,1.132,5.009,0.578,6.047-1.585c16.134-33.513,33.422-66.523,53.372-97.942c18.134-28.554,38.246-55.207,59.94-80.992
		c14.15-16.821,28.802-33.21,43.647-49.418c1.612-1.759,1.739-4.509,0-6.25C965.105,1157.9,962.108,1157.768,960.49,1159.536
		L960.49,1159.536z"/>
	<path style="fill:#3B1C25;" d="M722.989,1305.404c0.604-0.38-1.317,0.436-0.613,0.251c0.474-0.124-1.535,0.103-0.642,0.094
		c0.872-0.006-0.928-0.256-0.595-0.097c0.18,0.082,0.463,0.118,0.657,0.168c0.248,0.062,1.067,0.416,0.15,0.032
		c-0.949-0.398,0.086,0.059,0.327,0.183c0.557,0.289,1.096,0.613,1.624,0.952c0.654,0.421,1.291,0.869,1.915,1.329
		c0.171,0.13,0.339,0.262,0.513,0.386c0.566,0.404-0.84-0.669-0.289-0.224c0.392,0.318,0.79,0.628,1.182,0.946
		c1.659,1.358,3.262,2.785,4.836,4.24c9.318,8.614,17.831,18.117,26.167,27.667c11.08,12.694,21.753,25.749,32.158,39
		c10.844,13.812,21.8,28.434,32.193,43.126c9.412,13.296,18.547,26.821,26.91,40.807c0.914,1.533,1.818,3.065,2.711,4.609
		c2.85,4.924,10.491,0.478,7.632-4.461c-8.145-14.068-17.168-27.626-26.477-40.948c-10.679-15.288-21.827-30.249-33.272-44.971
		c-10.765-13.847-21.815-27.476-33.284-40.739c-8.69-10.055-17.566-20.041-27.234-29.17c-3.224-3.044-6.562-6.02-10.202-8.56
		c-2.278-1.588-5.024-3.221-7.903-3.097c-1.008,0.044-2.063,0.303-2.926,0.843C713.715,1300.783,718.147,1308.433,722.989,1305.404
		L722.989,1305.404z"/>
	<path style="fill:#3B1C25;" d="M650.5,1378.892c-4.986,10.49-9.816,21.677-9.878,33.499c-0.056,10.647,3.913,20.586,7.803,30.308
		c9.503,23.742,19.466,47.322,30.201,70.537c10.499,22.705,21.75,45.365,35.78,66.125c14.192,20.999,31.996,40.465,54.945,51.943
		c21.674,10.844,47.832,15.326,71.147,7.09c2.959-1.049,5.858-2.29,8.672-3.681c2.139-1.055,2.732-4.087,1.585-6.044
		c-1.276-2.184-3.901-2.649-6.047-1.585c-20.454,10.105-44.732,7.945-65.33-0.819c-22.059-9.383-39.631-26.574-53.469-45.811
		c-14.133-19.646-25.325-41.417-35.691-63.235c-10.617-22.342-20.368-45.1-29.692-68.011c-3.975-9.763-8.684-19.67-10.532-30.113
		c-0.091-0.516-0.174-1.031-0.248-1.547c0.106,0.769-0.059-0.592-0.08-0.796c-0.115-1.161-0.183-2.322-0.203-3.489
		c-0.015-1.096,0.012-2.192,0.08-3.289c0.035-0.519,0.08-1.037,0.13-1.553c0.023-0.224,0.047-0.448,0.074-0.672
		c0.162-1.432-0.074,0.424,0.053-0.407c0.813-5.269,2.481-10.358,4.458-15.294c1.182-2.947,2.511-5.832,3.872-8.693
		c1.025-2.157,0.598-4.771-1.585-6.05C654.622,1376.181,651.531,1376.729,650.5,1378.892L650.5,1378.892z"/>
	<path style="fill:#3B1C25;" d="M828.988,1402.581c21.983,4.353,42.849,13.202,61.252,25.994c5.125,3.563,10.001,7.441,14.66,11.59
		c1.783,1.588,4.494,1.759,6.25,0c1.618-1.615,1.792-4.656,0-6.25c-17.572-15.65-38.261-27.561-60.633-34.864
		c-6.286-2.054-12.692-3.71-19.181-4.995c-2.337-0.463-4.771,0.669-5.434,3.088C825.304,1399.319,826.636,1402.116,828.988,1402.581
		L828.988,1402.581z"/>
	<path style="fill:#3B1C25;" d="M989.913,995.006c-23.636,5.917-47.143,12.362-70.487,19.343
		c-23.344,6.987-46.529,14.498-69.532,22.537c-13.016,4.547-25.973,9.265-38.868,14.147c-2.231,0.843-3.763,2.979-3.088,5.434
		c0.589,2.142,3.194,3.937,5.437,3.088c22.79-8.622,45.772-16.735,68.928-24.32c23.159-7.579,46.488-14.631,69.965-21.152
		c13.287-3.689,26.618-7.205,39.994-10.549C997.778,1002.152,995.441,993.624,989.913,995.006L989.913,995.006z"/>
	<path style="fill:#3B1C25;" d="M620.945,963.532c3.513,7.774,8.867,14.905,13.815,21.795c8.457,11.778,17.498,23.152,26.939,34.156
		c6.026,7.025,12.241,13.888,18.659,20.56c3.949,4.105,10.196-2.151,6.25-6.25c-10.983-11.416-21.382-23.391-31.239-35.788
		c-7.393-9.297-14.545-18.845-20.984-28.837c-2.092-3.247-4.211-6.563-5.808-10.096c-0.981-2.174-4.14-2.702-6.047-1.585
		C620.294,958.797,619.958,961.352,620.945,963.532L620.945,963.532z"/>
	<path style="fill:#3B1C25;" d="M855.464,993.182c-5.437,40.023-9.279,80.247-11.404,120.582
		c-0.598,11.374-1.061,22.758-1.394,34.141c-0.165,5.693,8.675,5.687,8.84,0c1.167-39.852,3.958-79.651,8.389-119.276
		c1.238-11.047,2.596-22.08,4.093-33.096c0.318-2.363-0.569-4.744-3.088-5.437C858.841,989.531,855.788,990.801,855.464,993.182
		L855.464,993.182z"/>
	<path style="fill:#3B1C25;" d="M676.176,951.754c-16.882,38.841-30.204,79.174-39.555,120.488
		c-2.646,11.69-4.971,23.453-6.99,35.267c-0.401,2.352,0.625,4.762,3.085,5.437c2.128,0.583,5.033-0.719,5.44-3.088
		c7.063-41.355,17.99-82.041,32.641-121.354c4.052-10.876,8.386-21.644,13.01-32.287c0.952-2.189,0.648-4.744-1.585-6.047
		C680.352,949.075,677.134,949.553,676.176,951.754L676.176,951.754z"/>
	<path style="fill:#94301C;" d="M742.995,780.977c11.943,15.665,28.209,26.397,47.016,32.09c18.023,5.452,36.973,5.726,55.65,5.257
		c10.65-0.268,21.284-0.872,31.928-1.338c2.387-0.106,4.42-1.957,4.42-4.42c0-2.313-2.024-4.526-4.42-4.42
		c-18.632,0.819-37.309,2.098-55.962,1.182c-16.749-0.819-33.634-4.414-48.442-13.004c-8.714-5.057-16.44-11.787-22.558-19.811
		c-1.444-1.892-3.807-2.894-6.047-1.586C742.715,776.02,741.539,779.067,742.995,780.977L742.995,780.977z"/>
	<path style="fill:#3B1C25;" d="M700.525,544.76c-7.797-2.558-15.718,1.641-21.343,6.854c-5.195,4.821-9.002,11.047-11.283,17.734
		c-4.606,13.499-1.815,28.248,6.892,39.428c4.797,6.156,11.118,10.726,18.358,13.59c2.219,0.878,4.853-0.961,5.437-3.089
		c0.69-2.508-0.858-4.556-3.088-5.436c-9.583-3.789-17.25-12.704-19.938-22.696c-2.764-10.269-0.068-22.042,6.981-30.266
		c3.707-4.326,9.657-9.553,15.636-7.594c2.266,0.746,4.827-0.863,5.437-3.085C704.271,547.795,702.803,545.508,700.525,544.76
		L700.525,544.76z"/>
	<path style="fill:#3B1C25;" d="M956.633,596.064c3.627-8.124,7.119-16.39,9.2-25.068c2.039-8.516,3.032-18.061,0.554-26.606
		c-2.178-7.515-7.175-14.112-12.815-19.399c-5.608-5.254-12.356-9.992-19.764-12.279c-4.022-1.243-8.407-1.747-12.598-1.255
		c-2.074,0.242-4.102,0.619-6.067,1.347c-0.035,0.015-2.089,0.813-1.597,0.654c0.304-0.097-0.917,0.236-0.333,0.15
		c-0.53,0.08-0.746,0.104-1.105-0.144c-0.704-0.478-1.709-2.402-2.44-3.436c-1.261-1.792-2.587-3.536-3.96-5.242
		c-2.24-2.782-4.662-5.416-7.284-7.841c-11.316-10.467-25.882-16.605-41.331-17.009c-17.852-0.469-35.727,6.615-48.377,19.207
		c-4.04,4.02,2.21,10.273,6.25,6.253c9.942-9.898,23.63-15.871,37.533-16.567c13.576-0.675,27.01,3.648,37.285,12.265
		c5.122,4.293,9.5,9.309,13.187,14.748c1.014,1.494,1.912,3.076,3.324,4.241c1.789,1.473,4.064,2.384,6.409,2.378
		c1.986-0.003,3.527-0.711,5.345-1.332c1.712-0.583,3.454-0.934,5.26-1.005c7.075-0.271,13.328,2.882,18.939,6.908
		c5.44,3.901,10.367,8.976,13.588,14.875c3.787,6.931,3.68,15.7,2.172,23.512c-1.756,9.1-5.242,17.754-9.005,26.185
		c-0.972,2.18-0.633,4.753,1.585,6.047C952.472,598.755,955.654,598.256,956.633,596.064L956.633,596.064z"/>
	<path style="fill:#3B1C25;" d="M745.454,508.616c-11.039,2.363-19.788,13.446-19.01,24.824
		c0.816,11.926,10.514,21.438,22.257,22.664c2.378,0.247,4.42-2.21,4.42-4.42c0-2.596-2.036-4.17-4.42-4.42
		c-3.182-0.33-6.639-2.213-9.106-4.768c-2.517-2.611-4.211-6.194-4.338-9.574c-0.286-7.352,5.201-14.209,12.544-15.78
		c2.337-0.498,3.695-3.23,3.088-5.437C750.227,509.288,747.793,508.115,745.454,508.616L745.454,508.616z"/>
	<path style="fill:#94301C;" d="M705.328,658.332c2.855,10.476,5.708,20.946,8.563,31.421c1.494,5.481,10.025,3.153,8.522-2.352
		c-2.852-10.47-5.708-20.946-8.56-31.419C712.359,650.502,703.828,652.827,705.328,658.332L705.328,658.332z"/>
	<path style="fill:#94301C;" d="M607.072,707.273c9.99-2.004,20.651-0.271,29.471,4.83c8.109,4.688,14.295,11.926,18.034,20.483
		c0.955,2.187,4.158,2.69,6.047,1.585c2.257-1.32,2.543-3.854,1.585-6.05c-4.373-10.01-12.173-18.582-21.7-23.937
		c-10.856-6.097-23.627-7.877-35.786-5.437c-2.343,0.471-3.689,3.253-3.088,5.437C602.304,706.625,604.724,707.745,607.072,707.273
		L607.072,707.273z"/>
	<path style="fill:#94301C;" d="M594.376,669.886c17.533-4.629,36.646-1.297,51.996,8.575c4.379,2.817,8.277,6.132,11.846,9.96
		c3.89,4.17,10.131-2.092,6.253-6.25c-14.009-15.023-34.601-23.462-55.09-23.185c-5.84,0.077-11.707,0.884-17.353,2.372
		C586.528,662.814,588.859,671.342,594.376,669.886L594.376,669.886z"/>
	<path style="fill:#94301C;" d="M585.912,630.096c19.953-3.259,41.025,0.645,58.7,10.37c5.054,2.782,9.857,6.008,14.274,9.716
		c1.827,1.532,4.458,1.792,6.253,0c1.574-1.577,1.836-4.709,0-6.253c-17.442-14.631-39.572-23.044-62.342-23.721
		c-6.448-0.195-12.872,0.324-19.234,1.364c-2.36,0.386-3.672,3.312-3.088,5.44C581.162,629.515,583.549,630.485,585.912,630.096
		L585.912,630.096z"/>
	<path style="fill:#94301C;" d="M575.928,1210.155c13.375-3.418,28.08-7.166,41.561-4.299c10.09,2.148,20.439,8.057,24.37,17.677
		c0.902,2.207,2.938,3.772,5.434,3.085c2.092-0.572,3.996-3.212,3.088-5.437c-3.943-9.651-11.675-16.752-21.202-20.822
		c-11-4.697-22.799-4.936-34.498-3.277c-7.134,1.014-14.133,2.764-21.102,4.547C568.069,1203.041,570.403,1211.566,575.928,1210.155
		L575.928,1210.155z"/>
	<path style="fill:#94301C;" d="M574.216,1234.356c-0.501,0.254-1.002,0.504-1.506,0.754c-0.516,0.277-0.928,0.657-1.241,1.138
		c-0.389,0.427-0.654,0.928-0.79,1.503c-0.186,0.589-0.209,1.176-0.08,1.762c0.027,0.589,0.203,1.138,0.525,1.644
		c0.23,0.298,0.46,0.598,0.693,0.893c0.551,0.551,1.202,0.929,1.951,1.137c0.389,0.056,0.781,0.106,1.176,0.159
		c0.796-0.003,1.541-0.207,2.228-0.604c0.504-0.25,1.005-0.501,1.506-0.751c0.516-0.28,0.928-0.657,1.241-1.14
		c0.389-0.424,0.654-0.925,0.793-1.503c0.183-0.586,0.209-1.173,0.077-1.762c-0.026-0.589-0.2-1.134-0.524-1.644
		c-0.23-0.298-0.46-0.595-0.69-0.893c-0.554-0.548-1.202-0.928-1.951-1.135c-0.392-0.056-0.784-0.109-1.176-0.159
		C575.648,1233.758,574.905,1233.955,574.216,1234.356L574.216,1234.356z"/>
	<path style="fill:#94301C;" d="M576.866,1233.91c-0.186-0.032-0.374-0.062-0.56-0.094v8.525
		c16.446-6.247,35.002-3.683,49.562,6.232c3.925,2.67,7.597,6.13,10.726,9.972c1.506,1.851,4.682,1.568,6.25,0
		c1.833-1.833,1.512-4.394,0-6.253c-12.394-15.229-32.827-23.474-52.314-22.045c-5.667,0.412-11.26,1.55-16.576,3.568
		c-1.845,0.702-3.244,2.187-3.244,4.261c0,1.801,1.359,3.949,3.244,4.264c0.189,0.029,0.374,0.062,0.563,0.094
		c2.349,0.389,4.756-0.619,5.434-3.088C580.535,1237.231,579.235,1234.305,576.866,1233.91L576.866,1233.91z"/>
	<path style="fill:#94301C;" d="M580.914,1271.778c9.105-3.336,19.186-3.389,28.186,0.386c7.511,3.15,13.867,8.885,17.993,15.904
		c2.879,4.904,10.523,0.463,7.632-4.458c-11.263-19.181-35.167-28.044-56.163-20.359c-2.24,0.822-3.757,3.002-3.085,5.44
		C576.069,1270.85,578.659,1272.6,580.914,1271.778L580.914,1271.778z"/>
	<path style="fill:#3B1C25;" d="M681.42,1391.537c-0.195,0.601-0.398,1.199-0.619,1.795c-0.133,0.357-0.271,0.713-0.41,1.067
		c-0.156,0.392-0.162,0.375,0.006-0.006c-0.536,1.217-1.111,2.413-1.747,3.586c-0.607,1.111-1.261,2.196-1.963,3.25
		c-0.383,0.581-0.784,1.152-1.196,1.715c-0.15,0.203-0.301,0.407-0.454,0.607c0.581-0.775-0.186,0.224-0.247,0.303
		c-1.6,1.962-3.368,3.792-5.281,5.452c-0.477,0.418-0.967,0.819-1.459,1.214c-0.978,0.79,0.707-0.501-0.312,0.236
		c-0.253,0.186-0.51,0.374-0.766,0.557c-1.087,0.769-2.21,1.482-3.362,2.148c-2.001,1.161-2.876,4.046-1.585,6.047
		c1.299,2.018,3.907,2.829,6.047,1.586c10.37-6.018,18.179-15.822,21.874-27.208c0.713-2.198-0.834-4.924-3.088-5.437
		C684.432,1387.897,682.186,1389.179,681.42,1391.537L681.42,1391.537z"/>
	<path style="fill:#E8D0A9;" d="M1014.193,1618.01c1.621-1.503,3.241-3.006,4.833-4.538c7.956-7.688,15.5-15.792,22.602-24.252
		c7.013-8.31,14.086-16.944,17.71-27.346c7.013-20.009-5.982-38.249-24.841-44.673c-21.629-7.396-44.084,3.536-63.09,13.143
		c-38.19,19.272-74.995,41.284-110.091,65.745c-35.155,24.485-68.66,51.418-100.131,80.535
		c-25.313,23.424-49.27,48.324-71.754,74.492c32.786,10.037,106.308,8.062,140.735,6.943
		c136.444-4.432,239.623-18.137,336.324-68.224c32.591-16.879,29.138-65.127-5.864-76.162
		C1113.605,1598.844,1037.21,1609.473,1014.193,1618.01L1014.193,1618.01z"/>
	<path style="fill:#3B1C25;" d="M973.013,1538.248c11.236-5.896,22.667-11.866,35.294-14.097c9.636-1.7,20.518-0.489,28.987,4.945
		c8.41,5.398,12.415,14.84,12.397,24.555c-0.021,10.417-4.131,20.294-10.514,28.643c-7.942,10.384-18.677,18.323-29.088,26.038
		c-1.768,1.314-2.758,3.362-1.809,5.519c0.86,1.957,3.068,3.212,5.216,2.561c38.155-11.552,79.032-13.909,118.254-6.707
		c11.266,2.072,22.378,4.912,33.263,8.484c2.269,0.745,4.827-0.863,5.437-3.088c0.66-2.399-0.81-4.692-3.085-5.437
		c-39.337-12.907-81.581-16.019-122.435-9.542c-11.425,1.812-22.714,4.415-33.785,7.768c1.137,2.69,2.272,5.384,3.406,8.077
		c10.396-7.703,21.002-15.512,29.335-25.507c8.042-9.648,13.54-20.875,14.513-33.517c0.916-11.905-3.012-24.397-12.312-32.261
		c-9.176-7.759-21.609-10.794-33.458-9.913c-15.857,1.178-30.24,8.587-44.078,15.845c-2.113,1.108-2.752,4.054-1.585,6.049
		C968.218,1538.802,970.891,1539.359,973.013,1538.248L973.013,1538.248z"/>
	<path style="fill:#3B1C25;" d="M1229.572,1419.039c-38.785,14.227-76.307,31.893-111.912,52.851
		c-10.078,5.929-20,12.126-29.76,18.565c-1.989,1.317-2.838,3.91-1.585,6.05c1.155,1.977,4.046,2.906,6.047,1.585
		c34.165-22.543,70.345-42.012,108.002-58.057c10.408-4.435,20.94-8.572,31.56-12.465c2.24-0.825,3.757-3.003,3.085-5.44
		C1234.416,1419.967,1231.826,1418.214,1229.572,1419.039L1229.572,1419.039z"/>
	<path style="fill:#3B1C25;" d="M1206.098,741.382c-33.151,10.703-65.197,24.877-95.425,42.192
		c-30.222,17.309-58.661,37.78-84.702,60.906c-14.551,12.925-28.33,26.707-41.258,41.252c-1.588,1.783-1.759,4.494,0,6.25
		c1.612,1.615,4.659,1.792,6.25,0c22.705-25.546,48.05-48.772,75.552-69.067c27.649-20.398,57.388-37.966,88.618-52.293
		c17.342-7.957,35.158-14.855,53.313-20.716c2.272-0.731,3.739-3.062,3.088-5.436
		C1210.922,742.24,1208.379,740.645,1206.098,741.382L1206.098,741.382z"/>
</g>
</svg>
