<?xml version="1.0" encoding="UTF-8"?>
<svg xmlns="http://www.w3.org/2000/svg" version="1.1" viewBox="0 0 1196 1707">
  <!-- Generator: Adobe Illustrator 28.7.7, SVG Export Plug-In . SVG Version: 1.2.0 Build 194)  -->
  <g>
    <g id="Layer_1">
      <path d="M428.553,291.694c56.4-18.587,112.96-36.734,169.294-55.507,1.773-.84,3.613.307,5.36.72,60.426,20.213,121.186,39.427,181.613,59.64-12.893,4.467-25.867,8.72-38.867,12.88-6.533,2.253-13.173,4.24-19.333,7.4-40.707-10.12-81.373-20.4-122.107-30.36-4.013-1.693-5.386,3.2-4.48,6.173,3.92,4.747,10.667,4.747,16.12,6.507,20.187,5.427,40.747,9.4,60.92,14.867,10.507,3.613,21.654,4.786,32.16,8.293-14.48,3.96-28.24,10.107-42.586,14.44-21.294,7.2-42.56,14.507-63.947,21.387-2.413.56-4.787-.587-7.067-1.214-24.906-8.653-50.106-16.453-75-25.16-13.906-4.533-27.866-8.906-41.64-13.826-21.48-6.867-42.826-14.2-64.213-21.374,4.467-1.973,9.133-3.373,13.773-4.866Z" style="fill: #5469dd;"/>
      <path d="M600.033,292.64c-.906-2.974.467-7.867,4.48-6.174,40.734,9.96,81.4,20.24,122.107,30.36,1.867.614,3.707,1.334,5.547,2.054-.454,13.666.013,27.346-.267,41.026,1.32,1.054,2.733,2.04,3.907,3.28,1.52,2.4-.547,5.027-1.12,7.4,1.466,2.467,3.186,5.014,2.92,8.04.026,11.16-.054,22.334.026,33.494-5.666.866-11.453.653-17.16.333l-.746-.72c-.147-10.573.013-21.147-.054-31.733-.24-3.387,1.44-6.4,2.774-9.387-.707-2.16-2.134-4.347-1.6-6.707,1.346-2.24,4.56-3.56,4.293-6.533-.413-11.187.32-22.387-.267-33.573-.746-.214-2.266-.627-3.013-.84-2.12-.6-4.227-1.2-6.36-1.747-30.32-7.947-60.773-15.387-91.187-22.96-8.08-1.947-16.093-4.147-24.28-5.613Z" style="fill: #fcba31;"/>
      <path d="M600.033,292.64c8.187,1.467,16.2,3.667,24.28,5.613,30.414,7.574,60.867,15.014,91.187,22.96-2.107.294-4.2.64-6.267,1.094-10.506-3.507-21.653-4.68-32.16-8.294-20.173-5.466-40.733-9.44-60.92-14.866-5.453-1.76-12.2-1.76-16.12-6.507Z" style="fill: #2e398e;"/>
      <path d="M413.713,296.173l1.067.387c21.387,7.173,42.733,14.507,64.213,21.373-.92,1.414-2.586,2.827-1.506,4.654-21.374-6.854-42.52-14.414-63.92-21.174.013-1.746.066-3.493.146-5.24Z" style="fill: #2d3b7c;"/>
      <path d="M784.82,296.547l.973-.347c.134,1.747.254,3.494.374,5.24-18.04,5.667-35.894,11.987-54,17.44-1.84-.72-3.68-1.44-5.547-2.053,6.16-3.16,12.8-5.147,19.333-7.4,13-4.16,25.974-8.413,38.867-12.88Z" style="fill: #283871;"/>
      <path d="M477.487,322.586c-1.08-1.826.586-3.24,1.506-4.653,13.774,4.92,27.734,9.293,41.64,13.827,24.894,8.706,50.094,16.506,75,25.16,2.28.626,4.654,1.773,7.067,1.213,21.387-6.88,42.653-14.187,63.947-21.387,14.346-4.333,28.106-10.48,42.586-14.44,2.067-.453,4.16-.8,6.267-1.093,2.133.547,4.24,1.147,6.36,1.747-9.533,3.466-19.147,6.68-28.733,9.96-.48,22.813.24,45.64-.24,68.44-2.294,6.093-8.547,9.546-14.067,12.32.12-11.2-1.493-22.387-4.32-33.214-2.293-6.866-4.533-14.173-9.56-19.6-4.067-4.32-10.533-2.626-15.533-1.306-15.707,4.586-30.587,11.586-46.254,16.293-1.946.667-3.906-.36-5.746-.827-19.84-7.133-40.027-13.24-60-19.946-11.254-3.694-22.827-6.347-34.547-8.067-.04-5.307.067-10.6-.013-15.907-8.427-2.933-16.96-5.546-25.36-8.52Z" style="fill: #2c3680;"/>
      <path d="M502.86,347.013c11.72,1.72,23.293,4.374,34.547,8.067,19.973,6.707,40.16,12.813,60,19.946,1.84.467,3.8,1.494,5.746.827,15.667-4.706,30.547-11.706,46.254-16.293,5-1.32,11.466-3.014,15.533,1.306,5.027,5.427,7.267,12.734,9.56,19.601,2.827,10.826,4.44,22.013,4.32,33.213-11.213,5.413-23.427,8.413-35.693,10.306-34.68,5.227-70.56,4.894-104.747-3.346-11.613-3.053-23.907-6.507-32.68-15.173-2.64-2.387-2.747-6.147-2.773-9.441.093-16.346-.347-32.679-.067-49.013Z" style="fill: #5469dd;"/>
      <path d="M190.02,478.893c10.867-15.786,29.987-25.133,49.12-24.32,232.413-.12,464.84-.093,697.253-.04,13.907-.226,27.987,4.427,38.374,13.814,12.72,10.6,19.266,27.373,19.12,43.733.2,32.253-.187,64.52.053,96.787-22.28-.16-44.547.013-66.827.026-6.933-.466-14.106,5.134-13.986,12.36.053,26.254-.12,52.534.04,78.8-.187,5.894,4.226,10.667,9.293,13.027.253,9.387.133,18.773.133,28.147,8.72-8.734,16.16-18.694,24.72-27.574,15.534-.44,31.107.147,46.654-.346-.187,56.48-.16,112.946-.014,169.426-.266,130.667.08,261.317-.146,391.987-.307,9.03.706,18.33-2.134,27.08-4.293,15.07-15.36,27.91-29.426,34.71-2.587,1.17-5.214,2.73-8.147,2.49-7.693-30.17-16.16-60.24-21.373-90.99-6.707-40.34,5.56-80.21,9.6-120.13,1.733-12.59,2.72-25.25,2.813-37.95,4.693-1.41,8.573-4.98,10.213-9.62,3.387-9.54,1.174-19.75.4-29.52-2.746-25.28-5.026-50.62-7.506-75.923-1.294-11.014-1.667-22.094-2.96-33.094-.4-3.56-.294-7.146-.014-10.706,3.667-19.32,7.627-39.307,3.64-58.894-4.253-21.8-18.666-40.88-37.386-52.466-14.174-9.267-31.2-12.6-47.774-14.347.68-8.573-.213-17.187.587-25.733,7.107-4.68,10.373-12.88,13.893-20.254,4.667-11.213,8.44-23.106,8.747-35.346.267-6.374-1.267-13.227-5.973-17.8-2.907-2.934-7.067-3.8-10.64-5.56-1.787-7.987-6.454-16.014-14.84-18.32-7.747-3.307-15.254,2.106-22.987,2.2-7.893-.267-12.787-7.694-20.16-9.48-7.867-2.414-17.04,1.96-20.267,9.506-5.853,13.627-.2,32.427,14.494,37.694-3.667,8.946-4.627,18.866-5.414,28.44-.373,10.306-.253,21.266,4.734,30.586,3.08,5.92,9.48,9,15.72,10.467-.107,3.213-.2,6.427-.147,9.64.067,3.147.093,6.293.147,9.453-.587-2.12-1.054-4.266-1.534-6.4-7.64,1.814-15.533,2.72-22.866,5.654-10,3.986-19.934,8.72-28,16-10.307,9.253-20.254,18.893-30.027,28.706-4.8,4.347-9.387,9.934-16.053,11.227-5.934-.6-10.494-5.053-15.107-8.427-4.747-3.853-9.307-7.946-14.16-11.68-.307-6.12-2.56-12.053-6.56-16.706-2.813-2.8-6.08-5.094-9.547-6.96-6.8-28.747-13.946-57.44-21.546-86-3.067.6-6.134,1.213-9.2,1.8.493-27.24.346-54.48.213-81.707-.427-11.667,1.76-24.293-4.173-34.96-5.174-10.267-16.494-16.907-27.974-16.52-107.986.053-215.973-.027-323.96.067-12.733-.107-24.546,8.413-29.626,19.88-3.92,9.986-1.494,20.96-2.214,31.4-.32,62.653.107,125.32-.093,187.986,22.213.494,44.427.08,66.64.267,6.08.213,12.267-1.16,18.24.453-14.8,7.894-27.187,20.854-32.707,36.854-8.573.2-17.506-1.107-25.693,2.213-17.76,5.947-31.293,23.693-30.387,42.72-.066,112.04.027,224.09-.12,336.12,24.44.23,48.88.44,73.32.01,2.24,25.23,4.494,50.46,6.76,75.68-.053.64-.146,1.94-.2,2.58-27.96.41-55.933.34-83.906.36-7.6-.18-15.24.44-22.814-.47-25.413-3.12-46.866-25.99-47.68-51.68-.52-62.63.094-125.27-.2-187.89.014-157.857.054-315.71.107-473.563,21.747.013,43.507.213,65.267-.08,7.08.373,13.2-6.147,13.093-13.107.52-17.293.173-34.627.08-51.933,223.173-.32,446.36-.027,669.52-.147,6.56.253,13.12-3.707,15.173-10.093,4.547-9.8-4.546-22.08-15.213-21.027-223.133.12-446.28-.16-669.413.16-.747-4.093-1.92-8.8-5.907-10.92-5.373-3.413-12.027-1.773-18.013-2.08-18.267-.467-36.52-.267-54.774-.08-.706-13.733,1.427-28.253,9.627-39.667ZM231.393,499.013c-6.213,1.454-7.986,10.734-2.44,14.094,4.547,3.773,12.014.613,12.84-5.134,1.32-5.733-4.88-11.013-10.4-8.96ZM258.047,499.12c-5.054,1.133-7.414,7.507-4.547,11.787,2.96,5.666,12.36,5.013,14.373-1.134,2.947-5.88-3.76-12.933-9.826-10.653ZM284.607,499.107c-5.64,1.506-7.774,9.453-3.28,13.36,4.213,4.626,12.96,1.72,13.64-4.48,1.306-5.694-4.92-10.96-10.36-8.88ZM310.353,499.147c-5.253,1.72-6.773,8.84-3.133,12.84,3.987,5.16,13.293,2.293,13.96-4.134,1.373-5.893-5.453-10.893-10.827-8.706ZM336.82,499.2c-5.68,1.72-7.32,10.013-2.48,13.6,4.4,4.213,12.64,1.267,13.373-4.773,1.174-5.92-5.306-11.16-10.893-8.827Z" style="fill: #fff;"/>
      <path d="M231.393,499.013c5.52-2.053,11.72,3.227,10.4,8.96-.826,5.747-8.293,8.907-12.84,5.134-5.546-3.36-3.773-12.64,2.44-14.094Z" style="fill: #6f86de;"/>
      <path d="M258.047,499.12c6.066-2.28,12.773,4.773,9.826,10.653-2.013,6.147-11.413,6.8-14.373,1.133-2.867-4.28-.507-10.653,4.547-11.786Z" style="fill: #6e83db;"/>
      <path d="M284.607,499.107c5.44-2.08,11.666,3.186,10.36,8.88-.68,6.2-9.427,9.106-13.64,4.48-4.494-3.907-2.36-11.854,3.28-13.36Z" style="fill: #7b90e1;"/>
      <path d="M310.353,499.147c5.374-2.187,12.2,2.813,10.827,8.706-.667,6.427-9.973,9.294-13.96,4.134-3.64-4-2.12-11.12,3.133-12.84Z" style="fill: #7f94dd;"/>
      <path d="M336.82,499.2c5.587-2.334,12.067,2.906,10.893,8.826-.733,6.04-8.973,8.987-13.373,4.774-4.84-3.587-3.2-11.88,2.48-13.6Z" style="fill: #738adf;"/>
      <path d="M141.193,522.133c4.04-3.973,10.08-3.506,15.294-3.6,7.96.187,15.933-.186,23.906.027,18.254-.187,36.507-.387,54.774.08,5.986.307,12.64-1.333,18.013,2.08,3.987,2.12,5.16,6.827,5.907,10.92-.387,10.36-.374,20.733-.067,31.107.093,17.306.44,34.64-.08,51.933.107,6.96-6.013,13.48-13.093,13.107-21.76.293-43.52.093-65.267.08-10.227.04-20.467.32-30.693-.014-7.454.12-14.174-7.066-13.214-14.56.147-26.64-.066-53.28.067-79.92-.24-4.2,1.093-8.546,4.453-11.24ZM187.673,532.76c-14.693,4.067-26.146,17.373-28.453,32.4-3.12,17.187,5.413,36.293,21.52,43.827,18.76,10.626,44.64,1.64,54.053-17.414,9.134-16.493,4.827-38.746-9.6-50.813-10-9.027-24.72-11.52-37.52-8Z" style="fill: #ceddfc;"/>
      <path d="M187.673,532.76c12.8-3.52,27.52-1.027,37.52,8,14.427,12.067,18.734,34.32,9.6,50.813-9.413,19.054-35.293,28.04-54.053,17.414-16.107-7.534-24.64-26.64-21.52-43.827,2.307-15.027,13.76-28.333,28.453-32.4ZM195.767,573.533c-5.68-4.92-12.174-8.786-18.24-13.2-1.88-1.813-4.414-1.173-6.6-.413,4.746,7.213,11.346,12.987,16.586,19.84,2.987,3.173,5.254,7.253,8.974,9.613,2.693-1.226,4.986-3.12,7.333-4.88,9.12-6.96,18.387-13.72,27.533-20.64-3.386-5.133-7.586-9.653-11.253-14.573-8.667,7.48-15.307,17.16-24.333,24.253Z" style="fill: #576ada;"/>
      <path d="M259.087,531.64c223.133-.32,446.28-.04,669.413-.16,10.667-1.053,19.76,11.227,15.213,21.027-2.053,6.386-8.613,10.346-15.173,10.093-223.16.12-446.347-.173-669.52.147-.307-10.374-.32-20.747.067-31.107ZM284.9,540.413c-5.467,1.454-7.76,9.36-3.627,13.347,3.614,4.12,11.614,3.733,13.747-1.72,3.333-6.067-3.52-14.493-10.12-11.627ZM312.78,540.48c-7.6,2.147-6.627,14.573,1.107,15.64,6.16,1.947,11.92-5.053,9.573-10.8-1-4.6-6.693-5.92-10.68-4.84ZM340.767,540.44c-4.68,1.427-6.574,7.333-4.427,11.533,2.6,6.387,13.56,5.88,15.427-.88,2.746-6.44-4.654-13.506-11-10.653Z" style="fill: #dededf;"/>
      <path d="M284.9,540.413c6.6-2.866,13.453,5.56,10.12,11.627-2.133,5.453-10.133,5.84-13.747,1.72-4.133-3.987-1.84-11.893,3.627-13.347Z" style="fill: #fff;"/>
      <path d="M312.78,540.48c3.987-1.08,9.68.24,10.68,4.84,2.347,5.747-3.413,12.747-9.573,10.8-7.734-1.067-8.707-13.493-1.107-15.64Z" style="fill: #fbfefe;"/>
      <path d="M340.767,540.44c6.346-2.853,13.746,4.214,11,10.654-1.867,6.76-12.827,7.266-15.427.88-2.147-4.2-.253-10.107,4.427-11.534Z" style="fill: #fff;"/>
      <path d="M195.767,573.533c9.026-7.093,15.666-16.773,24.333-24.253,3.667,4.92,7.867,9.44,11.253,14.573-9.146,6.92-18.413,13.68-27.533,20.64-2.347,1.76-4.64,3.653-7.333,4.88-3.72-2.36-5.987-6.44-8.974-9.613-5.24-6.854-11.84-12.627-16.586-19.84,2.186-.76,4.72-1.4,6.6.413,6.066,4.413,12.56,8.28,18.24,13.2Z" style="fill: #fff;"/>
      <path d="M261.527,624.826c5.08-11.466,16.893-19.986,29.626-19.88,107.987-.093,215.974-.013,323.96-.066,11.48-.387,22.8,6.253,27.974,16.52,5.933,10.666,3.746,23.293,4.173,34.96-73.813.226-147.627-.014-221.44.093-55.493-.16-111,.293-166.507-.227.72-10.44-1.706-21.413,2.214-31.4Z" style="fill: #a0b1e6;"/>
      <path d="M913.127,621.253c-.12-7.226,7.053-12.826,13.987-12.36,22.28-.013,44.546-.186,66.826-.026,32.88.093,65.76,0,98.64-.027,6.83-.547,13.32,5.653,13,12.507-.09,26.24-.03,52.493-.13,78.733.38,7.547-6.99,13.907-14.35,13.453-32.37-.066-64.76.2-97.133-.226-15.547.493-31.12-.094-46.654.346-8.56,8.88-16,18.84-24.72,27.574,0-9.374.12-18.76-.133-28.147-5.067-2.36-9.48-7.133-9.293-13.027-.16-26.266.013-52.546-.04-78.8ZM941.673,637.493c29.454.134,58.937.374,88.377-.08.29-1.84.32-3.68.1-5.52-29.41-.6-58.876-.173-88.29-.213-3.653-.453-4.013,6.213-.187,5.813ZM941.713,654.347c44.934.306,89.897-.027,134.827.133,1.88.053,3.75-.347,5.57-.853-.45-1.84-.21-5.094-2.9-5-45.78-.08-91.563-.307-137.323-.08-3.48-.44-3.68,6.066-.174,5.8ZM939.713,665.96c-.386,1.467-.533,2.973-.44,4.52,2.587.453,5.201.773,7.841.747,30.693.093,61.386-.2,92.066-.054,5.23-.12,10.53.48,15.69-.68.42-2.546-.33-5.8-3.64-5.173-32.02-.413-64.063.013-96.09-.213-5.133.226-10.44-.507-15.427.853ZM941.073,682.053c-3.066.614-2.679,6.04.707,5.627,18.694-.093,37.387.227,56.067-.093,3.143.066,3.213-5.84-.014-5.707-18.906-.213-37.88-.413-56.76.173Z" style="fill: #556add;"/>
      <path d="M941.673,637.493c-3.826.4-3.466-6.267.187-5.813,29.413.04,58.88-.387,88.29.213.22,1.84.19,3.68-.1,5.52-29.44.453-58.923.213-88.377.08Z" style="fill: #fdfdff;"/>
      <path d="M941.713,654.347c-3.506.266-3.306-6.24.174-5.8,45.76-.227,91.543,0,137.323.08,2.69-.094,2.45,3.16,2.9,5-1.82.506-3.69.906-5.57.853-44.93-.16-89.893.173-134.827-.133Z" style="fill: #fdfefe;"/>
      <path d="M259.313,656.227c55.507.52,111.014.066,166.507.226,73.813-.106,147.627.134,221.44-.093.133,27.227.28,54.467-.213,81.707-24.76,3.773-49.32,8.72-74.094,12.373-1.933-.32-3.853-.72-5.786-.867-35.427.347-70.88.28-106.32.107-1.334-7.453-4.84-14.427-9.747-20.16,2.453-.773,4.933-1.467,7.267-2.547.786-1.786-.414-3.546-.827-5.24-4.68-.12-9.373-.04-13.987.8-16.48-12.866-41.266-12.16-57.893.067-3.653-5.267-9.187-9.52-15.693-10.267-9.294-1.373-18.574,3.12-24.614,10.04-11.8-1.24-23.706-.226-35.546-.56-6.04.147-12.094-.333-18.12.187-3.534.24-2.92,6.853.786,6.04,16.067,1.067,32.28-.667,48.307,1.04-3.013,6.147-4,13.253-2.587,19.973-15.173,1.334-30.413.4-45.6.747-2.013-.227-3.466,1.467-3.8,3.307.52,3.066,4.12,2.746,6.454,2.84,12.88-.147,25.773-.64,38.653-.107,2.173.08,4.293-.387,6.413-.8,3.76,7.947,11.454,13.333,20.08,14.667-.666,3.12-1.253,6.346-2.946,9.133-7.827-1.453-15.774-.053-23.654-.453-14.16-.134-28.36-.574-42.48.12-3.88.533-2.56,6.36,1.16,5.786,12,.427,24.054.08,36.067.134,7.053.133,14.347-1.4,21.187.946-6.427,5.387-11.547,13.667-9.414,22.36-1.946-1.186-4.24-1.426-6.466-1.333-14.56.44-29.12.213-43.68.693-.28.96-.867,2.894-1.16,3.854,1.466.96,2.893,2.266,4.786,2.12,16.16.266,32.334-.2,48.507-.16,2.893,5.813,8.4,9.733,14.267,12.2,9.386,4.133,19.84,5.173,30,4.44-.187,1.013-.574,3.026-.76,4.04-14.574.546-28.787,4.666-41.707,11.346-5.973-1.613-12.16-.24-18.24-.453-22.213-.187-44.427.227-66.64-.267.2-62.666-.227-125.333.093-187.986ZM316.66,670.653c-.907,2.76.507,5.84,3.813,5.24,25.334-.413,50.694.187,76.027-.32,2.52.12,2.16-3.053,2.427-4.72-2.547-.373-5.094-.706-7.667-.693-18.24-.04-36.48.08-54.707.053-6.64.054-13.293-.453-19.893.44ZM505.673,670.6c.08,1.68.16,3.36.254,5.053,25.306.2,50.626.227,75.933.08,2.053-.32,4.693.414,6.36-1.12.053-1,.173-3,.24-4-3.093-.346-6.213-.573-9.32-.48-24.48.374-49-.506-73.467.467ZM289.593,698.8c1.854.16,3.72.267,5.574.36,71.56-.013,143.12-.08,214.666.027,20.48-.36,41,.506,61.454-.414.4-2.92-.2-6.413-4-5.746-87.147-.014-174.294.093-261.454.053-4.88.16-9.84-.667-14.653.387-2.547.36-1.507,3.64-1.587,5.333ZM580.953,693.76c-1.106,1.467-1.32,4.773,1.014,5.12,9.266.72,18.6.053,27.893.293,2.493-.16,5.28.387,7.533-.933.96-1.88.174-4.947-2.24-5.067-8.426-.733-16.92-.013-25.373-.293-2.947.12-6.107-.493-8.827.88ZM488.767,721.8c-.534,1.613-2,3.573-.587,5.173,1.147,1.827,3.773,1.107,5.587,1.414,23.12.066,46.24-.374,69.36.04,2.626-.054,5.346.293,7.92-.454,1.986-1.773.733-4.373-.267-6.266-27.333.2-54.68.053-82.013.093Z" style="fill: #cedcfa;"/>
      <path d="M939.713,665.96c4.987-1.36,10.294-.627,15.427-.854,32.027.227,64.07-.2,96.09.214,3.31-.627,4.06,2.626,3.64,5.173-5.16,1.16-10.46.56-15.69.68-30.68-.147-61.373.147-92.067.053-2.64.027-5.253-.293-7.84-.746-.093-1.547.054-3.054.44-4.52Z" style="fill: #fcfdfe;"/>
      <path d="M316.66,670.653c6.6-.893,13.253-.386,19.893-.44,18.227.027,36.467-.093,54.707-.053,2.573-.014,5.12.32,7.667.693-.267,1.667.093,4.84-2.427,4.72-25.333.507-50.693-.093-76.027.32-3.306.6-4.72-2.48-3.813-5.24Z" style="fill: #fffeff;"/>
      <path d="M505.673,670.6c24.467-.973,48.987-.093,73.467-.467,3.107-.093,6.227.134,9.32.48-.067,1-.187,3-.24,4-1.667,1.534-4.307.8-6.36,1.12-25.307.147-50.627.12-75.933-.08-.094-1.693-.174-3.373-.254-5.053Z" style="fill: #fff;"/>
      <path d="M792.113,684.574c3.227-7.547,12.4-11.92,20.267-9.507,7.373,1.787,12.267,9.213,20.16,9.48,7.733-.093,15.24-5.507,22.987-2.2,8.386,2.307,13.053,10.333,14.84,18.32,3.573,1.76,7.733,2.627,10.64,5.56,4.706,4.573,6.24,11.427,5.973,17.8-.307,12.24-4.08,24.133-8.747,35.347-3.52,7.373-6.786,15.573-13.893,20.253-4.067.947-7.92-2.027-9.653-5.507-1.254-3.826-.707-7.933-.454-11.866,3.4-1.32,7.067-2.88,8.88-6.28,3.68-5.654,1.28-14.547-5.36-16.667-3.826-1.333-7.52.72-10.746,2.547.16-5.64.493-12.187-3.907-16.454-4.507-4.386-11.36-3.48-17.027-2.64-6.44.974-13.16,1.52-19.466-.493-14.694-5.267-20.347-24.067-14.494-37.693Z"/>
      <path d="M941.073,682.053c18.88-.586,37.854-.386,56.76-.173,3.227-.133,3.157,5.773.014,5.707-18.68.32-37.374,0-56.067.093-3.387.413-3.773-5.013-.707-5.627Z" style="fill: #fff;"/>
      <path d="M289.593,698.8c.08-1.693-.96-4.973,1.587-5.333,4.813-1.054,9.773-.227,14.653-.387,87.16.04,174.307-.067,261.454-.053,3.8-.667,4.4,2.826,4,5.746-20.454.92-40.974.054-61.454.414-71.546-.107-143.106-.04-214.666-.027-1.854-.093-3.72-.2-5.574-.36Z" style="fill: #fff;"/>
      <path d="M580.953,693.76c2.72-1.373,5.88-.76,8.827-.88,8.453.28,16.947-.44,25.373.293,2.414.12,3.2,3.187,2.24,5.067-2.253,1.32-5.04.773-7.533.933-9.293-.24-18.627.427-27.893-.293-2.334-.347-2.12-3.653-1.014-5.12Z" style="fill: #fff;"/>
      <path d="M345.353,722.373c6.04-6.92,15.32-11.413,24.614-10.04,6.506.747,12.04,5,15.693,10.267,16.627-12.227,41.413-12.933,57.893-.067,2.654,2.16,5.2,4.48,7.547,6.987,4.907,5.733,8.413,12.707,9.747,20.16.346,3,.493,6.027.493,9.067-.213,6.64-1.787,13.133-2.68,19.693.32,2.013.813,4.013,1.533,5.933,5.2,7.334,10.507,15.694,8.667,25.16-.293.827-.893,2.48-1.187,3.32-2.666,7.2-9.546,11.867-16.64,14.094-7.653,2.373-15.8,3.24-23.786,2.453-.747-.253-2.254-.733-3.014-.987,0-2.893-.013-5.773-.04-8.64,1.64-.32,3.267-.68,4.894-1.08,5.426-1.813,9.933-5.773,12.6-10.826,6.946-12.4,8.48-27.174,7.253-41.134-.653-7.786-3.507-15.626-9.267-21.093-7.693,15.027-22.08,27.373-39.026,30.067-3.894.96-7.067-2.347-10.854-2.334-2.186-.013-4.133,1.134-6,2.107-3.186,3.613-4.386,9.2-1.413,13.333,2.32,4.014,7.2,4.454,11.107,6.04-.454,11.814-4.6,23.147-6.92,34.694-10.16.733-20.614-.307-30-4.44-5.867-2.467-11.374-6.387-14.267-12.2-.733-1.707-1.36-3.454-1.987-5.174-2.133-8.693,2.987-16.973,9.414-22.36,2.613-2.133,5.32-4.16,7.72-6.533,1.693-2.787,2.28-6.013,2.946-9.133-8.626-1.334-16.32-6.72-20.08-14.667-.8-1.973-1.52-3.96-2.12-5.987-1.413-6.72-.426-13.826,2.587-19.973,1.413-2.32,2.947-4.547,4.573-6.707Z"/>
      <path d="M291.687,722c6.026-.52,12.08-.04,18.12-.187,11.84.334,23.746-.68,35.546.56-1.626,2.16-3.16,4.387-4.573,6.707-16.027-1.707-32.24.027-48.307-1.04-3.706.813-4.32-5.8-.786-6.04Z" style="fill: #fefefe;"/>
      <path d="M443.553,722.533c4.614-.84,9.307-.92,13.987-.8.413,1.694,1.613,3.454.827,5.24-2.334,1.08-4.814,1.774-7.267,2.547-2.347-2.507-4.893-4.827-7.547-6.987Z" style="fill: #fff;"/>
      <path d="M488.767,721.8c27.333-.04,54.68.107,82.013-.093,1,1.893,2.253,4.493.267,6.266-2.574.747-5.294.4-7.92.454-23.12-.414-46.24.026-69.36-.041-1.814-.306-4.44.414-5.587-1.413-1.413-1.6.053-3.56.587-5.173Z" style="fill: #fdfefe;"/>
      <path d="M801.193,750.707c.787-9.574,1.747-19.494,5.414-28.44,6.306,2.013,13.026,1.466,19.466.493,5.667-.84,12.52-1.747,17.027,2.64,4.4,4.267,4.067,10.813,3.907,16.453,3.226-1.826,6.92-3.88,10.746-2.546,6.64,2.12,9.04,11.013,5.36,16.666-1.813,3.4-5.48,4.96-8.88,6.28-.253,3.934-.8,8.04.454,11.867,1.733,3.48,5.586,6.453,9.653,5.507-.8,8.546.093,17.16-.587,25.733-.413,3.173-1.453,6.467-4.346,8.24-7.854,6.027-18.494,8.453-28.12,6-4.307-1.16-8.8-4.053-9.64-8.747-.054-3.16-.08-6.306-.147-9.453,9.547-1.893,20.053-5.92,24.853-15.013-7.76,3.56-15.986,6.64-24.706,5.373-6.24-1.467-12.64-4.547-15.72-10.467-4.987-9.32-5.107-20.28-4.734-30.586Z" style="fill: #f37f7d;"/>
      <path d="M647.047,738.067c3.066-.587,6.133-1.2,9.2-1.8,7.6,28.56,14.746,57.253,21.546,86-2.293-.747-4.6-1.36-6.946-1.8-5.16-22.467-11.08-44.76-17.027-67.027-4.067-.387-7.093-2.84-8.467-6.653-4.773.213-9.453,1.12-14.106,2.12-40.254,6.946-80.547,13.626-120.787,20.693-.453,2.24-.92,4.48-1.36,6.733-1.307.76-2.613,1.534-3.907,2.307.574,2.613,1.16,5.253,1.8,7.867-1.16-.214-2.32-.427-3.48-.6-.24.56-.72,1.666-.946,2.226-2.16-8.146-4.2-16.333-6.08-24.546,10.6-1.774,21.24-3.32,31.746-5.534,14.987-2.066,29.92-4.453,44.72-7.613,24.774-3.653,49.334-8.6,74.094-12.373Z" style="fill: #556ad9;"/>
      <path d="M439.673,745.64c5.76,5.467,8.614,13.307,9.267,21.093,1.227,13.96-.307,28.734-7.253,41.134-2.667,5.053-7.174,9.013-12.6,10.827-.8-1.587-1.227-3.481-2.734-4.561-5.68-5.026-12.493-8.746-17.76-14.213-2.92-5.586-4.146-12.986-10.32-16.146-5.12-2.24-10.666-3.961-14.48-8.294,1.867-.973,3.814-2.12,6-2.106,3.787-.014,6.96,3.293,10.854,2.333,16.946-2.693,31.333-15.04,39.026-30.067Z" style="fill: #f07c7c;"/>
      <path d="M631.247,748.907c4.653-1,9.333-1.907,14.106-2.12,1.374,3.813,4.4,6.266,8.467,6.653,5.947,22.267,11.867,44.56,17.027,67.027-1.04-.174-3.12-.507-4.147-.667-6.027-20.013-10.28-40.533-15.773-60.693-4.627-.04-8.72-2.227-9.947-6.907-8.493.067-16.747,2.227-25.107,3.44-32.88,6.04-65.92,11.16-98.826,17.067-.44,4.226-.76,9.346-5.707,10.586.493,7.067,3.227,13.707,4.533,20.64,5.467,24.947,12.334,49.574,17.574,74.574,3.253,14.173,6.813,28.293,10.56,42.346-1.467.334-2.934.64-4.387.947-1.787-5.347-2.453-10.907-2.8-16.467l-.293-.973c-3.507-7.36-4.4-15.56-6.48-23.36-2.88-12.027-5.787-24.027-8.654-36.04-1.906-8.267-3.906-16.507-5.88-24.76-2.813-11.227-5.613-22.48-8.52-33.693-.64-2.614-1.226-5.254-1.8-7.867,1.294-.773,2.6-1.547,3.907-2.307.44-2.253.907-4.493,1.36-6.733,40.24-7.067,80.533-13.747,120.787-20.693Z" style="fill: #fff;"/>
      <path d="M288.793,753.107c.334-1.84,1.787-3.534,3.8-3.307,15.187-.347,30.427.587,45.6-.747.6,2.027,1.32,4.014,2.12,5.987-2.12.413-4.24.88-6.413.8-12.88-.533-25.773-.04-38.653.107-2.334-.094-5.934.226-6.454-2.84Z" style="fill: #fdfefe;"/>
      <path d="M460.847,749.68c35.44.173,70.893.24,106.32-.107,1.933.147,3.853.547,5.786.867-14.8,3.16-29.733,5.547-44.72,7.613-1.84-1.453-4.026-2.306-6.386-2.186-10.2-.147-20.414-.307-30.6.16-9.28.466-18.56-.574-27.814.253-.533.613-1.573,1.84-2.093,2.467,0-3.04-.147-6.067-.493-9.067Z" style="fill: #fefffe;"/>
      <path d="M615.873,755.64c8.36-1.213,16.614-3.373,25.107-3.44,1.227,4.68,5.32,6.867,9.947,6.907,5.493,20.16,9.746,40.68,15.773,60.693-.4-.067-1.2-.187-1.6-.253-4.92-19.734-10.227-39.347-15.253-59.054-4.774-.413-8.16-3.653-10.614-7.479-40.28,7.186-80.68,13.706-121,20.746-.453,4.214-1.626,8.56-5.613,10.747,1,7.547,3.587,14.76,5.253,22.173,9.187,37.947,18.027,75.974,27.147,113.934l-1.013.24c-3.747-14.054-7.307-28.174-10.56-42.347-5.24-25-12.107-49.627-17.574-74.573-1.306-6.934-4.04-13.574-4.533-20.641,4.947-1.24,5.267-6.359,5.707-10.586,32.906-5.907,65.946-11.027,98.826-17.067Z" style="fill: #556ad9;"/>
      <path d="M518.233,773.76c40.32-7.04,80.72-13.56,121-20.747,2.454,3.827,5.84,7.067,10.614,7.48,5.026,19.707,10.333,39.32,15.253,59.053-.707.44-2.133,1.32-2.853,1.76.066,4.12,3.08,7.28,5.28,10.494,13.413,52.026,25.946,104.28,39.266,156.333-.52.72-1.56,2.16-2.08,2.88-9.32.2-18.906-.226-27.866,2.72-1.96.627-4.454,2.6-3.347,4.947,3.627,2.51,8.147,3.28,11.893,5.61-35.933,4.62-71.52,11.54-107.306,17.08-1.294-1.89-2.414-3.94-4.12-5.48-2.107-1.14-4.64-1.25-6.627-2.54-3.933-19.31-9.213-38.323-13.72-57.497,6.76-3.92,15.133-7.693,17.56-15.813,1.88-5.64,4.96-11.12,4.867-17.2-.32-4.867-5.667-7.96-10.187-7.227-7.107.894-13.8,3.734-20.84,5-9.12-37.96-17.96-75.986-27.147-113.933-1.666-7.413-4.253-14.627-5.253-22.173,3.987-2.187,5.16-6.534,5.613-10.747ZM580.42,794.933c-12.813,2.054-25.627,4.174-38.347,6.734-.106,2.36.067,6.666,3.68,5.399,28.934-4.973,57.84-10.079,86.734-15.279,3.693-.24,1.68-4.187,1.026-6.2-17.76,2.733-35.413,6.16-53.093,9.346ZM559.087,817.386c-1.96.427-6.014.707-4.547,3.854-.173,3.267,3.96,1.813,5.827,1.76,23.28-3.947,46.466-8.36,69.733-12.333-.133-2.014.32-5.747-2.733-5.547-22.774,4.053-45.56,8-68.28,12.266ZM593.713,838.907c-15.04,2.826-30.186,5.133-45.213,8-3.933.106-2.347,6.839,1.347,5.146,33.333-5.88,66.666-11.84,99.96-17.933-.134-1.587-.254-3.16-.347-4.734-18.72,2.267-37.107,6.734-55.747,9.521ZM640.567,846.267c-29.707,4.866-59.254,10.826-88.96,15.693-2.694.173-2.494,3.107-1.667,4.96,2.987.827,6.027-.08,8.987-.627,9.773-2.213,19.693-3.746,29.546-5.586,20.24-3.134,40.28-7.414,60.48-10.707,3.6-.6,9.8-.307,8.68-5.733-5.773-1.254-11.4,1.266-17.066,2ZM637.74,862.28c-28.12,4.787-56.187,9.813-84.2,15.093-.013,1.134-.027,3.387-.04,4.52,2.36-.053,4.733-.186,7.067-.613,23.813-3.987,47.48-8.92,71.333-12.72,1.547-.347,3.147-.653,4.573-1.4,8.28-.587,16.52-2.173,24.574-4.24-.12-1.067-.334-3.187-.44-4.24-7.76.227-15.267,2.293-22.867,3.6ZM644.713,876.413c-11.133,2.187-22.36,3.787-33.48,6.08-18.08,3.52-36.346,6.04-54.333,9.96-.053.907-.133,2.707-.173,3.614,2.08.506,4.24.72,6.373.253,12.507-2.04,24.947-4.387,37.36-6.92,21.533-3.853,43.267-6.827,64.573-11.813-.173-1.014-.52-3.027-.68-4.041-6.666-.053-13.12,1.734-19.64,2.867ZM614.753,917.147c-1.92-.254-3.826-.627-5.76-.56-3.56,1.08-2.32,6.706-6.053,7.533-1.573.853-4.2.8-4.587,2.987-.08,1.96.147,3.959.014,5.946-1.08,1.933-3.24,3.334-3.547,5.64.627,1.88,1.853,3.507,2.693,5.32-.493,2.547-2.386,5.187-.866,7.774,1.2,1.48,3,2.306,4.413,3.586.48,1.827.667,3.734,1.187,5.574,2.346,3.16,9.506,2.973,7.946,8.24-1.64,9.413-3.453,18.826-4.813,28.293,3.28-1.413,6.44-3.12,9.853-4.187,4.08.84,5.654,6.4,9.174,7.497,2.56-9.643,4.306-19.617,5.08-29.59-1.294-.507-2.587-.987-3.88-1.467,1.066.147,3.186.44,4.253.587l1.147-.573c-.04.586-.12,1.746-.147,2.32,5.253,8.693,11.147,17.053,17.24,25.2,1.467-3.68,1.573-8.014,3.973-11.214,4.2-.44,8.454-.16,12.667-.6-6.413-8.32-12.107-17.226-19.053-25.106,1.813-1.44,3.813-2.76,5.08-4.747.186-1.987-.907-3.947-.374-5.867,1.24-1.92,3.254-3.4,3.734-5.733-.04-2.147-1.854-3.613-2.694-5.44-.146-2.213.534-4.373.654-6.56-.4-2.733-3.614-3.507-5.48-5.013-.694-2.28-.84-4.827-2.414-6.707-2.026-1.427-4.613-.8-6.893-.933-1.147-1.654-1.813-3.774-3.573-4.881-2.667-1.48-5.307.601-7.747,1.547-1.76-1.093-3.307-2.946-5.507-3-2.786-.333-4.106,2.454-5.72,4.134Z" style="fill: #fff;"/>
      <path d="M463.433,756.28c9.254-.827,18.534.213,27.814-.253,10.186-.467,20.4-.307,30.6-.16,2.36-.12,4.546.733,6.386,2.186-10.506,2.214-21.146,3.76-31.746,5.534-2.4.4-4.84.733-7.174,1.426-.52,4.467,1.84,8.827,2.654,13.2-11.107.32-22.214-.36-33.307.227.893-6.56,2.467-13.053,2.68-19.693.52-.627,1.56-1.854,2.093-2.467Z" style="fill: #cfddfc;"/>
      <path d="M489.313,765.014c2.334-.694,4.774-1.027,7.174-1.427,1.88,8.213,3.92,16.4,6.08,24.547,1.88,10.213,4.813,20.186,7.213,30.293,2.6,10.373,4.853,20.827,7.427,31.213,2.64,11.56,5.213,23.134,8.293,34.6,1.813,6.76,3.12,13.667,5.36,20.334-2.04,2.44-4.04,4.933-6.04,7.426-2.947-8.72-4.493-17.826-6.947-26.693-3.253-13.787-6.64-27.547-9.906-41.333-2.334-9.894-4.76-19.774-7.027-29.68-.96-3.974-1.987-7.947-2.893-11.92-1.44-6.187-3.054-12.334-4.6-18.48-.494-1.907-.987-3.8-1.48-5.68-.814-4.374-3.174-8.734-2.654-13.2Z" style="fill: #2b347c;"/>
      <path d="M382.38,788.813c-2.973-4.133-1.773-9.72,1.413-13.333,3.814,4.333,9.36,6.053,14.48,8.293,6.174,3.16,7.4,10.56,10.32,16.147,5.267,5.467,12.08,9.187,17.76,14.213,1.507,1.08,1.934,2.974,2.734,4.56-1.627.4-3.254.76-4.894,1.08-7.706.574-14.773-2.773-21.386-6.266,3.586,8.746,13.12,13,21.626,15.56-.12,2.213-.2,4.44-.333,6.68-.187,2.4-.28,5.186-2.427,6.773-6.4,5.187-15.573,4.653-22.866,1.84-5.254-2.107-10.907-5.173-13-10.773.186-1.014.573-3.027.76-4.04,2.32-11.547,6.466-22.88,6.92-34.694-3.907-1.586-8.787-2.026-11.107-6.04Z" style="fill: #f08380;"/>
      <path d="M292.473,784.293c-3.72.574-5.04-5.253-1.16-5.786,14.12-.694,28.32-.254,42.48-.12,7.88.4,15.827-1,23.654.453-2.4,2.373-5.107,4.4-7.72,6.533-6.84-2.346-14.134-.813-21.187-.946-12.013-.054-24.067.293-36.067-.134Z" style="fill: #feffff;"/>
      <path d="M458.66,778.44c11.093-.587,22.2.093,33.307-.227.493,1.88.986,3.773,1.48,5.68-11.08.573-22.174.707-33.254.48-.72-1.92-1.213-3.92-1.533-5.933Z" style="fill: #fffeff;"/>
      <path d="M460.193,784.374c11.08.226,22.174.093,33.254-.48,1.546,6.146,3.16,12.293,4.6,18.48-.614,1.253-1.227,2.533-1.84,3.813-8.734.947-17.534.973-26.307.84-.267.627-.787,1.88-1.04,2.507,1.84-9.467-3.467-17.827-8.667-25.16Z" style="fill: #ccdafc;"/>
      <path d="M503.513,785.907c1.16.173,2.32.386,3.48.6,2.907,11.213,5.707,22.466,8.52,33.693-.626.147-1.893.453-2.52.6-.226-.773-.666-2.293-.88-3.053-.586.173-1.76.506-2.333.68-2.4-10.107-5.333-20.08-7.213-30.294.226-.56.706-1.666.946-2.226Z" style="fill: #637ae2;"/>
      <path d="M580.42,794.934c17.68-3.187,35.333-6.614,53.093-9.347.654,2.013,2.667,5.96-1.026,6.2-28.894,5.2-57.8,10.307-86.734,15.28-3.613,1.267-3.786-3.04-3.68-5.4,12.72-2.56,25.534-4.68,38.347-6.733Z" style="fill: #95a8e6;"/>
      <path d="M821.646,791.76c8.72,1.267,16.947-1.813,24.707-5.373-4.8,9.093-15.306,13.12-24.853,15.013-.053-3.213.04-6.427.146-9.64Z" style="fill: #b74b49;"/>
      <path d="M496.207,806.187c.613-1.28,1.226-2.56,1.84-3.813.906,3.973,1.933,7.946,2.893,11.919-10.96-1.906-22.187-1.039-33.267-1.439.294-.84.894-2.494,1.187-3.32.253-.627.773-1.88,1.04-2.507,8.773.133,17.573.107,26.307-.84Z" style="fill: #fcfefe;"/>
      <path d="M559.087,817.387c22.72-4.267,45.506-8.214,68.28-12.267,3.053-.2,2.6,3.533,2.733,5.547-23.267,3.973-46.453,8.386-69.733,12.333-1.867.053-6,1.507-5.827-1.76-1.467-3.147,2.587-3.427,4.547-3.853Z" style="fill: #92a6e8;"/>
      <path d="M797.247,810.106c7.333-2.933,15.226-3.84,22.866-5.653.48,2.133.947,4.28,1.534,6.4.84,4.693,5.333,7.587,9.64,8.747,9.626,2.453,20.266.026,28.12-6,2.893-1.774,3.933-5.067,4.346-8.24,16.574,1.746,33.6,5.08,47.774,14.346,18.72,11.587,33.133,30.667,37.386,52.467,3.987,19.587.027,39.573-3.64,58.893-1.333,10.88-6.493,20.587-11.093,30.387-10.84,22.04-28,41.377-49.6,53.307-19.413,10.27-41.08,15.37-62.667,18.49-25.946,3.67-52.133,5.3-78.306,6.18-4.187-.39-8.374-.32-12.56-.3-2.054.4-3.334-1.33-4.04-2.93-.107-1.67-.254-3.31-.44-4.93-2.947-11.67-5.694-23.39-7.974-35.204-.586-1.493-.386-3.72-2.08-4.426-3.92-.534-7.866-.534-11.8-.627.52-.72,1.56-2.16,2.08-2.88-13.32-52.053-25.853-104.307-39.266-156.333,1,.6,2.053,1.2,3.08,1.813,0,.88.013,2.653.026,3.547,6.414,29.08,14.694,57.733,21.294,86.773,4.24,16.013,8.333,32.067,12.04,48.2,1.32,6.32,3.986,12.387,4.173,18.92,1.227.013,3.667.04,4.88.053-3.4-19.04-9.293-37.546-13.627-56.386-4.853-21.227-10.706-42.214-15.733-63.387,1.093-.293,3.267-.853,4.36-1.147.267-.92.813-2.773,1.08-3.693,8.453,29.773,14.853,60.08,23,89.947,1.133,3.853,1.613,8.12,4.213,11.373l-1.733-.64c1.2,5.64,2.587,11.253,3.893,16.88.4-.147,1.2-.413,1.6-.547,8.92-2.106,17.334-5.773,25.987-8.68,20.24-7.226,40.587-14.2,60.507-22.28,7.64-3.186,15.92-6.72,20.12-14.373,12.066-20.173,22.36-41.36,34.413-61.547,3.147-5.773,7.187-11.04,9.907-17.026-1.187.6-2.187,1.413-2.987,2.44-13.387,21.653-25.227,44.2-37.44,66.533-3.613,5.973-6.493,13.027-12.787,16.707-5.813,3.493-12.133,6.053-18.426,8.533-21.014,7.973-42.12,15.707-63.494,22.64.027-.627.067-1.867.094-2.493l.026-1.16c3.68-21.107,5.52-42.52,9.694-63.547,3.6-21.053,10.026-41.467,17.12-61.573-1.214,1.306-2.36,2.653-3.454,4.053-2.146,2.467-4.333,4.933-5.973,7.773-6.68,11.2-12.96,22.627-19.533,33.867-4.654,7.467-9.374,15.64-17.374,19.947-3.88,2.32-9.28.573-11.253-3.414-2.467-4.973-3.027-10.6-4.333-15.92-3-12.773-4.427-25.88-7.787-38.573.253-3.16.573-6.32.8-9.48,4.853,3.733,9.413,7.827,14.16,11.68,4.613,3.373,9.173,7.827,15.107,8.427,6.666-1.294,11.253-6.88,16.053-11.227,9.773-9.813,19.72-19.453,30.027-28.707,8.066-7.28,18-12.013,28-16Z" style="fill: #5368dd;"/>
      <path d="M290.167,807.093c14.56-.48,29.12-.253,43.68-.693,2.226-.093,4.52.147,6.466,1.333.627,1.72,1.254,3.467,1.987,5.174-16.173-.04-32.347.426-48.507.16-1.893.146-3.32-1.16-4.786-2.12.293-.96.88-2.894,1.16-3.854Z" style="fill: #fdfefe;"/>
      <path d="M402.807,813.507c6.613,3.493,13.68,6.84,21.386,6.267.027,2.866.04,5.746.04,8.639.76.254,2.267.734,3.014.987-.694-.093-2.107-.253-2.814-.333-8.506-2.56-18.04-6.813-21.626-15.56Z" style="fill: #b55155;"/>
      <path d="M451.033,826.947c7.094-2.227,13.974-6.893,16.64-14.093,11.08.4,22.307-.467,33.267,1.439,2.267,9.907,4.693,19.787,7.027,29.68-19.014,1.36-38.12-.8-57.134.84-8.28-4.546-17.373-7.733-26.733-9.066.133-2.24.213-4.467.333-6.68.707.08,2.12.24,2.814.333,7.986.787,16.133-.08,23.786-2.453Z" style="fill: #cedcfb;"/>
      <path d="M509.78,818.427c.573-.174,1.747-.507,2.333-.68.214.76.654,2.28.88,3.053.627-.147,1.894-.453,2.52-.6,1.974,8.253,3.974,16.493,5.88,24.76-1.4,1.547-2.8,3.107-4.186,4.68-2.574-10.387-4.827-20.84-7.427-31.213Z" style="fill: #536bdc;"/>
      <path d="M662.247,821.307c.72-.44,2.146-1.32,2.853-1.76.4.067,1.2.187,1.6.253,1.027.16,3.107.494,4.147.667,2.346.44,4.653,1.053,6.946,1.8,3.467,1.867,6.734,4.16,9.547,6.96-1.893,3.707-4,7.293-6.347,10.733-.026,1.507-.053,3.014-.066,4.534-1.787-2.347-3.68-4.587-5.587-6.8-1.333-1.64-2.96-3-4.733-4.08-1.027-.614-2.08-1.214-3.08-1.814-2.2-3.213-5.214-6.373-5.28-10.493Z" style="fill: #f37474;"/>
      <path d="M593.713,838.907c18.64-2.787,37.027-7.254,55.747-9.52.093,1.573.213,3.146.347,4.733-33.294,6.093-66.627,12.053-99.96,17.933-3.694,1.694-5.28-5.04-1.347-5.146,15.027-2.867,30.173-5.174,45.213-8Z" style="fill: #91a5e6;"/>
      <path d="M687.34,829.227c4,4.653,6.253,10.586,6.56,16.706-.227,3.16-.547,6.32-.8,9.48-1.32,3.107-2.987,6.04-4.667,8.96-2-6.786-3.36-13.973-7.506-19.88.013-1.52.04-3.026.066-4.533,2.347-3.44,4.454-7.027,6.347-10.733Z" style="fill: #f28881;"/>
      <path d="M344.1,844.934c12.92-6.68,27.133-10.8,41.707-11.347,2.093,5.6,7.746,8.667,13,10.773,7.293,2.814,16.466,3.347,22.866-1.84,2.147-1.586,2.24-4.373,2.427-6.773,9.36,1.333,18.453,4.52,26.733,9.067,1.187.693,2.374,1.453,3.547,2.226.28,1.48.6,2.987,1.387,4.334,5.773,10.066,10.04,21.066,12.32,32.453,3.64,15.48,7.053,31.067,8.893,46.867-14.4,3.96-28.613,8.64-43.133,12.186-3.294.534-7.4,1.894-10.147-.72-3.667-3.586-6.387-7.986-9.28-12.173-9.44-14.6-18.467-29.453-27.653-44.2-.894-1.56-2.147-2.84-3.854-3.467,10.48,17.507,21.374,34.827,32.56,51.907,3.6,4.72,7.16,12.213,14.374,10.707,15.586-2.614,30.493-8.24,45.706-12.4,10.36-3.307,21.054-5.52,31.254-9.294,1.053.187,3.133.574,4.173.76,1,1.827,1.987,3.627,2.933,5.52,4.587,12.04,11.454,23.107,16.054,35.147v1.587c-.854.96-1.694,1.946-2.52,2.933-16.96,12.68-33.6,25.853-51.667,36.973-14.213,8.32-28.947,16.95-45.48,19.47-2.027.17-4.04.46-6.053.73-19.774,2.49-39.027-6.37-54.027-18.61-17.947-13.95-31.667-32.19-45.24-50.176-.96-1.414-1.92-2.8-2.827-4.227-12.466-20.147-18.866-45.293-11.746-68.467.306-1.053.64-2.08.986-3.093,5.52-16,17.907-28.96,32.707-36.853Z" style="fill: #5367dc;"/>
      <path d="M670.607,833.613c1.773,1.08,3.4,2.44,4.733,4.08,2.347,11.307,5.253,22.494,8.32,33.64,5.027,21.174,10.88,42.16,15.733,63.387,4.334,18.84,10.227,37.347,13.627,56.387-1.213-.014-3.653-.04-4.88-.054-.187-6.533-2.853-12.6-4.173-18.92-3.707-16.133-7.8-32.186-12.04-48.2-6.6-29.04-14.88-57.693-21.294-86.773-.013-.893-.026-2.667-.026-3.547Z" style="fill: #fff;"/>
      <path d="M675.34,837.693c1.907,2.214,3.8,4.454,5.587,6.8,4.146,5.907,5.506,13.094,7.506,19.88.174.534.507,1.587.667,2.12-.267.92-.813,2.774-1.08,3.694-1.093.293-3.267.853-4.36,1.146-3.067-11.146-5.973-22.333-8.32-33.64Z" style="fill: #6073e1;"/>
      <path d="M450.833,844.813c19.014-1.64,38.12.52,57.134-.84,3.266,13.787,6.653,27.547,9.906,41.333-10.026.68-20.253-1.066-30.133,1.041-4.08-7.014-8.227-14.027-12.987-20.6-5.546-7.44-12.666-13.6-20.373-18.707-1.173-.773-2.36-1.534-3.547-2.227Z" style="fill: #fefefe;"/>
      <path d="M640.567,846.267c5.666-.733,11.293-3.253,17.066-2,1.12,5.427-5.08,5.133-8.68,5.733-20.2,3.293-40.24,7.574-60.48,10.707-9.853,1.84-19.773,3.373-29.546,5.586-2.96.547-6,1.454-8.987.627-.827-1.853-1.027-4.787,1.667-4.96,29.706-4.867,59.253-10.826,88.96-15.693Z" style="fill: #96aae6;"/>
      <path d="M521.393,844.96c2.867,12.013,5.774,24.013,8.654,36.04-1.52,1.067-3.04,2.147-4.547,3.24-3.08-11.467-5.653-23.04-8.293-34.6,1.386-1.573,2.786-3.133,4.186-4.68Z" style="fill: #5d75dc;"/>
      <path d="M455.767,851.373c-.787-1.346-1.107-2.853-1.387-4.333,7.707,5.107,14.827,11.267,20.373,18.707,4.76,6.573,8.907,13.586,12.987,20.6,5.56,10.12,11,20.386,17.907,29.693,1.253,1.4,2.266,3.36,4.186,3.96,5.254-2.147,9.707-5.893,14.987-8-3.653,5.827-7.04,11.813-10.907,17.52-.946-1.893-1.933-3.693-2.933-5.52-1.04-.187-3.12-.573-4.173-.76,1.426-.56,2.866-1.12,4.293-1.667-11.013,1.707-21.56,5.36-32.28,8.307-2.947-16.253-5.333-32.667-9.6-48.653-.28.653-.853,1.96-1.133,2.6-2.28-11.387-6.547-22.387-12.32-32.454Z" style="fill: #2f398d;"/>
      <path d="M759.353,851.733c1.094-1.4,2.24-2.746,3.454-4.053-7.094,20.107-13.52,40.52-17.12,61.574-4.174,21.026-6.014,42.439-9.694,63.546-.32-3.48-.466-6.973.067-10.413,3.613-28.587,7.907-57.187,15.293-85.067,2.134-8.693,5.867-16.893,8-25.587Z" style="fill: #000100;"/>
      <path d="M753.38,859.507c1.64-2.84,3.827-5.307,5.973-7.774-2.133,8.694-5.866,16.894-8,25.587-7.386,27.88-11.68,56.48-15.293,85.067-.533,3.44-.387,6.933-.067,10.413l-.026,1.16c-6.88-.96-13.387-3.213-19.654-6.147-2.6-3.253-3.08-7.52-4.213-11.373-8.147-29.867-14.547-60.173-23-89.947-.16-.533-.493-1.586-.667-2.12,1.68-2.92,3.347-5.853,4.667-8.96,3.36,12.694,4.787,25.8,7.787,38.574,1.306,5.32,1.866,10.946,4.333,15.92,1.973,3.986,7.373,5.733,11.253,3.413,8-4.307,12.72-12.48,17.374-19.947,6.573-11.24,12.853-22.666,19.533-33.866Z" style="fill: #2e388b;"/>
      <path d="M637.74,862.28c7.6-1.306,15.107-3.373,22.867-3.6.106,1.054.32,3.173.44,4.24-8.054,2.067-16.294,3.653-24.574,4.24,1.174-.8,2.347-1.6,3.52-2.386-.76-.854-1.506-1.68-2.253-2.494Z" style="fill: #8ca0e5;"/>
      <path d="M868.02,862.04c.8-1.027,1.8-1.84,2.987-2.44-2.72,5.987-6.76,11.253-9.907,17.027-12.053,20.186-22.347,41.373-34.413,61.546-4.2,7.654-12.48,11.187-20.12,14.374-19.92,8.08-40.267,15.053-60.507,22.28-8.653,2.906-17.067,6.573-25.987,8.68,4.84-3.28,10.64-4.44,15.8-7.054,21.374-6.933,42.48-14.666,63.494-22.64,6.293-2.48,12.613-5.04,18.426-8.533,6.294-3.68,9.174-10.733,12.787-16.707,12.213-22.333,24.053-44.88,37.44-66.533Z" style="fill: #000100;"/>
      <path d="M553.54,877.374c28.013-5.28,56.08-10.307,84.2-15.094.747.814,1.493,1.64,2.253,2.494-1.173.786-2.346,1.586-3.52,2.386-1.426.747-3.026,1.054-4.573,1.4-23.853,3.8-47.52,8.734-71.333,12.72-2.334.427-4.707.56-7.067.614.013-1.134.027-3.387.04-4.52Z" style="fill: #98abe5;"/>
      <path d="M644.713,876.413c6.52-1.133,12.974-2.92,19.64-2.866.16,1.013.507,3.026.68,4.04-21.306,4.986-43.04,7.96-64.573,11.813-12.413,2.533-24.853,4.88-37.36,6.92-2.133.467-4.293.253-6.373-.253.04-.907.12-2.707.173-3.614,17.987-3.92,36.253-6.44,54.333-9.96,11.12-2.293,22.347-3.893,33.48-6.08Z" style="fill: #90a6e6;"/>
      <path d="M285.7,884c8.187-3.32,17.12-2.014,25.693-2.214-.346,1.014-.68,2.04-.986,3.094-10.014-.52-20.48-.147-29.56,4.613-13.4,6.427-22.68,20.867-22.747,35.773-.16,111.644.147,223.304-.267,334.934,23.174.41,46.387.32,69.574-.09.146-.75.453-2.27.613-3.03.147,1.92.32,3.83.493,5.77-24.44.43-48.88.22-73.32-.01.147-112.03.054-224.08.12-336.12-.906-19.027,12.627-36.774,30.387-42.72Z" style="fill: #b7d0f6;"/>
      <path d="M468.087,883.827c.28-.64.853-1.947,1.133-2.6,4.267,15.986,6.653,32.4,9.6,48.653,10.72-2.947,21.267-6.6,32.28-8.307-1.427.547-2.867,1.107-4.293,1.667-10.2,3.773-20.894,5.987-31.254,9.293-15.213,4.16-30.12,9.787-45.706,12.4-7.214,1.507-10.774-5.986-14.374-10.706-11.186-17.08-22.08-34.4-32.56-51.907,1.707.627,2.96,1.907,3.854,3.467,9.186,14.746,18.213,29.6,27.653,44.2,2.893,4.186,5.613,8.586,9.28,12.173,2.747,2.613,6.853,1.253,10.147.72,14.52-3.547,28.733-8.227,43.133-12.187-1.84-15.8-5.253-31.386-8.893-46.866Z" style="fill: #000100;"/>
      <path d="M525.5,884.24c1.507-1.093,3.027-2.173,4.547-3.24,2.08,7.8,2.973,16,6.48,23.36-1.787-1.373-3.68-1.307-5.667.213-2.24-6.666-3.547-13.573-5.36-20.333Z" style="fill: #4e68dd;"/>
      <path d="M280.847,889.494c9.08-4.76,19.546-5.134,29.56-4.614-7.12,23.174-.72,48.32,11.746,68.467-12.093,1.053-24.2-.72-36.293.173-.173,1.787-.347,3.587-.493,5.387,6.266,1.613,12.746.747,19.12.68,6.92-.147,13.853.067,20.773.173l-.133.907c-.867,4.227-1.227,8.52-1.507,12.827-.093.653-.267,1.946-.36,2.586-10.267-.586-20.547.107-30.813-.44-2.307.2-5.52-.706-6.894,1.787-.973,2.173.627,4.733,3.027,4.707,11.213.226,22.453-.187,33.68.16-.827,5.36-1.827,10.693-2.587,16.066-11.226-.373-22.466-.186-33.666.467.066,1.543.133,3.093.2,4.663,10.746,1.5,21.626.44,32.413,1.44-.947,4.68-1.907,9.38-2.64,14.11-1.56.6-3.093,1.47-4.813,1.47-8.56.46-17.174-.59-25.694.56.174,1.84.267,3.7.294,5.58,9.493,1.08,19.106-.81,28.546.82-1.253,5.48-2.52,10.96-3.813,16.44-8.267-.59-16.573-.68-24.84-.16.107,1.82.12,3.68.067,5.53,7.8,1.07,15.68.4,23.506-.08-2.92,11.48-5.72,23.04-9.786,34.2,5.746.97,11.586.79,17.386,1.07-.426,4.29-.6,8.61-.373,12.93-10.2.79-20.427-.12-30.627.27-.053,2.08-.106,4.16-.16,6.26,10.307,1.48,20.76-1.18,31,.87.014,2.72.014,5.45.08,8.2,0,2.33-.026,4.71.027,7.07-9.427.25-18.867.09-28.293.22-3.6-.62-4.387,5.52-.947,5.84,9.853.47,19.76.26,29.64.47.347,5.4.493,10.83,1.04,16.23-10.24-.36-20.493-.02-30.707.41-2.893.15-2.96,5.19.027,5.39,10.36,1.01,20.8.28,31.2.42.453,5.54.853,11.1,1.307,16.64-11.387.43-22.787-1.01-34.16.04-.067,2-1.347,5.58,1.84,5.63,10.92.79,21.906-.28,32.853.2.467,5.44.8,10.89,1.373,16.35-11.173.68-22.373.33-33.546.33-3.267-.51-2.8,3.31-3.12,5.4,12.346,1.59,24.84-.12,37.24.92.386,5.37.84,10.75,1.346,16.12-9.573-.52-19.133.4-28.706.19-3.32-.1-6.64.25-9.92.77.546,1.76-.347,5.03,2.466,4.95,10.467.65,20.987.05,31.467.18,1.947-.12,3.72.72,5.453,1.47.28,3.17.534,6.37.76,9.57-.2,1.83-.4,3.67-.626,5.52-12.947.31-25.907.06-38.854.35-.226,1.83-.453,3.68-.666,5.56,13.733.87,27.52.01,41.28.39.333,5.82,1.08,11.61,1.493,17.45-.16.76-.467,2.28-.613,3.03-23.187.41-46.4.5-69.574.09.414-111.63.107-223.29.267-334.933.067-14.907,9.347-29.347,22.747-35.773Z" style="fill: #fff;"/>
      <path d="M487.74,886.346c9.88-2.106,20.107-.36,30.133-1.04,2.454,8.867,4,17.974,6.947,26.694-5.28,2.106-9.733,5.853-14.987,8-1.92-.6-2.933-2.56-4.186-3.96-6.907-9.307-12.347-19.574-17.907-29.694Z" style="fill: #feffff;"/>
      <path d="M530.86,904.573c1.987-1.52,3.88-1.587,5.667-.213l.293.973c.44,5.893-3.307,11.053-2.747,16.973,1.84-.16,3.694-.28,5.547-.506,1.453-.307,2.92-.614,4.387-.947l1.013-.24c7.04-1.267,13.733-4.107,20.84-5,4.52-.733,9.867,2.36,10.187,7.227.093,6.08-2.987,11.56-4.867,17.2-2.427,8.12-10.8,11.893-17.56,15.813-.267.147-.787.427-1.04.573-1.347.654-2.68,1.307-4.027,1.974-1.48.706-2.96,1.44-4.453,2.133-4.493,2.013-9.293,3.267-14.133,4.133-4.6-12.04-11.467-23.106-16.054-35.146,3.867-5.707,7.254-11.694,10.907-17.52,2-2.494,4-4.987,6.04-7.427Z" style="fill: #f07f7f;"/>
      <path d="M536.82,905.333c.347,5.56,1.013,11.12,2.8,16.467-1.853.227-3.707.347-5.547.507-.56-5.92,3.187-11.08,2.747-16.974Z" style="fill: #446dd8;"/>
      <path d="M614.753,917.147c1.614-1.68,2.934-4.467,5.72-4.134,2.2.054,3.747,1.907,5.507,3,2.44-.946,5.08-3.026,7.747-1.546,1.76,1.106,2.426,3.226,3.573,4.88,2.28.133,4.867-.494,6.893.933,1.574,1.88,1.72,4.427,2.414,6.707,1.866,1.506,5.08,2.28,5.48,5.013-.12,2.187-.8,4.347-.654,6.56.84,1.827,2.654,3.293,2.694,5.44-.48,2.333-2.494,3.813-3.734,5.733-.533,1.92.56,3.88.374,5.867-1.267,1.987-3.267,3.307-5.08,4.747-2.614,1.48-3.707,4.24-4.774,6.88-3.386.48-6.933.653-9.906,2.52l-1.147.573c-1.067-.147-3.187-.44-4.253-.587-2.227-.24-4.36.827-6.547,1.067-2.84-1.187-5.32-3.12-8.24-4.107-.16.627-.467,1.867-.627,2.494,1.56-5.267-5.6-5.08-7.946-8.24-.52-1.84-.707-3.747-1.187-5.574-1.413-1.28-3.213-2.106-4.413-3.586-1.52-2.587.373-5.227.866-7.774-.84-1.813-2.066-3.44-2.693-5.32.307-2.306,2.467-3.706,3.547-5.64.133-1.986-.094-3.986-.014-5.946.387-2.187,3.014-2.134,4.587-2.987,3.733-.827,2.493-6.453,6.053-7.533,1.934-.067,3.84.306,5.76.56ZM621.247,922.307c-9.254,1.146-17.414,9.36-16.614,19.026-1.053,13.88,15.4,23.88,27.72,18.6,6.587-3.093,11.987-9.76,11.814-17.293,1-12.027-11.36-22.053-22.92-20.333Z" style="fill: #fab82b;"/>
      <path d="M621.247,922.307c11.56-1.72,23.92,8.306,22.92,20.333.173,7.533-5.227,14.2-11.814,17.293-12.32,5.28-28.773-4.72-27.72-18.6-.8-9.666,7.36-17.88,16.614-19.026ZM617.967,924.107c-9.28,2.64-14.6,13.266-11.867,22.386,2.6,9.654,13.933,16.067,23.573,13.28,8.84-2.386,15.2-11.866,13.16-20.986-1.68-11.134-14.32-18.427-24.866-14.68Z" style="fill: #2e398e;"/>
      <path d="M617.967,924.107c10.546-3.747,23.186,3.547,24.866,14.68,2.04,9.12-4.32,18.6-13.16,20.987-9.64,2.786-20.973-3.627-23.573-13.281-2.733-9.12,2.587-19.746,11.867-22.386Z" style="fill: #fbb931;"/>
      <path d="M934.18,961.453c4.6-9.8,9.76-19.507,11.093-30.387-.28,3.56-.386,7.147.014,10.707-5.774,8.827-8.094,19.36-13.88,28.2-9.987,16.733-23.054,32.067-39.787,42.347-18.147,11.8-39.48,17.12-60.507,21.05-21.586,3.79-43.493,5.43-65.346,6.36-11.854,1.18-23.774,1.2-35.667,1.32v-.73c4.52.01,9.027-.35,13.507-.89,26.173-.88,52.36-2.51,78.306-6.18,21.587-3.12,43.254-8.22,62.667-18.49,21.6-11.93,38.76-31.267,49.6-53.307Z"/>
      <path d="M931.407,969.973c5.786-8.84,8.106-19.373,13.88-28.2,1.293,11,1.666,22.08,2.96,33.094-.48-3.547-.907-7.107-1.36-10.64-4.174,6.4-6.28,13.946-10.8,20.2-.307-3.747-.454-7.96-3.84-10.334-.387-1.36-.68-2.746-.84-4.12Z" style="fill: #2e3882;"/>
      <path d="M285.86,953.52c12.093-.894,24.2.88,36.293-.174.907,1.427,1.867,2.814,2.827,4.227.067.547.213,1.64.28,2.187-6.92-.107-13.853-.32-20.773-.174-6.374.067-12.854.934-19.12-.68.146-1.8.32-3.6.493-5.386Z" style="fill: #bacbf7;"/>
      <path d="M552.58,956.427c.253-.147.773-.427,1.04-.573,4.507,19.173,9.787,38.186,13.72,57.496,1.987,1.29,4.52,1.4,6.627,2.54,1.706,1.54,2.826,3.59,4.12,5.48,35.786-5.54,71.373-12.46,107.306-17.08,1.214.08,2.427.2,3.64.35-14.293,2.69-28.746,4.47-43.093,6.91-23.08,3.01-45.787,8.52-68.92,10.97-1.24-1.96-2.253-4.13-3.947-5.73-2.053-1.03-4.426-1.04-6.626-1.47-4-19.773-9.64-39.173-13.867-58.893Z" style="fill: #556ad9;"/>
      <path d="M324.98,957.573c13.573,17.987,27.293,36.227,45.24,50.177,15,12.24,34.253,21.1,54.027,18.61,1.933.24,3.88.64,5.826,1.01-7.546.4-15.146.66-22.68.02-16.8-2.98-31.626-12.4-44.24-23.51-9.746-8.867-18.8-18.52-26.946-28.867-3.72-4.773-6.92-9.946-11.08-14.346l.133-.907c-.067-.547-.213-1.64-.28-2.187Z"/>
      <path d="M548.553,958.4c1.347-.667,2.68-1.32,4.027-1.973,4.227,19.72,9.867,39.12,13.867,58.893,2.2.43,4.573.44,6.626,1.47,1.694,1.6,2.707,3.77,3.947,5.73,23.133-2.45,45.84-7.96,68.92-10.97,14.347-2.44,28.8-4.22,43.093-6.91-1.333,2.25-3.4,3.87-5.733,5-30.68,5.48-61.507,10.03-92.2,15.41-6.107,1-12.173,2.23-18.32,2.87-2.053-3.61-5.347-6.12-9.507-6.71-4.36-21.06-9.506-41.957-14.72-62.81Z" style="fill: #fff;"/>
      <path d="M544.1,960.533c1.493-.693,2.973-1.426,4.453-2.133,5.214,20.853,10.36,41.75,14.72,62.81,4.16.59,7.454,3.1,9.507,6.71,6.147-.64,12.213-1.87,18.32-2.87,30.693-5.38,61.52-9.93,92.2-15.41-7.733,4.01-14.333,11.05-23.48,11.65-9.84-2.12-19.493,1.88-29.133,3.32-7.814,1.5-15.787,1.82-23.574,3.4-12.733,2.56-25.76,3.42-38.306,6.87-2.414.15-4.827.2-7.24.29-5.267-25.01-12.467-49.557-17.467-74.637Z" style="fill: #586bdc;"/>
      <path d="M325.127,960.667c4.16,4.4,7.36,9.573,11.08,14.346,8.146,10.347,17.2,20,26.946,28.867,12.614,11.11,27.44,20.53,44.24,23.51,7.534.64,15.134.38,22.68-.02-1.946-.37-3.893-.77-5.826-1.01,2.013-.27,4.026-.56,6.053-.73,5.107,1.61,10.16-.75,14.973-2.27,14.507-5.01,27.2-13.79,40.4-21.35.627,4.6,1.334,9.2,2.147,13.79.387-.04,1.16-.12,1.56-.15-.92-4.82-1.627-9.66-2.413-14.5,12.68-9.044,25.226-18.297,37.413-28.017,1.293-1.08,2.08-2.613,3.067-3.946.826-.987,1.666-1.974,2.52-2.934.293.627.893,1.88,1.2,2.507,1.626-.253,3.266-.547,4.933-.534,3.173,4.72,4.4,10.414,5.787,15.854,1.546,7.387,3.773,14.627,5.186,22.04-7.08,6.37-15.533,11.01-24.453,14.28-9.76,2.73-20.4,2.61-29.733-1.6-1.107-.55-3.934-2.68-4.227-.35.28.82.853,2.44,1.133,3.24.254,1.52.494,3.04.747,4.59-10.68,3.61-20.813,8.68-31.573,12.09-19.72,6.16-40.36,12.44-61.24,9.38-19.72-3.03-36.067-16.32-48.267-31.43-10.6-13-17.84-28.227-25.84-42.827.28-4.307.64-8.6,1.507-12.826Z" style="fill: #2e398d;"/>
      <path d="M529.967,964.667c4.84-.867,9.64-2.12,14.133-4.134,5,25.08,12.2,49.627,17.467,74.637,2.413-.09,4.826-.14,7.24-.29-3.934,1.09-8.36,1.52-11.307,4.64-.68.16-2.04.48-2.72.64-1.093-4.53-2.12-9.05-3.067-13.61-.426-1.95-.853-3.88-1.306-5.8-1.147-4.87-2.4-9.71-3.334-14.63-1.413-7.413-3.64-14.653-5.186-22.04-1.387-5.44-2.614-11.134-5.787-15.854-1.667-.013-3.307.281-4.933.534-.307-.627-.907-1.88-1.2-2.507v-1.586Z" style="fill: #28327d;"/>
      <path d="M640.913,967.227c1.067-2.64,2.16-5.4,4.774-6.88,6.946,7.88,12.64,16.786,19.053,25.106-4.213.44-8.467.16-12.667.6-2.4,3.2-2.506,7.534-3.973,11.214-6.093-8.147-11.987-16.507-17.24-25.2.027-.574.107-1.734.147-2.32,2.973-1.867,6.52-2.04,9.906-2.52Z" style="fill: #566cdf;"/>
      <path d="M936.087,984.427c4.52-6.254,6.626-13.8,10.8-20.2.453,3.533.88,7.093,1.36,10.64,2.48,25.303,4.76,50.643,7.506,75.923.774,9.77,2.987,19.98-.4,29.52-1.64,4.64-5.52,8.21-10.213,9.62-49.107.35-98.213-1.25-147.307-1.61-12.013-.01-24-.76-36-.77-7.466-.3-15,.41-22.386-.92-8.027-1.74-13.36-9.1-14.64-16.9,21.746-.33,43.573-1.61,64.906-6.1,26.907-5.26,53.374-13.03,78.627-23.72,26.893-11.99,52.84-29.4,67.747-55.483Z" style="fill: #5469dd;"/>
      <path d="M610.82,966.693c2.92.987,5.4,2.92,8.24,4.107,2.187-.24,4.32-1.307,6.547-1.067,1.293.48,2.586.96,3.88,1.467-.774,9.973-2.52,19.947-5.08,29.59-3.52-1.097-5.094-6.657-9.174-7.497-3.413,1.067-6.573,2.774-9.853,4.187,1.36-9.467,3.173-18.88,4.813-28.293.16-.627.467-1.867.627-2.494Z" style="fill: #576de3;"/>
      <path d="M714.58,967.173l1.733.64c6.267,2.934,12.774,5.187,19.654,6.147-.027.627-.067,1.867-.094,2.493-5.16,2.614-10.96,3.774-15.8,7.054-.4.133-1.2.4-1.6.546-1.306-5.626-2.693-11.24-3.893-16.88Z" style="fill: #fcfdfc;"/>
      <path d="M475.78,1006.16c18.067-11.12,34.707-24.293,51.667-36.973-.987,1.333-1.774,2.866-3.067,3.946-12.187,9.72-24.733,18.973-37.413,28.017.786,4.84,1.493,9.68,2.413,14.5-.4.03-1.173.11-1.56.15-.813-4.59-1.52-9.19-2.147-13.79-13.2,7.56-25.893,16.34-40.4,21.35-4.813,1.52-9.866,3.88-14.973,2.27,16.533-2.52,31.267-11.15,45.48-19.47Z" style="fill: #000100;"/>
      <path d="M931.407,969.973c.16,1.373.453,2.76.84,4.12,3.386,2.374,3.533,6.587,3.84,10.334-14.907,26.083-40.854,43.493-67.747,55.483-25.253,10.69-51.72,18.46-78.627,23.72-21.333,4.49-43.16,5.77-64.906,6.1-.4-11.22,1-22.4,2.2-33.53.706,1.6,1.986,3.33,4.04,2.93,4.186-.02,8.373-.09,12.56.3-4.48.54-8.987.9-13.507.89v.73c11.893-.12,23.813-.14,35.667-1.32,21.853-.93,43.76-2.57,65.346-6.36,21.027-3.93,42.36-9.25,60.507-21.05,16.733-10.28,29.8-25.614,39.787-42.347Z" style="fill: #2e398e;"/>
      <path d="M323.26,976.08c.093-.64.267-1.934.36-2.587,8,14.6,15.24,29.827,25.84,42.827,12.2,15.11,28.547,28.4,48.267,31.43,20.88,3.06,41.52-3.22,61.24-9.38,10.76-3.41,20.893-8.48,31.573-12.09.067.36.2,1.08.267,1.45,1.053,4.6,2.106,9.22,3.013,13.87.613,2.85,1.187,5.71,1.813,8.57,2.907,12.39,4.947,24.96,8.414,37.2-4.92.67-9.867,1.16-14.84,1.23-57.467-.6-114.934-2.41-172.374-4.13-5.8-.28-11.64-.1-17.386-1.07,4.066-11.16,6.866-22.72,9.786-34.2.427-1.77.84-3.56,1.267-5.29,1.293-5.48,2.56-10.96,3.813-16.44.587-2.82,1.16-5.62,1.667-8.43.733-4.73,1.693-9.43,2.64-14.11.387-2.2.707-4.4,1.053-6.57.76-5.373,1.76-10.707,2.587-16.067.32-2.08.667-4.146,1-6.213Z" style="fill: #5468dc;"/>
      <path d="M285.553,977.427c1.374-2.494,4.587-1.587,6.894-1.787,10.266.547,20.546-.147,30.813.44-.333,2.067-.68,4.133-1,6.213-11.227-.346-22.467.067-33.68-.16-2.4.027-4-2.533-3.027-4.706Z" style="fill: #becff6;"/>
      <path d="M704.713,991.013c3.934.094,7.88.093,11.8.627,1.694.706,1.494,2.933,2.08,4.426,2.28,11.814,5.027,23.534,7.974,35.204-8.747,5.18-18.187,10.78-28.747,10.09-11.533-.96-22.253-5.69-32.973-9.68-4.414-2.03-10.307-3.23-11.694-8.64,2.227-.56,4.44-1.2,6.667-1.75,9.147-.6,15.747-7.64,23.48-11.65,2.333-1.13,4.4-2.75,5.733-5-1.213-.15-2.426-.27-3.64-.35-3.746-2.33-8.266-3.1-11.893-5.61-1.107-2.347,1.387-4.32,3.347-4.947,8.96-2.947,18.546-2.52,27.866-2.72Z" style="fill: #ef817f;"/>
      <path d="M286.007,998.827c11.2-.653,22.44-.84,33.666-.467-.346,2.17-.666,4.37-1.053,6.57-10.787-1-21.667.06-32.413-1.44-.067-1.57-.134-3.12-.2-4.663Z" style="fill: #b2c4f3;"/>
      <path d="M522.62,1020.4c8.92-3.27,17.373-7.91,24.453-14.28.934,4.92,2.187,9.76,3.334,14.63-9.267.02-18.547.46-27.787-.35Z" style="fill: #fff;"/>
      <path d="M488.66,1018.45c.293-2.33,3.12-.2,4.227.35-.2,1.8-1.24,2.77-3.094,2.89-.28-.8-.853-2.42-1.133-3.24Z" style="fill: #d9dff0;"/>
      <path d="M311.167,1020.51c1.72,0,3.253-.87,4.813-1.47-.507,2.81-1.08,5.61-1.667,8.43-9.44-1.63-19.053.26-28.546-.82-.027-1.88-.12-3.74-.294-5.58,8.52-1.15,17.134-.1,25.694-.56Z" style="fill: #bccdf3;"/>
      <path d="M492.887,1018.8c9.333,4.21,19.973,4.33,29.733,1.6,9.24.81,18.52.37,27.787.35.453,1.92.88,3.85,1.306,5.8-19.693.82-39.44.05-59.133.22-.44.24-1.32.72-1.773.96-.067-.37-.2-1.09-.267-1.45-.253-1.55-.493-3.07-.747-4.59,1.854-.12,2.894-1.09,3.094-2.89Z" style="fill: #b7c9f2;"/>
      <path d="M630.687,1024.61c9.64-1.44,19.293-5.44,29.133-3.32-2.227.55-4.44,1.19-6.667,1.75-.773.16-2.32.47-3.08.61-1.32.23-2.64.46-3.933.71-29.507,5.31-59.107,10.04-88.64,15.16,2.947-3.12,7.373-3.55,11.307-4.64,12.546-3.45,25.573-4.31,38.306-6.87,7.787-1.58,15.76-1.9,23.574-3.4Z" style="fill: #262466;"/>
      <path d="M646.14,1024.36c1.293-.25,2.613-.48,3.933-.71.52,60.99.04,121.98.254,182.96-.2,18.8.226,37.59-.16,56.39-49.867.45-99.76-.01-149.627.24-3.187,0-6.373-.03-9.52-.55.067-.6.2-1.77.267-2.36,6.133-.89,12.36-.25,18.546-.36,45.734-.26,91.48.51,137.214-.21.12-71.03-.134-142.07.226-213.09-.04-7.46.454-14.99-1.133-22.31Z" style="fill: #cadaf6;"/>
      <path d="M650.073,1023.65c.76-.14,2.307-.45,3.08-.61,1.387,5.41,7.28,6.61,11.694,8.64,10.72,3.99,21.44,8.72,32.973,9.68,10.56.69,20-4.91,28.747-10.09.186,1.62.333,3.26.44,4.93-1.2,11.13-2.6,22.31-2.2,33.53,1.28,7.8,6.613,15.16,14.64,16.9.24,19.29.426,38.57.92,57.85,1.053,65.57,2.906,131.15,4.173,196.73-84.587.18-169.173-.17-253.76.28-.267-41.68-.48-83.34-.68-125.01,22.107.87,44.267.16,66.4.37,19.573-.09,39.16.08,58.733-.02,2.04.21,3.654-1.08,5.227-2.16-.56-1.28-1.093-2.55-1.613-3.8-42.96-.08-85.92.28-128.88.01-.24-5.52-.307-11.04-.294-16.56,39.187-.15,78.387-.07,117.574-.07,4.546-.2,9.72,1.02,13.453-2.32-1.133-1.48-1.773-3.98-4.133-3.53-42.307-.21-84.627.09-126.92-.05-.014-5.54-.04-11.06-.08-16.58,41.893-.48,83.786-.18,125.68-.24,2.133.19,3.76-1.34,5.48-2.33-1.534-4.84-6.934-3.53-10.854-3.61-40.106,0-80.226.13-120.333-.18-.027-5.46-.08-10.92-.12-16.37,41.947-.21,83.907-.11,125.853-.09,2.16.21,3.787-1.31,5.467-2.38-1.093-1.56-1.773-4.08-4.187-3.64-42.386-.02-84.773.06-127.16-.1-.013-5.5-.093-10.98-.133-16.44,38.88-.12,77.747-.06,116.627-.02,4.146-.14,8.453.63,12.493-.53,2.4-1.07,1.213-3.69.68-5.49-43.307.04-86.6-.16-129.907.06-.013-5.57,0-11.14-.04-16.7,41.134.45,82.307-.11,123.454.21,2.533-.21,6.493.45,7.4-2.73-.294-1.19-.627-2.34-.987-3.47-43.293.07-86.587.07-129.867-.01.027-3.06.054-6.08.094-9.11,4.973-.07,9.92-.56,14.84-1.23-3.467-12.24-5.507-24.81-8.414-37.2,6.44-1.22,13.027-.74,19.534-1,17.786.19,35.573.51,53.346-.01,1.56-.19,4.667-.19,4.414-2.51.76-3.89-4.44-4.1-7.054-4.05-20.88.87-41.786.49-62.666.56-3.187-.11-6.667.44-9.387-1.56-.907-4.65-1.96-9.27-3.013-13.87.453-.24,1.333-.72,1.773-.96,19.693-.17,39.44.6,59.133-.22.947,4.56,1.974,9.08,3.067,13.61.68-.16,2.04-.48,2.72-.64,29.533-5.12,59.133-9.85,88.64-15.16,1.587,7.32,1.093,14.85,1.133,22.31-.36,71.02-.106,142.06-.226,213.09-45.734.72-91.48-.05-137.214.21-6.186.11-12.413-.53-18.546.36-.067.59-.2,1.76-.267,2.36,3.147.52,6.333.55,9.52.55,49.867-.25,99.76.21,149.627-.24.386-18.8-.04-37.59.16-56.39-.214-60.98.266-121.97-.254-182.96ZM561.167,1234.04c-2.44,1.68-.947,5.91,2.026,5.52,17.734,0,35.48.03,53.214-.08,2.066.27,2.946-1.8,4.013-3.13-1.253-1.07-1.827-3.55-3.867-3.11-15.573.25-31.146.23-46.706.09-2.88.07-5.987-.57-8.68.71Z" style="fill: #fff;"/>
      <path d="M493.82,1041.6c2.72,2,6.2,1.45,9.387,1.56,20.88-.07,41.786.31,62.666-.56,2.614-.05,7.814.16,7.054,4.05.253,2.32-2.854,2.32-4.414,2.51-17.773.52-35.56.2-53.346.01-6.507.26-13.094-.22-19.534,1-.626-2.86-1.2-5.72-1.813-8.57Z" style="fill: #b7c6f0;"/>
      <path d="M285.66,1043.75c8.267-.52,16.573-.43,24.84.16-.427,1.73-.84,3.52-1.267,5.29-7.826.48-15.706,1.15-23.506.08.053-1.85.04-3.71-.067-5.53Z" style="fill: #b6c7f6;"/>
      <path d="M316.833,1084.47c57.44,1.72,114.907,3.53,172.374,4.13-.04,3.03-.067,6.05-.094,9.11-.026,1.98-.026,3.98,0,6,.04,5.56.027,11.13.04,16.7-.786-1.61-1.213-3.93-3.346-4.2-10.96-3.2-22.56-2.94-33.574-5.78.334-.52,1.027-1.58,1.374-2.1-.467-.34-1.427-1.05-1.894-1.4-.84,1.48-1.666,2.96-2.506,4.46-12.094-2.44-24.547-1.82-36.8-2.62-15.52-1.06-31.094-1.33-46.64-.52-3.64.36-7.32.6-10.947-.01,5.72-6.49,10.427-13.88,13.707-21.88-2.8.17-3.6,2.96-4.694,5.05-2.733,5.75-6.08,11.44-11.16,15.44-2.306,1.8-4.613,3.68-6.133,6.24-.587-.28-1.747-.82-2.333-1.09-8.92,3.4-18.507,5.83-26.28,11.57-.32-3.54-.8-7.05-1.174-10.57-.066-2.75-.066-5.48-.08-8.2-.026-2.48-.12-4.95-.213-7.4-.227-4.32-.053-8.64.373-12.93Z" style="fill: #1a203a;"/>
      <path d="M363.833,1091.41c1.094-2.09,1.894-4.88,4.694-5.05-3.28,8-7.987,15.39-13.707,21.88-2.453,2.04-4.973,4.36-8.28,4.85,1.52-2.56,3.827-4.44,6.133-6.24,5.08-4,8.427-9.69,11.16-15.44Z" style="fill: #090a11;"/>
      <path d="M739.447,1086.63c7.386,1.33,14.92.62,22.386.92,12,.01,23.987.76,36,.77,49.094.36,98.2,1.96,147.307,1.61-.093,12.7-1.08,25.36-2.813,37.95-9.16-5.31-19.974-6.13-29.987-8.92.827-.09,2.507-.31,3.333-.41-5.293-5.04-10.773-10.08-14.226-16.64-2.44-3.8-2.907-8.75-6.334-11.9,1.347,11.44,9.214,20.46,16.347,28.91-7.76-.13-15.28-2.13-22.96-2.92-26.12-3.12-52.307-6.35-78.653-6.4-4.254,0-8.6-.91-12.734.41-1.226-1.97-2.64-3.82-4.6-5.09.44,1.29.934,2.57,1.48,3.85-17.266.74-34.866,2.42-51.226,8.22-2.547,8.8.493,18.58-2.4,27.49-.494-19.28-.68-38.56-.92-57.85Z" style="fill: #1a203a;"/>
      <path d="M895.113,1090.01c3.427,3.15,3.894,8.1,6.334,11.9,3.453,6.56,8.933,11.6,14.226,16.64-.826.1-2.506.32-3.333.41l-.88-.04c-7.133-8.45-15-17.47-16.347-28.91Z" style="fill: #080b11;"/>
      <path d="M285.833,1097.67c10.2-.39,20.427.52,30.627-.27.093,2.45.187,4.92.213,7.4-10.24-2.05-20.693.61-31-.87.054-2.1.107-4.18.16-6.26Z" style="fill: #bbccf5;"/>
      <path d="M489.113,1097.71c43.28.08,86.574.08,129.867.01.36,1.13.693,2.28.987,3.47-.907,3.18-4.867,2.52-7.4,2.73-41.147-.32-82.32.24-123.454-.21-.026-2.02-.026-4.02,0-6Z" style="fill: #b9c8f0;"/>
      <path d="M792.513,1104.92c1.96,1.27,3.374,3.12,4.6,5.09,9.747,14.59,15.054,31.56,19.947,48.26,6.467,25.72,11.32,51.8,17.013,77.69.52,5.07,3.774,10.48,1.52,15.43-4.933-18.23-7.24-37.07-11.733-55.43-4.04-16.13-6.64-32.67-12.147-48.4-4.013-13.67-9.626-27.01-17.72-38.79-.546-1.28-1.04-2.56-1.48-3.85Z" style="fill: #000100;"/>
      <path d="M451.713,1106.93c.467.35,1.427,1.06,1.894,1.4-.347.52-1.04,1.58-1.374,2.1-7.746,10.02-12.6,21.86-17.013,33.64-2.227,5.88-3.613,12.02-4.587,18.22-4.706,22.6-7,45.6-10.266,68.46-1.44,11.5-3.387,22.96-4.574,34.5-.906,6.88-1.106,13.92-3.413,20.55-.227-12.39,2.2-24.6,3.6-36.87,3.853-28.77,7.373-57.61,12.4-86.21,3.28-18.33,11.08-35.56,20.827-51.33.84-1.5,1.666-2.98,2.506-4.46Z" style="fill: #000100;"/>
      <path d="M346.54,1113.09c3.307-.49,5.827-2.81,8.28-4.85,3.627.61,7.307.37,10.947.01,15.546-.81,31.12-.54,46.64.52,12.253.8,24.706.18,36.8,2.62-9.747,15.77-17.547,33-20.827,51.33-5.027,28.6-8.547,57.44-12.4,86.21-1.4,12.27-3.827,24.48-3.6,36.87l-.093.79c-2.894,16.73-3.454,33.78-5.774,50.6-2.986,28.38-5.986,56.76-8.8,85.16-2.146-.06-4.28-.1-6.413-.1-14.16.04-28.307-.45-42.467-.61-2.173-.04-4.306-.31-6.44-.6-1.693-27.55-4.506-55.04-7.12-82.51-2.266-25.22-4.52-50.45-6.76-75.68-.173-1.94-.346-3.85-.493-5.77-.413-5.84-1.16-11.63-1.493-17.45-.267-3.96-.72-7.9-1.134-11.82-.226-3.2-.48-6.4-.76-9.57-.253-2.52-.533-5.05-.76-7.56-.506-5.37-.96-10.75-1.346-16.12-.174-2.24-.36-4.45-.574-6.65-.573-5.46-.906-10.91-1.373-16.35-.173-1.96-.36-3.93-.533-5.87-.454-5.54-.854-11.1-1.307-16.64-.173-2.09-.347-4.16-.52-6.22-.547-5.4-.693-10.83-1.04-16.23-.16-2.2-.32-4.36-.4-6.53-.053-2.36-.027-4.74-.027-7.07.374,3.52.854,7.03,1.174,10.57,7.773-5.74,17.36-8.17,26.28-11.57.586.27,1.746.81,2.333,1.09Z" style="fill: #283158;"/>
      <path d="M742.767,1116.99c16.36-5.8,33.96-7.48,51.226-8.22,8.094,11.78,13.707,25.12,17.72,38.79,1.72,38.95,10.707,77.35,22.347,114.4-4.213,25.53-8.773,51.01-12.493,76.63-4.894,31.06-9.467,62.21-12.36,93.54.453,5-5.974,2.16-8.987,2.84-15.533-.1-31.053-.1-46.573-.69-2.44-.09-4.867-.16-7.294-.21-.413-30.96-.933-61.92-1.813-92.86-1.267-65.58-3.12-131.16-4.173-196.73,2.893-8.91-.147-18.69,2.4-27.49Z" style="fill: #293158;"/>
      <path d="M797.113,1110.01c4.134-1.32,8.48-.41,12.734-.41,26.346.05,52.533,3.28,78.653,6.4,7.68.79,15.2,2.79,22.96,2.92l.88.04c10.013,2.79,20.827,3.61,29.987,8.92-4.04,39.92-16.307,79.79-9.6,120.13,5.213,30.75,13.68,60.82,21.373,90.99,7.107,25.93,13.987,51.95,21.16,77.85-1.76.54-3.493,1.1-5.24,1.66-15.08,4.7-30.2,9.25-45.387,13.58-2.613.78-5.2,1.59-7.773,2.42-15.693-30.88-30.747-62.08-46.12-93.11-8.307-17.29-16.867-34.47-24.8-51.92-5.44-12.04-6.76-25.32-10.293-37.92l-.054-.17c2.254-4.95-1-10.36-1.52-15.43-5.693-25.89-10.546-51.97-17.013-77.69-4.893-16.7-10.2-33.67-19.947-48.26Z" style="fill: #283158;"/>
      <path d="M435.22,1144.07c4.413-11.78,9.267-23.62,17.013-33.64,11.014,2.84,22.614,2.58,33.574,5.78,2.133.27,2.56,2.59,3.346,4.2.08,1.98.08,3.98.107,5.98.04,5.46.12,10.94.133,16.44,0,2.05,0,4.12.027,6.21.04,5.45.093,10.91.12,16.37,0,2.11.013,4.23.027,6.36.04,5.52.066,11.04.08,16.58,0,1.97,0,3.96.026,5.97-.013,5.52.054,11.04.294,16.56.053,1.85.093,3.72.133,5.6.2,41.67.413,83.33.68,125.01.173,26.98.373,53.94.413,80.91-2.573-.08-5.133-.16-7.693-.16l-1.213.01c-13.92.07-27.827-.45-41.734-.57-1.613-.01-3.213.01-4.8.05-5.12-26.76-9.786-53.62-14.626-80.44-2.294-14.89-5.08-29.7-7.44-44.6.88-1.45,1.466-3.01,1.746-4.66,4.6-31.06,10.4-61.96,12.907-93.3.827-12.14,3.067-24.24,2.293-36.44.974-6.2,2.36-12.34,4.587-18.22Z" style="fill: #283058;"/>
      <path d="M287.54,1126.13c-3.44-.32-2.653-6.46.947-5.84,9.426-.13,18.866.03,28.293-.22.08,2.17.24,4.33.4,6.53-9.88-.21-19.787,0-29.64-.47Z" style="fill: #c0cff4;"/>
      <path d="M489.153,1120.41c43.307-.22,86.6-.02,129.907-.06.533,1.8,1.72,4.42-.68,5.49-4.04,1.16-8.347.39-12.493.53-38.88-.04-77.747-.1-116.627.02-.027-2-.027-4-.107-5.98Z" style="fill: #bac9ef;"/>
      <path d="M287.513,1143.24c10.214-.43,20.467-.77,30.707-.41.173,2.06.347,4.13.52,6.22-10.4-.14-20.84.59-31.2-.42-2.987-.2-2.92-5.24-.027-5.39Z" style="fill: #b4c6f2;"/>
      <path d="M489.393,1142.83c42.387.16,84.774.08,127.16.1,2.414-.44,3.094,2.08,4.187,3.64-1.68,1.07-3.307,2.59-5.467,2.38-41.946-.02-83.906-.12-125.853.09-.027-2.09-.027-4.16-.027-6.21Z" style="fill: #b8c8f1;"/>
      <path d="M811.713,1147.56c5.507,15.73,8.107,32.27,12.147,48.4,4.493,18.36,6.8,37.2,11.733,55.43l.054.17c-.414,3.48-1,6.93-1.587,10.4-11.64-37.05-20.627-75.45-22.347-114.4Z" style="fill: #191f39;"/>
      <path d="M420.367,1230.75c3.266-22.86,5.56-45.86,10.266-68.46.774,12.2-1.466,24.3-2.293,36.44-2.507,31.34-8.307,62.24-12.907,93.3-.28,1.65-.866,3.21-1.746,4.66-.587-3.36-1.134-6.72-1.4-10.1l.093-.79c2.307-6.63,2.507-13.67,3.413-20.55,1.187-11.54,3.134-23,4.574-34.5Z" style="fill: #181e34;"/>
      <path d="M285.887,1165.73c11.373-1.05,22.773.39,34.16-.04.173,1.94.36,3.91.533,5.87-10.947-.48-21.933.59-32.853-.2-3.187-.05-1.907-3.63-1.84-5.63Z" style="fill: #b6c7f4;"/>
      <path d="M489.54,1165.41c40.107.31,80.227.18,120.333.18,3.92.08,9.32-1.23,10.854,3.61-1.72.99-3.347,2.52-5.48,2.33-41.894.06-83.787-.24-125.68.24-.014-2.13-.027-4.25-.027-6.36Z" style="fill: #b6c5f1;"/>
      <path d="M285.287,1193.64c.32-2.09-.147-5.91,3.12-5.4,11.173,0,22.373.35,33.546-.33.214,2.2.4,4.41.574,6.65-12.4-1.04-24.894.67-37.24-.92Z" style="fill: #bbccf4;"/>
      <path d="M489.647,1188.35c42.293.14,84.613-.16,126.92.05,2.36-.45,3,2.05,4.133,3.53-3.733,3.34-8.907,2.12-13.453,2.32-39.187,0-78.387-.08-117.574.07-.026-2.01-.026-4-.026-5.97Z" style="fill: #b4c5f2;"/>
      <path d="M285.247,1211.64c3.28-.52,6.6-.87,9.92-.77,9.573.21,19.133-.71,28.706-.19.227,2.51.507,5.04.76,7.56-1.733-.75-3.506-1.59-5.453-1.47-10.48-.13-21,.47-31.467-.18-2.813.08-1.92-3.19-2.466-4.95Z" style="fill: #b6c9f2;"/>
      <path d="M489.967,1210.88c42.96.27,85.92-.09,128.88-.01.52,1.25,1.053,2.52,1.613,3.8-1.573,1.08-3.187,2.37-5.227,2.16-19.573.1-39.16-.07-58.733.02-22.133-.21-44.293.5-66.4-.37-.04-1.88-.08-3.75-.133-5.6Z" style="fill: #b6c7f1;"/>
      <path d="M325.393,1227.81c.414,3.92.867,7.86,1.134,11.82-13.76-.38-27.547.48-41.28-.39.213-1.88.44-3.73.666-5.56,12.947-.29,25.907-.04,38.854-.35.226-1.85.426-3.69.626-5.52Z" style="fill: #bbccf1;"/>
      <path d="M561.167,1234.04c2.693-1.28,5.8-.64,8.68-.71,15.56.14,31.133.16,46.706-.09,2.04-.44,2.614,2.04,3.867,3.11-1.067,1.33-1.947,3.4-4.013,3.13-17.734.11-35.48.08-53.214.08-2.973.39-4.466-3.84-2.026-5.52Z" style="fill: #b9c9ef;"/>
      <path d="M835.646,1251.56c3.534,12.6,4.854,25.88,10.294,37.92,7.933,17.45,16.493,34.63,24.8,51.92-16.334-.04-32.68.08-49.014-.03-.04-.7-.12-2.09-.16-2.78,3.72-25.62,8.28-51.1,12.494-76.63.586-3.47,1.173-6.92,1.586-10.4Z" style="fill: #fefeff;"/>
      <path d="M406.513,1337.19c2.32-16.82,2.88-33.87,5.774-50.6.266,3.38.813,6.74,1.4,10.1,2.36,14.9,5.146,29.71,7.44,44.6-4.827-.06-9.667,0-14.494.2-.026-1.06-.08-3.22-.12-4.3Z" style="fill: #fff;"/>
      <path d="M924.633,1432.09c15.187-4.33,30.307-8.88,45.387-13.58.333,2.62.693,5.26,1.147,7.9-7.747,5.58-17.374,7.39-26.574,9.06-6.28,1.18-12.76,1.05-18.906-.7-.267-.68-.8-2.01-1.054-2.68Z" style="fill: #f58585;"/>
      <path d="M348.833,1421.64c14.16.16,28.307.65,42.467.61-.28,6.28-1.347,12.68-.107,18.94,2.747,2.6,6.587,3.61,9.894,5.34-5.187,7.38-15.24,7.15-23.307,6.99-9.28-.83-19.64-1.61-27-7.97-.653-7.98-1.52-15.92-1.947-23.91Z" style="fill: #f3807d;"/>
      <path d="M440.553,1421.68c13.907.12,27.814.64,41.734.57-1.867,2.39-3.187,5.14-4.28,7.96-3.574,1.68-6.374,4.51-6.6,8.63-4.667.41-6.4,5.07-9.294,8.03-2.32,1.73-5.08,2.74-7.68,4.01-4.16-1.01-8.04-2.91-11.546-5.35-.84-7.94-1.934-15.86-2.334-23.85Z" style="fill: #f37c7b;"/>
      <path d="M482.287,1422.25l1.213-.01c.013,6.09-.733,12.29.427,18.33,2.84,2.47,6.373,3.95,9.653,5.74-2.853,3.6-7.067,5.85-11.613,6.4-9.174,1.14-18.587.52-27.534-1.83,2.6-1.27,5.36-2.28,7.68-4.01,2.894-2.96,4.627-7.62,9.294-8.03.226-4.12,3.026-6.95,6.6-8.63,1.093-2.82,2.413-5.57,4.28-7.96Z" style="fill: #f58581;"/>
      <path d="M944.593,1435.47c9.2-1.67,18.827-3.48,26.573-9.06,8.56,7.59,11.48,19.07,14.774,29.56.093.71.266,2.12.346,2.83-33.613,9.92-67.173,20-100.826,29.73-.96-6.45-.48-13.48,3.36-18.94,3.706-5.16,8.706-9.19,13.28-13.52,8-6.95,15.413-14.55,23.586-21.3,6.147,1.75,12.627,1.88,18.907.7Z" style="fill: #000100;"/>
      <path d="M753.647,1434.28c15.52.59,31.04.59,46.573.69-.333,2.27-.653,4.56-.76,6.88-10.387,3.94-21.813,2.64-32.48.68-4.84-.93-9.667-2.41-13.747-5.26.107-.75.307-2.24.414-2.99Z" style="fill: #e77977;"/>
      <path d="M725.073,1450.99c9.44-4.46,18.574-9.58,28.16-13.72,4.08,2.85,8.907,4.33,13.747,5.26,10.667,1.96,22.093,3.26,32.48-.68,1.307,3.4,2.773,6.78,3.587,10.36,1.826,8.34,2.066,16.9,1.946,25.4-35.093-.01-70.186.12-105.28.06.467-6.44,2.96-12.96,8.094-17.1,5.173-4.14,11.466-6.46,17.266-9.58Z" style="fill: #000100;"/>
      <path d="M440.407,1450.71c.786-1.76,1.626-3.48,2.48-5.18,3.506,2.44,7.386,4.34,11.546,5.35,8.947,2.35,18.36,2.97,27.534,1.83,4.546-.55,8.76-2.8,11.613-6.4,3.627,1.74,7.373,3.17,11.08,4.74,8.053,4.14,16.973,6.98,23.973,12.88,4.014,3.47,6.134,8.55,6.8,13.74-63.906.3-127.826-.04-191.72.14-.013-7.78.547-15.62,2.72-23.12.92-3.28,2.28-6.44,4.347-9.14,7.36,6.36,17.72,7.14,27,7.97,8.067.16,18.12.39,23.307-6.99,5.44,2.46,10.88,4.92,16.32,7.36,6.653,3.08,13.333,6.2,19.32,10.5.92-4.66,1.8-9.34,3.68-13.68Z" style="fill: #000100;"/>
      <path d="M504.66,1451.05c6.147-3.04,13.267-1.61,19.88-1.93,63.547-.48,127.107-.28,190.653-.15,3.4-.08,6.8.48,9.88,2.02-5.8,3.12-12.093,5.44-17.266,9.58-5.134,4.14-7.627,10.66-8.094,17.1,35.094.06,70.187-.07,105.28-.06.12-8.5-.12-17.06-1.946-25.4,24.48-.88,48.933,1.02,73.386,1.98,8.534.81,17.227.21,25.667,1.88-4.573,4.33-9.573,8.36-13.28,13.52-3.84,5.46-4.32,12.49-3.36,18.94,33.653-9.73,67.213-19.81,100.827-29.73-.08-.71-.254-2.12-.347-2.83.52,1.56.653,3.32,1.667,4.74,17.083,2.82,34.423,3.78,51.453,7.02,8.41,1.79,17.57,2.23,24.84,7.36,1.87,2.95-1.36,4.9-3.77,5.72-10.1,3.87-20.94,5.16-31.55,6.91-34.613,4.91-69.533,7.03-104.413,8.97-34.534,2.23-69.12,3.24-103.694,4.62-28.88.96-57.773,2.05-86.666,1.81-18.16,1.29-36.374.84-54.56,1.24-71.574.23-143.174.36-214.72-1.52-76.107-1.63-152.214-4.6-228.08-11.09-20.094-2.16-40.4-3.78-59.987-9.07-3.467-1.07-7.307-2.13-9.72-5.03-1.52-1.94,1.653-3.53,3.053-4.36,14.387-6.04,30.134-7.2,45.427-9.38,38.467-4.92,77.227-6.9,115.92-9.4,5.093-.38,10.2-.34,15.293.18-2.173,7.5-2.733,15.34-2.72,23.12,63.894-.18,127.814.16,191.72-.14-.666-5.19-2.786-10.27-6.8-13.74-7-5.9-15.92-8.74-23.973-12.88Z" style="fill: #97989d;"/>
      <path d="M423.047,1451.68c5.786-.19,11.613-.09,17.36-.97-1.88,4.34-2.76,9.02-3.68,13.68-5.987-4.3-12.667-7.42-19.32-10.5,1.733-1.08,3.466-2.4,5.64-2.21Z" style="fill: #9c9c9e;"/>
    </g>
  </g>
</svg>