<?xml version="1.0" encoding="UTF-8"?>
<svg xmlns="http://www.w3.org/2000/svg" version="1.1" viewBox="0 0 2880 3000">
  <!-- Generator: Adobe Illustrator 28.7.7, SVG Export Plug-In . SVG Version: 1.2.0 Build 194)  -->
  <g>
    <g id="Background">
      <polygon points="2880 0 2880 3000 0 3000 0 0 2880 0 2880 0" style="fill: #fff; fill-rule: evenodd;"/>
    </g>
    <g id="Objects">
      <g>
        <path d="M1366.505,272.722c-277.723,6.751-729.823,50.04-888.437,517.978-158.612,467.938-496.237,768.994-57.91,1451.31,127.05,197.769,285.317,330.992,453.883,413.21,412.995,201.436,1149.099,52.984,1314.108-103.726,318.443-302.428,655.273-696.186,395.244-1409.707-145.35-398.84-218.629-893.335-1216.889-869.066h0Z" style="fill: #e7fafb; fill-rule: evenodd;"/>
        <path d="M2020.66,793.93c-3.574-1.369-5.364-5.381-3.996-8.955,1.369-3.574,5.382-5.365,8.957-3.996,4.408,1.689,8.834,3.467,13.273,5.334,3.527,1.484,5.186,5.552,3.702,9.081-1.483,3.527-5.552,5.187-9.08,3.703-4.3-1.809-8.586-3.53-12.856-5.166h0ZM2071.083,816.971c-3.379-1.795-4.665-5.998-2.869-9.377s5.998-4.665,9.376-2.87c8.266,4.392,16.546,9.089,24.82,14.095,3.274,1.98,4.326,6.247,2.345,9.522-1.98,3.275-6.247,4.326-9.522,2.345-8.051-4.87-16.107-9.441-24.149-13.715h0ZM2130.023,853.656c-3.11-2.23-3.824-6.566-1.593-9.675,2.23-3.11,6.565-3.824,9.675-1.594,7.615,5.461,15.2,11.188,22.74,17.182,2.996,2.381,3.495,6.747,1.113,9.743-2.381,2.996-6.747,3.495-9.742,1.113-7.359-5.85-14.762-11.439-22.193-16.769h0ZM2183.94,897.553c-2.819-2.588-3.007-6.979-.419-9.797,2.588-2.82,6.978-3.007,9.798-.419,6.907,6.341,13.755,12.918,20.529,19.732,2.698,2.714,2.685,7.108-.029,9.807-2.714,2.698-7.107,2.685-9.806-.029-6.624-6.662-13.318-13.093-20.073-19.293h0ZM2232.463,947.437c-2.513-2.886-2.209-7.27.678-9.782,2.887-2.513,7.27-2.209,9.783.677,6.158,7.075,12.234,14.362,18.218,21.861,2.386,2.991,1.896,7.358-1.097,9.745-2.991,2.387-7.357,1.895-9.745-1.096-5.856-7.342-11.807-14.477-17.837-21.405h0ZM2275.33,1002.321c-2.195-3.135-1.432-7.462,1.703-9.657,3.135-2.195,7.462-1.433,9.657,1.702,5.38,7.684,10.663,15.558,15.837,23.623,2.066,3.222,1.128,7.514-2.092,9.581-3.222,2.066-7.516,1.129-9.582-2.092-5.071-7.906-10.249-15.626-15.523-23.157h0ZM2312.38,1061.339c-1.872-3.338-.682-7.568,2.655-9.44,3.338-1.873,7.568-.683,9.44,2.655,4.587,8.179,9.065,16.53,13.427,25.055,1.742,3.408.392,7.589-3.017,9.331-3.406,1.743-7.588.392-9.331-3.016-4.278-8.365-8.673-16.56-13.175-24.585h0ZM2343.558,1123.704c-1.55-3.499.034-7.599,3.532-9.148,3.499-1.55,7.599.033,9.149,3.532,3.795,8.57,7.475,17.298,11.03,26.183,1.421,3.553-.309,7.591-3.861,9.014-3.554,1.422-7.592-.308-9.015-3.861-3.492-8.728-7.105-17.301-10.835-25.72h0ZM2368.916,1188.697c-1.232-3.623.708-7.565,4.33-8.798,3.623-1.233,7.565.707,8.799,4.33,3.019,8.869,5.918,17.879,8.69,27.033,1.109,3.663-.963,7.538-4.627,8.646-3.662,1.11-7.536-.963-8.647-4.627-2.726-9.001-5.576-17.863-8.545-26.584h0ZM2388.609,1255.668c-.928-3.713,1.332-7.48,5.046-8.408,3.713-.928,7.48,1.333,8.407,5.046,2.271,9.084,4.419,18.297,6.441,27.64.811,3.74-1.57,7.435-5.31,8.244-3.74.81-7.435-1.57-8.244-5.31-1.99-9.198-4.106-18.268-6.34-27.212h0ZM2402.871,1324.046c-.639-3.773,1.908-7.355,5.682-7.992,3.773-.638,7.354,1.908,7.992,5.682,1.559,9.228,2.997,18.573,4.311,28.035.526,3.791-2.124,7.295-5.915,7.822-3.79.525-7.295-2.124-7.821-5.915-1.295-9.326-2.713-18.536-4.248-27.632h0ZM2412.118,1393.37c-.389-3.807,2.386-7.214,6.192-7.604,3.808-.39,7.215,2.384,7.605,6.191.949,9.27,1.807,18.675,2.564,28.202.303,3.815-2.548,7.159-6.362,7.462-3.815.303-7.159-2.548-7.462-6.363-.749-9.422-1.596-18.722-2.536-27.889h0ZM2417.27,1463.18c-.173-3.823,2.791-7.068,6.613-7.241,3.822-.173,7.067,2.79,7.24,6.613.423,9.344.745,18.782.957,28.304.086,3.826-2.951,7.002-6.777,7.087-3.826.085-7.002-2.952-7.087-6.777-.21-9.415-.528-18.747-.946-27.986h0ZM2418.422,1533.163c.048-3.827,3.194-6.895,7.02-6.847,3.827.049,6.896,3.195,6.847,7.023-.119,9.378-.349,18.82-.695,28.316-.141,3.825-3.358,6.816-7.184,6.676-3.824-.14-6.816-3.358-6.676-7.183.343-9.386.57-18.717.688-27.985h0ZM2415.431,1603.07c.28-3.816,3.607-6.688,7.425-6.406,3.816.28,6.688,3.607,6.406,7.424-.689,9.375-1.5,18.789-2.438,28.233-.377,3.808-3.775,6.593-7.584,6.216-3.809-.379-6.595-3.777-6.216-7.586.925-9.326,1.726-18.622,2.406-27.881h0ZM2408.063,1672.621c.528-3.791,4.035-6.44,7.824-5.911,3.791.528,6.44,4.034,5.911,7.824-1.3,9.327-2.729,18.671-4.296,28.024-.631,3.773-4.208,6.325-7.983,5.693-3.775-.632-6.326-4.21-5.694-7.984,1.544-9.227,2.955-18.445,4.237-27.646h0ZM2396.022,1741.478c.793-3.744,4.476-6.14,8.221-5.347,3.744.793,6.14,4.477,5.346,8.221-1.954,9.227-4.049,18.449-6.289,27.661-.904,3.718-4.658,6.003-8.377,5.1-3.718-.905-6.002-4.658-5.099-8.377,2.208-9.077,4.272-18.166,6.198-27.258h0ZM2378.979,1809.223c1.076-3.672,4.933-5.778,8.605-4.701,3.672,1.076,5.778,4.932,4.701,8.605-2.656,9.059-5.463,18.098-8.426,27.106-1.195,3.636-5.118,5.616-8.754,4.421-3.635-1.196-5.615-5.118-4.42-8.753,2.916-8.867,5.678-17.761,8.293-26.678h0ZM2356.604,1875.347c1.378-3.569,5.395-5.35,8.967-3.971,3.569,1.378,5.349,5.395,3.971,8.967-3.403,8.813-6.967,17.586-10.695,26.313-1.502,3.52-5.58,5.156-9.1,3.653-3.52-1.503-5.156-5.581-3.653-9.101,3.664-8.578,7.166-17.201,10.511-25.862h0ZM2328.61,1939.238c1.694-3.431,5.856-4.842,9.287-3.149,3.433,1.693,4.844,5.855,3.149,9.287-4.182,8.473-8.533,16.891-13.057,25.245-1.822,3.365-6.034,4.618-9.399,2.796-3.365-1.822-4.618-6.034-2.796-9.399,4.44-8.2,8.711-16.463,12.815-24.78h0ZM2294.816,2000.209c2.016-3.252,6.294-4.257,9.547-2.242,3.253,2.016,4.258,6.295,2.242,9.548-4.975,8.028-10.125,15.987-15.455,23.869-2.145,3.171-6.458,4.003-9.628,1.859-3.171-2.144-4.004-6.458-1.86-9.628,5.227-7.728,10.276-15.532,15.154-23.406h0ZM2255.197,2057.523c2.333-3.034,6.69-3.602,9.724-1.269s3.602,6.691,1.269,9.725c-5.753,7.479-11.686,14.877-17.803,22.185-2.457,2.935-6.834,3.323-9.768.867-2.935-2.456-3.323-6.833-.867-9.769,5.994-7.16,11.807-14.409,17.445-21.738h0ZM2209.935,2110.47c2.635-2.776,7.027-2.892,9.803-.258,2.776,2.635,2.892,7.027.258,9.803-6.487,6.837-13.155,13.581-20.006,20.226-2.747,2.664-7.141,2.597-9.805-.15-2.664-2.747-2.598-7.141.149-9.805,6.713-6.511,13.245-13.117,19.601-19.815h0ZM2159.439,2158.447c2.907-2.49,7.288-2.151,9.778.755,2.488,2.907,2.15,7.288-.756,9.777-7.146,6.12-14.471,12.142-21.974,18.058-3.005,2.369-7.369,1.853-9.738-1.152-2.37-3.005-1.852-7.369,1.152-9.738,7.354-5.799,14.533-11.699,21.537-17.699h0ZM2104.296,2201.041c3.142-2.185,7.468-1.408,9.653,1.732,2.186,3.142,1.409,7.467-1.732,9.652-3.873,2.695-7.789,5.363-11.748,8.005-3.184,2.124-7.493,1.265-9.617-1.919-2.124-3.184-1.264-7.493,1.92-9.617,3.884-2.592,7.726-5.209,11.524-7.854h0Z" style="fill: #9ddde0; fill-rule: evenodd;"/>
        <polygon points="2046.565 2223.322 1958.109 2290.438 1946.694 2214.662 2046.565 2223.322 2046.565 2223.322" style="fill: #9ddde0;"/>
        <polygon points="1664.854 2356.945 1987.115 2334.057 1961.622 2234.184 2046.565 2223.322 1960.016 2156.435 1989.988 2079.893 1664.854 2356.945 1664.854 2356.945" style="fill: #c1edef;"/>
        <path d="M1963.841,2234.74c-.186.707-.684,1.322-1.416,1.623l-296.743,122.75c-1.186.488-2.526-.092-2.975-1.287-.465-1.203.132-2.563,1.326-3.069l296.76-122.743c1.195-.505,2.535.075,2.983,1.27.181.483.184.995.064,1.456h0Z" style="fill: #9ddde0;"/>
        <path d="M1962.235,2156.99c-.133.539-.48,1.049-.98,1.387l-295.138,200.499c-1.092.742-2.514.446-3.205-.62s-.381-2.529.703-3.254l295.145-200.518c1.084-.724,2.515-.444,3.206.621.364.584.442,1.256.27,1.885h0Z" style="fill: #9ddde0;"/>
        <path d="M377.153,1037.963c133.077-94.847,295.861-150.657,471.578-150.657,449.156,0,813.814,364.657,813.814,813.813s-364.658,813.813-813.814,813.813c-78.941,0-155.272-11.263-227.471-32.27-28.042-25.666-55.363-53.307-81.831-83.007,19.318,8.575,39.056,16.372,59.176,23.351-25.452-20.008-49.732-43.007-72.632-68.724-53.182-59.722-98.938-134.258-134.555-219.634h-35.671c-9.391-16.895-18.281-33.547-26.689-49.966h43.121c-38.001-107.284-60.644-229.102-63.233-358.579h-98.324c-2.179-16.895-3.805-33.544-4.914-49.966h103.237c2.59-129.55,25.256-251.43,63.295-358.756h-112.863c5.764-16.733,11.856-33.378,18.221-49.967h113.894c35.606-85.302,81.335-159.776,134.48-219.457,22.9-25.716,47.18-48.715,72.632-68.724-100.198,34.756-190.949,89.8-267.326,160.207,14.97-33.596,30.427-67.327,45.875-101.477h0ZM358.92,1726.103c2.699,130.251,26.434,252.416,66.28,358.579h215.758c-15.695-107.089-25.085-228.971-26.158-358.579h-255.88ZM691.164,1317.38c-15.897,106.43-25.325,228.582-26.398,358.756h367.93c-1.073-130.175-10.501-252.326-26.398-358.756h-315.134ZM1272.262,2084.682c39.846-106.163,63.581-228.328,66.28-358.579h-255.88c-1.073,129.608-10.463,251.49-26.158,358.579h215.758ZM699.273,2134.648c19.023,107.46,44.999,195.809,75.668,255.831,12.82,25.089,26.269,44.889,40.608,58.25,10.765,10.03,21.6,16.238,33.181,16.238s22.416-6.208,33.182-16.238c14.339-13.361,27.789-33.161,40.608-58.25,30.669-60.022,56.645-148.371,75.668-255.831h-298.916ZM445.664,2134.648c32.015,71.874,71.818,134.965,117.624,186.405,55.329,62.131,119.391,107.078,188.934,128.947-7.535-10.906-14.818-23.172-21.774-36.786-33.047-64.675-61.24-161.106-81.526-278.566h-203.257ZM1477.432,1267.414c-91.535-132.373-223.781-234.487-378.574-288.18,25.452,20.008,49.732,43.007,72.632,68.724,53.145,59.681,98.875,134.154,134.481,219.457h171.461ZM752.221,952.239c-69.542,21.869-133.605,66.815-188.934,128.948-45.769,51.396-85.544,114.427-117.545,186.227h203.209c20.284-117.379,48.466-213.747,81.496-278.389,6.956-13.614,14.239-25.88,21.774-36.786h0ZM1509.303,2084.682c61.729-106.006,98.675-228.186,102.873-358.579h-223.658c-2.589,129.478-25.231,251.295-63.232,358.579h184.017ZM945.241,2450c69.542-21.869,133.605-66.816,188.934-128.947,45.806-51.44,85.609-114.531,117.624-186.405h-203.257c-20.287,117.46-48.479,213.892-81.526,278.566-6.956,13.614-14.239,25.88-21.774,36.786h0ZM1251.72,1267.414c-32.001-71.8-71.776-134.831-117.545-186.227-55.329-62.132-119.392-107.079-188.934-128.948,7.535,10.906,14.817,23.171,21.774,36.786,33.03,64.643,61.211,161.01,81.496,278.389h203.209ZM1612.176,1676.137c-4.2-130.466-41.185-252.71-102.976-358.756h-183.977c38.038,107.327,60.704,229.207,63.295,358.756h223.658ZM1098.858,2423.005c154.862-53.718,287.157-155.898,378.697-288.357h-171.509c-35.617,85.376-81.373,159.912-134.555,219.634-22.9,25.717-47.181,48.716-72.632,68.724h0ZM998.157,1267.414c-19.019-107.38-44.983-195.665-75.636-255.653-12.82-25.088-26.269-44.889-40.608-58.25-10.765-10.03-21.6-16.238-33.182-16.238s-22.416,6.207-33.181,16.238c-14.339,13.361-27.789,33.162-40.608,58.25-30.653,59.989-56.617,148.273-75.637,255.653h298.852ZM425.267,1317.38c-39.887,106.204-63.645,228.433-66.347,358.756h255.88c1.074-129.68,10.473-251.626,26.184-358.756h-215.717ZM1338.542,1676.137c-2.702-130.323-26.46-252.553-66.347-358.756h-215.718c15.711,107.13,25.11,229.077,26.184,358.756h255.88ZM1006.325,2084.682c15.881-106.389,25.299-228.478,26.372-358.579h-367.93c1.072,130.102,10.491,252.19,26.372,358.579h315.187Z" style="fill: #c1edef; fill-rule: evenodd;"/>
        <path d="M1237.768,1912.78c-23.154,94.79-36.251,194.616-67.506,322.567,29.266,89.115,94.286,164.137,127.714,147.933,33.427-16.204,21.171-69.791,18.542-102.385,27.934,25.476,58.572,18.6,61.626-2.838,2.672-18.754-2.512-123.508-17.615-171.91,22.751,7.728,45.858-5.628,45.456-34.541-.402-28.912-17.825-125.299-32.987-169.734-29.962,4.29-108.611,9.102-135.23,10.907h0Z" style="fill: #f2af9b; fill-rule: evenodd;"/>
        <path d="M1361.288,2106.283c-.331.153-.565.472-.896.625,0,0-1.117-.12-2.541-.374-25.608-4.562-48.484-32.466-56.27-42.181-3.312-4.132-7.565-10.116-8.202-11.012-10.479-14.744-17.424-28.438-22.366-38.414-.26-.524-4.195-8.754-6.712-14.527-2.303-5.281-5.956-13.666-11.645-29.029-.175-.473-3.076-8.125-6.857-19.801-1.163-3.588-1.855-5.876-1.853-5.878.15-.331.303-.661.454-.991.299.205.691.248.991.453.032.022,2.593,5.907,8.645,17.978.572,1.143,4.605,9.565,14.47,27.857,4.73,8.77,12.015,21.756,16.454,29.282,11.981,20.315,18.773,31.564,26.719,42.89,18.133,25.849,31.3,33.992,35.314,36.409,7.939,4.778,13.593,5.737,13.673,5.818.255.259.369.636.623.894h0Z" style="fill: #eb967b; fill-rule: evenodd;"/>
        <path d="M1317.148,2281.341c-.364-.007-.712.191-1.076.185,0,0-1.286-.791-2.895-1.871-18.52-12.451-31.264-30.296-37.613-39.953-1.385-2.105-6.392-9.981-10.802-18.527-10.705-20.744-15.787-36.438-20.646-54.665-.108-.404-2.365-9.302-3.862-16.528-1.292-6.233-3.154-15.461-5.236-30.703-.036-.264-1.68-11.58-2.702-25.656-.19-2.602-.273-4.249-.273-4.249.228-.286.456-.568.683-.853.238.273.612.406.851.682.027.029,1.156,6.941,4.335,20.339.244,1.029,2.78,12.551,8.435,32.165,3.092,10.722,7.432,24.43,10.729,33.817,3.503,9.977,10.173,28.825,16.382,42.665,1.437,3.201,7.704,17.646,16.758,31.564,3.066,4.713,12.065,18.669,26.372,30.212.365.294.371.289.377.304.209.511-.022.562.186,1.073h0Z" style="fill: #eb967b; fill-rule: evenodd;"/>
        <polygon points="1763.643 309.001 1785.219 671.586 1252.917 703.263 1231.339 340.677 1763.643 309.001 1763.643 309.001" style="fill: #fddaaf; fill-rule: evenodd;"/>
        <path d="M1240.428,480.578c.025.42-.295.781-.715.806-.419.025-.78-.295-.806-.715l-10.913-139.793c-.11-1.848,1.299-3.435,3.146-3.544,0,0,40.244-3.074,97.661-7.055,15.219-1.055,31.644-2.161,48.849-3.244,15.747-.991,32.145-1.996,48.868-2.904,38.772-2.107,79.264-4.029,117.354-5.78,95.648-4.395,176.1-7.512,176.1-7.512.419-.025.78.295.805.715.025.42-.295.78-.715.806,0,0-80.253,6.446-175.747,13.425-38.028,2.779-78.463,5.673-117.212,8.179-16.713,1.081-33.114,2.028-48.867,2.912-17.211.965-33.652,1.815-48.888,2.572-47.854,2.378-83.817,3.969-94.523,4.436l5.602,136.697h0Z" style="fill: #fcc785; fill-rule: evenodd;"/>
        <polygon points="1661.252 388.029 1726.446 666.234 1207.267 787.898 1142.072 509.692 1661.252 388.029 1661.252 388.029" style="fill: #fcc785; fill-rule: evenodd;"/>
        <polygon points="1525.746 500.518 1573.006 702.191 1466.855 727.066 1419.597 525.393 1525.746 500.518 1525.746 500.518" style="fill: #fbad4c; fill-rule: evenodd;"/>
        <path d="M1237.013,584.544c-.628-2.68,1.038-5.365,3.717-5.992,2.679-.628,5.365,1.037,5.993,3.717l41.201,175.818c.627,2.679-1.038,5.364-3.717,5.992-2.679.627-5.364-1.038-5.992-3.717l-41.201-175.818h0Z" style="fill: #fbad4c; fill-rule: evenodd;"/>
        <path d="M1279.7,574.541c-.627-2.68,1.038-5.365,3.717-5.992,2.68-.628,5.364,1.037,5.993,3.717l41.201,175.817c.628,2.68-1.038,5.365-3.717,5.993-2.679.628-5.364-1.038-5.993-3.717l-41.201-175.818h0Z" style="fill: #fbad4c; fill-rule: evenodd;"/>
        <path d="M1322.387,564.538c-.628-2.68,1.038-5.364,3.717-5.992,2.679-.628,5.365,1.037,5.992,3.717l41.201,175.817c.628,2.68-1.038,5.365-3.717,5.993-2.679.627-5.364-1.038-5.992-3.717l-41.201-175.818h0Z" style="fill: #fbad4c; fill-rule: evenodd;"/>
        <path d="M1365.074,554.535c-.627-2.68,1.038-5.365,3.717-5.993,2.68-.628,5.364,1.038,5.993,3.718l41.201,175.817c.627,2.68-1.038,5.365-3.718,5.993-2.68.628-5.364-1.038-5.992-3.717l-41.201-175.817h0Z" style="fill: #fbad4c; fill-rule: evenodd;"/>
        <path d="M1578.511,504.518c-.627-2.679,1.038-5.365,3.718-5.992,2.68-.628,5.364,1.037,5.992,3.717l41.2,175.818c.629,2.679-1.037,5.365-3.717,5.992-2.679.628-5.364-1.038-5.992-3.717l-41.201-175.818h0Z" style="fill: #fbad4c; fill-rule: evenodd;"/>
        <path d="M1621.199,494.515c-.629-2.68,1.037-5.365,3.717-5.992,2.679-.628,5.364,1.038,5.992,3.717l41.2,175.818c.628,2.679-1.037,5.365-3.717,5.993-2.679.627-5.364-1.038-5.992-3.717l-41.2-175.818h0Z" style="fill: #fbad4c; fill-rule: evenodd;"/>
        <path d="M1213.129,493.823c-.409.096-.819-.159-.914-.568-.096-.409.158-.819.567-.915,0,0,73.373-18.728,160.767-40.463,34.804-8.656,71.832-17.742,107.32-26.369,15.307-3.721,30.329-7.338,44.768-10.768,15.774-3.748,30.846-7.295,44.827-10.517,52.744-12.159,89.817-20.337,89.817-20.337,2.288-.536,4.577.885,5.113,3.172,0,0,9.923,44.458,21.005,94.928,14.515,66.113,31.046,142.501,31.046,142.501.097.409-.158.819-.567.915-.409.096-.819-.158-.916-.568,0,0-19.128-75.779-35.495-141.458-10.216-40.995-19.341-78.045-22.33-90.196-10.96,2.704-43.077,10.592-85.415,20.675-13.957,3.324-29.036,6.842-44.833,10.493-14.459,3.342-29.524,6.776-44.891,10.242-35.627,8.037-72.837,16.348-107.863,24.057-87.951,19.356-162.006,35.174-162.006,35.174h0Z" style="fill: #fbad4c; fill-rule: evenodd;"/>
        <path d="M1895.254,607.119c7.964-1.192,16.075.829,22.55,5.617,6.475,4.788,10.782,11.953,11.975,19.917,26.275,175.511,159.722,1066.853,185.998,1242.364,1.192,7.964-.828,16.075-5.616,22.55-4.788,6.475-11.952,10.782-19.916,11.975-139.73,20.919-725.379,108.599-865.11,129.518-7.963,1.192-16.076-.827-22.55-5.615-6.475-4.789-10.782-11.953-11.974-19.917-26.276-175.511-159.722-1066.853-185.999-1242.363-1.192-7.964.828-16.076,5.617-22.551,4.788-6.475,11.952-10.781,19.916-11.974,139.731-20.919,725.379-108.599,865.109-129.518h0Z" style="fill: #7686d0; fill-rule: evenodd;"/>
        <path d="M1290.448,1347.949c8.956-1.341,16.584.506,22.886,5.542,6.301,5.035,10.17,12.347,11.605,21.935,1.404,9.377-.177,17.344-4.743,23.898-4.567,6.555-11.328,10.503-20.284,11.843l-21.178,3.171c-.421.063-.601.306-.538.727l6.791,45.359c.158,1.054-.289,1.66-1.343,1.817l-12.012,1.798c-1.053.158-1.659-.291-1.816-1.344l-16.114-107.629c-.158-1.054.291-1.66,1.344-1.817l35.402-5.3h0ZM1295.878,1399.329c5.058-.758,8.884-3.081,11.48-6.971,2.596-3.89,3.467-8.679,2.615-14.368-.868-5.796-3.116-10.199-6.744-13.21-3.628-3.011-7.972-4.139-13.029-3.381l-18.966,2.839c-.421.063-.601.306-.537.727l5.489,36.667c.063.422.306.601.727.538l18.966-2.839h0Z" style="fill: #cadbff;"/>
        <path d="M1406.445,1443.855c-.948.142-1.599-.245-1.951-1.162l-7.487-17.623c-.152-.301-.439-.419-.861-.356l-34.928,5.23c-.527.079-.766.276-.719.593l-1.839,19.02c.037.963-.472,1.524-1.525,1.683l-12.327,1.845c-.527.079-.945-.02-1.256-.296-.311-.276-.453-.686-.427-1.229l13.149-111.848c.069-.98.577-1.541,1.525-1.683l14.856-2.224c.948-.142,1.599.246,1.951,1.162l45.486,103.07.228.45c.127.843-.337,1.343-1.391,1.501l-12.485,1.869h0ZM1361.854,1416.922c-.089.121-.044.248.138.382.182.134.378.186.588.154l28.606-4.282c.211-.032.383-.138.518-.32.134-.181.141-.317.02-.407l-23.264-55.012c-.137-.195-.258-.285-.363-.269-.105.016-.195.137-.269.363l-5.975,59.39h0Z" style="fill: #cadbff;"/>
        <path d="M1463.057,1436.673c-6.743,1.009-12.855.659-18.336-1.053-5.481-1.71-9.948-4.57-13.403-8.576-3.455-4.008-5.624-8.961-6.507-14.862l-.64-4.267c-.158-1.054.291-1.66,1.345-1.817l11.695-1.751c1.054-.158,1.659.29,1.817,1.344l.521,3.478c.773,5.162,3.161,9.06,7.165,11.692,4.002,2.633,9.007,3.499,15.012,2.6,5.374-.805,9.398-2.888,12.072-6.25,2.675-3.363,3.657-7.415,2.947-12.157-.474-3.16-1.674-5.781-3.602-7.863-1.928-2.081-4.542-3.898-7.845-5.451-3.303-1.553-8.027-3.431-14.175-5.634-6.932-2.41-12.518-4.644-16.758-6.702-4.24-2.059-7.924-4.9-11.052-8.525-3.128-3.625-5.118-8.282-5.97-13.972-1.325-8.851.531-16.238,5.569-22.164,5.038-5.924,12.351-9.605,21.939-11.04,6.639-.995,12.675-.605,18.111,1.167,5.436,1.771,9.893,4.74,13.371,8.905,3.477,4.165,5.667,9.251,6.566,15.257l.544,3.635c.158,1.054-.29,1.66-1.344,1.817l-11.853,1.774c-1.054.158-1.659-.29-1.816-1.344l-.497-3.319c-.773-5.163-3.09-9.125-6.95-11.887-3.861-2.761-8.689-3.709-14.483-2.841-5.163.773-8.996,2.694-11.499,5.762-2.503,3.068-3.392,7.025-2.666,11.872.474,3.161,1.587,5.741,3.34,7.74,1.754,2,4.251,3.754,7.495,5.262,3.241,1.507,7.98,3.302,14.217,5.385,7.886,3.02,13.896,5.568,18.03,7.643,4.136,2.074,7.671,4.83,10.61,8.269,2.938,3.438,4.81,7.844,5.614,13.217,1.356,9.061-.539,16.724-5.688,22.989-5.148,6.265-12.779,10.154-22.895,11.669h0Z" style="fill: #cadbff;"/>
        <path d="M1546.347,1424.203c-6.743,1.01-12.854.659-18.337-1.052-5.48-1.711-9.947-4.57-13.402-8.578-3.455-4.007-5.624-8.961-6.508-14.861l-.639-4.267c-.157-1.054.291-1.66,1.344-1.817l11.695-1.751c1.055-.158,1.66.29,1.817,1.344l.522,3.477c.772,5.163,3.16,9.06,7.163,11.692,4.003,2.633,9.007,3.499,15.013,2.601,5.374-.805,9.397-2.889,12.072-6.252,2.674-3.363,3.656-7.414,2.946-12.156-.473-3.161-1.673-5.782-3.601-7.864-1.928-2.081-4.543-3.897-7.846-5.45-3.302-1.553-8.027-3.431-14.174-5.635-6.932-2.409-12.518-4.643-16.758-6.702-4.241-2.058-7.925-4.9-11.053-8.525-3.128-3.625-5.118-8.282-5.97-13.972-1.325-8.851.531-16.239,5.568-22.164,5.038-5.925,12.352-9.606,21.939-11.041,6.638-.994,12.675-.605,18.111,1.167,5.435,1.772,9.892,4.74,13.371,8.905,3.479,4.166,5.667,9.251,6.566,15.257l.545,3.635c.158,1.054-.29,1.66-1.344,1.817l-11.854,1.775c-1.054.157-1.659-.291-1.817-1.344l-.496-3.319c-.774-5.163-3.09-9.125-6.951-11.887-3.86-2.761-8.688-3.708-14.483-2.84-5.162.772-8.995,2.693-11.499,5.761-2.503,3.068-3.392,7.025-2.666,11.872.474,3.161,1.587,5.741,3.34,7.741,1.755,2,4.252,3.753,7.494,5.261,3.242,1.507,7.98,3.303,14.219,5.385,7.885,3.022,13.894,5.568,18.029,7.643,4.135,2.074,7.672,4.83,10.609,8.269,2.939,3.438,4.81,7.844,5.615,13.217,1.356,9.061-.539,16.725-5.688,22.989-5.148,6.266-12.781,10.154-22.896,11.669h0Z" style="fill: #cadbff;"/>
        <path d="M1619.815,1298.638c8.956-1.34,16.585.506,22.887,5.542,6.302,5.035,10.17,12.347,11.605,21.935,1.404,9.378-.178,17.344-4.744,23.898-4.566,6.555-11.327,10.502-20.283,11.843l-21.179,3.171c-.421.064-.601.305-.538.727l6.791,45.359c.158,1.054-.289,1.66-1.343,1.817l-12.012,1.798c-1.054.158-1.659-.291-1.817-1.344l-16.113-107.629c-.157-1.054.29-1.659,1.344-1.817l35.402-5.3h0ZM1625.244,1350.019c5.058-.757,8.884-3.081,11.479-6.97,2.596-3.89,3.468-8.679,2.616-14.37-.867-5.795-3.115-10.198-6.744-13.21-3.629-3.012-7.973-4.139-13.03-3.382l-18.965,2.84c-.422.063-.601.306-.538.726l5.489,36.667c.063.421.306.601.728.537l18.965-2.839h0Z" style="fill: #cadbff;"/>
        <path d="M1717.059,1398.807c-6.742,1.01-12.879.501-18.406-1.526-5.528-2.026-10.094-5.356-13.695-9.987-3.603-4.632-5.9-10.267-6.895-16.904l-6.956-46.465c-.978-6.533-.423-12.541,1.665-18.024,2.087-5.483,5.477-10.004,10.169-13.561,4.692-3.558,10.41-5.841,17.153-6.851,6.743-1.01,12.906-.505,18.486,1.515,5.581,2.019,10.172,5.344,13.774,9.976,3.602,4.631,5.892,10.213,6.87,16.746l6.956,46.465c.994,6.638.447,12.698-1.641,18.182s-5.503,10.007-10.248,13.572c-4.745,3.565-10.489,5.853-17.233,6.862h0ZM1715.072,1385.531c5.688-.852,10.004-3.329,12.945-7.432,2.94-4.102,3.969-9.105,3.086-15.004l-7.099-47.414c-.884-5.9-3.34-10.435-7.368-13.602-4.029-3.168-8.889-4.325-14.579-3.473-5.584.836-9.839,3.358-12.764,7.566-2.925,4.209-3.945,9.263-3.063,15.164l7.099,47.414c.868,5.795,3.313,10.249,7.334,13.364,4.021,3.114,8.824,4.254,14.408,3.418h0Z" style="fill: #cadbff;"/>
        <path d="M1827.795,1380.774c-.844.127-1.486-.209-1.928-1.004l-25.386-44.353c-.152-.3-.387-.427-.703-.379l-16.91,2.532c-.422.063-.601.306-.538.727l6.98,46.624c.158,1.054-.29,1.659-1.344,1.817l-12.012,1.798c-1.054.158-1.659-.29-1.817-1.343l-16.089-107.472c-.158-1.053.29-1.658,1.344-1.816l35.402-5.3c8.85-1.325,16.395.507,22.637,5.499,6.241,4.99,10.065,12.174,11.468,21.552,1.057,7.059.331,13.362-2.179,18.908-2.509,5.546-6.466,9.694-11.872,12.442-.3.153-.366.432-.197.838l26.45,45.001.254.608c.125.843-.285,1.335-1.234,1.477l-12.326,1.846h0ZM1775.58,1288.892c-.422.063-.601.306-.537.727l5.3,35.402c.064.421.306.601.726.537l19.124-2.863c4.847-.726,8.523-2.973,11.029-6.742,2.506-3.768,3.349-8.392,2.528-13.871-.837-5.584-2.981-9.841-6.438-12.771-3.454-2.93-7.658-4.024-12.609-3.283l-19.124,2.863h0Z" style="fill: #cadbff;"/>
        <path d="M1907.006,1255.804c1.054-.158,1.66.29,1.818,1.344l1.514,10.115c.158,1.054-.29,1.659-1.344,1.816l-25.445,3.809c-.421.064-.601.306-.538.728l14.245,95.143c.157,1.054-.29,1.659-1.344,1.817l-12.012,1.799c-1.054.157-1.659-.291-1.817-1.344l-14.244-95.143c-.063-.422-.306-.601-.727-.538l-24.339,3.644c-1.055.158-1.659-.291-1.817-1.344l-1.515-10.115c-.158-1.054.291-1.66,1.345-1.817l66.22-9.914h0Z" style="fill: #cadbff;"/>
        <path d="M1054.126,766.173c-.34-2.271,1.227-4.391,3.499-4.731,2.271-.339,4.39,1.229,4.73,3.498l.618,4.126c.34,2.271-1.228,4.391-3.499,4.731-2.27.339-4.391-1.228-4.73-3.499l-.618-4.126h0ZM1057.214,786.8c-.34-2.271,1.227-4.391,3.498-4.73,2.27-.34,4.39,1.228,4.73,3.499l1.235,8.251c.34,2.27-1.227,4.391-3.498,4.73s-4.391-1.227-4.731-3.499l-1.235-8.251h0ZM1060.92,811.552c-.34-2.271,1.228-4.391,3.499-4.731,2.271-.34,4.39,1.228,4.73,3.499l1.235,8.251c.34,2.271-1.228,4.391-3.499,4.731-2.271.339-4.391-1.228-4.731-3.499l-1.235-8.251h0ZM1064.625,836.305c-.339-2.271,1.228-4.391,3.499-4.73,2.271-.34,4.391,1.227,4.731,3.498l1.236,8.252c.339,2.27-1.228,4.391-3.499,4.731-2.27.34-4.391-1.229-4.73-3.499l-1.236-8.251h0ZM1068.331,861.057c-.339-2.271,1.228-4.39,3.498-4.73,2.271-.34,4.391,1.228,4.731,3.498l1.236,8.251c.339,2.272-1.228,4.391-3.498,4.73-2.271.34-4.391-1.227-4.731-3.498l-1.235-8.252h0ZM1072.038,885.81c-.34-2.271,1.227-4.391,3.498-4.73,2.27-.34,4.391,1.228,4.73,3.499l1.235,8.251c.34,2.271-1.228,4.39-3.499,4.731-2.271.34-4.391-1.228-4.73-3.499l-1.235-8.251h0ZM1075.743,910.563c-.34-2.271,1.227-4.391,3.498-4.73,2.271-.34,4.391,1.228,4.73,3.499l1.235,8.251c.341,2.271-1.228,4.391-3.499,4.731-2.27.34-4.39-1.227-4.73-3.498l-1.235-8.252h0ZM1079.449,935.314c-.34-2.271,1.228-4.391,3.499-4.731,2.271-.339,4.391,1.228,4.731,3.498l1.235,8.252c.34,2.271-1.228,4.391-3.498,4.73-2.271.341-4.39-1.227-4.731-3.498l-1.235-8.251h0ZM1083.155,960.067c-.34-2.27,1.227-4.39,3.498-4.73s4.391,1.227,4.73,3.498l1.235,8.251c.34,2.271-1.227,4.391-3.498,4.73-2.271.34-4.391-1.227-4.73-3.498l-1.235-8.251h0ZM1086.86,984.82c-.34-2.27,1.227-4.391,3.498-4.731,2.271-.34,4.391,1.228,4.731,3.499l1.235,8.252c.34,2.271-1.227,4.391-3.498,4.73-2.27.34-4.39-1.227-4.73-3.498l-1.235-8.252h0ZM1090.566,1009.572c-.339-2.271,1.228-4.391,3.499-4.73,2.271-.34,4.391,1.227,4.731,3.498l1.234,8.252c.34,2.271-1.228,4.391-3.499,4.73-2.27.34-4.39-1.228-4.73-3.498l-1.235-8.251h0ZM1094.271,1034.324c-.34-2.271,1.228-4.391,3.499-4.73,2.271-.34,4.391,1.227,4.731,3.498l1.236,8.251c.339,2.271-1.228,4.391-3.498,4.731-2.271.339-4.391-1.227-4.731-3.498l-1.235-8.252h0ZM1097.977,1059.076c-.339-2.271,1.228-4.391,3.498-4.731,2.271-.34,4.391,1.228,4.731,3.499l1.236,8.251c.339,2.271-1.228,4.391-3.499,4.731-2.271.34-4.391-1.227-4.731-3.499l-1.236-8.251h0ZM1101.683,1083.829c-.34-2.271,1.228-4.391,3.498-4.731,2.271-.34,4.391,1.227,4.731,3.498l1.235,8.252c.34,2.27-1.227,4.39-3.498,4.73-2.271.34-4.391-1.227-4.73-3.498l-1.236-8.251h0ZM1105.389,1108.582c-.34-2.271,1.227-4.391,3.498-4.73,2.27-.34,4.391,1.227,4.731,3.498l1.235,8.251c.34,2.27-1.227,4.39-3.499,4.73-2.27.34-4.39-1.228-4.73-3.499l-1.235-8.251h0ZM1109.095,1133.334c-.34-2.271,1.228-4.391,3.499-4.73,2.27-.34,4.39,1.228,4.73,3.499l1.235,8.25c.34,2.271-1.228,4.391-3.499,4.73-2.271.34-4.391-1.227-4.731-3.498l-1.235-8.251h0ZM1112.801,1158.088c-.339-2.271,1.227-4.391,3.498-4.731,2.271-.34,4.391,1.228,4.731,3.499l1.235,8.251c.34,2.271-1.227,4.391-3.498,4.731-2.27.34-4.39-1.228-4.73-3.499l-1.235-8.251h0ZM1116.506,1182.838c-.34-2.271,1.228-4.39,3.499-4.731,2.271-.34,4.391,1.228,4.73,3.499l1.235,8.251c.34,2.271-1.227,4.391-3.498,4.731-2.271.34-4.391-1.228-4.73-3.499l-1.235-8.251h0ZM1120.213,1207.593c-.34-2.271,1.227-4.391,3.498-4.731,2.27-.34,4.391,1.227,4.73,3.498l1.235,8.252c.341,2.271-1.228,4.39-3.499,4.731-2.271.34-4.391-1.228-4.73-3.499l-1.235-8.251h0ZM1123.918,1232.344c-.34-2.271,1.228-4.391,3.499-4.731,2.271-.34,4.391,1.228,4.73,3.498l1.235,8.25c.34,2.271-1.227,4.391-3.498,4.731-2.27.339-4.391-1.228-4.731-3.499l-1.234-8.249h0ZM1127.624,1257.097c-.341-2.271,1.228-4.391,3.499-4.731,2.271-.339,4.391,1.228,4.73,3.499l1.236,8.25c.34,2.271-1.228,4.39-3.499,4.73-2.271.341-4.391-1.227-4.731-3.498l-1.235-8.25h0ZM1131.329,1281.849c-.339-2.271,1.227-4.391,3.499-4.73,2.271-.34,4.391,1.227,4.73,3.498l1.236,8.251c.339,2.271-1.228,4.391-3.498,4.73-2.271.34-4.391-1.227-4.731-3.499l-1.236-8.251h0ZM1135.036,1306.602c-.34-2.271,1.228-4.391,3.499-4.73,2.271-.34,4.39,1.227,4.73,3.498l1.235,8.251c.34,2.271-1.228,4.391-3.499,4.73-2.271.34-4.391-1.228-4.731-3.498l-1.235-8.251h0ZM1138.741,1331.352c-.34-2.271,1.228-4.391,3.499-4.731,2.271-.34,4.391,1.227,4.731,3.498l1.235,8.252c.339,2.271-1.228,4.39-3.499,4.73-2.271.341-4.391-1.228-4.731-3.499l-1.235-8.251h0ZM1142.447,1356.105c-.34-2.271,1.227-4.391,3.498-4.731,2.271-.34,4.391,1.228,4.73,3.499l1.235,8.25c.34,2.271-1.227,4.391-3.498,4.731-2.271.34-4.391-1.227-4.731-3.499l-1.235-8.25h0ZM1146.152,1380.856c-.34-2.271,1.228-4.391,3.499-4.73,2.271-.34,4.391,1.227,4.73,3.498l1.235,8.25c.34,2.27-1.227,4.391-3.498,4.731-2.271.34-4.391-1.228-4.73-3.499l-1.235-8.251h0ZM1149.858,1405.611c-.34-2.271,1.228-4.39,3.498-4.73,2.271-.34,4.391,1.227,4.731,3.498l1.235,8.251c.34,2.271-1.227,4.39-3.499,4.73-2.271.34-4.391-1.228-4.73-3.499l-1.235-8.251h0ZM1153.564,1430.364c-.34-2.271,1.228-4.391,3.499-4.731,2.27-.339,4.391,1.228,4.731,3.499l1.235,8.252c.339,2.271-1.228,4.391-3.499,4.731-2.271.34-4.391-1.228-4.73-3.499l-1.235-8.251h0ZM1157.269,1455.117c-.339-2.271,1.229-4.391,3.499-4.731,2.271-.339,4.391,1.227,4.731,3.498l1.234,8.251c.34,2.271-1.228,4.391-3.498,4.731-2.27.34-4.39-1.228-4.73-3.498l-1.235-8.25h0ZM1160.976,1479.869c-.34-2.271,1.227-4.391,3.498-4.73,2.271-.34,4.391,1.228,4.73,3.498l1.235,8.251c.34,2.27-1.227,4.391-3.498,4.731-2.271.34-4.391-1.228-4.73-3.499l-1.235-8.251h0ZM1164.682,1504.619c-.34-2.271,1.228-4.391,3.499-4.73,2.271-.34,4.39,1.229,4.73,3.498l1.236,8.252c.339,2.271-1.228,4.391-3.499,4.73-2.271.341-4.391-1.228-4.731-3.498l-1.235-8.252h0ZM1168.388,1529.374c-.34-2.271,1.227-4.391,3.499-4.73,2.27-.34,4.39,1.228,4.73,3.499l1.235,8.251c.34,2.271-1.228,4.392-3.499,4.73-2.271.341-4.391-1.228-4.731-3.499l-1.235-8.251h0ZM1172.093,1554.125c-.34-2.271,1.228-4.391,3.498-4.73,2.271-.34,4.391,1.228,4.731,3.498l1.235,8.251c.34,2.271-1.227,4.39-3.498,4.73-2.27.341-4.39-1.228-4.73-3.499l-1.235-8.25h0ZM1175.799,1578.878c-.34-2.27,1.228-4.391,3.499-4.73,2.27-.34,4.391,1.228,4.73,3.499l1.236,8.251c.34,2.271-1.228,4.391-3.499,4.73-2.271.34-4.391-1.227-4.73-3.499l-1.235-8.251h0ZM1179.504,1603.631c-.339-2.271,1.228-4.39,3.498-4.73,2.271-.34,4.391,1.228,4.731,3.499l1.234,8.251c.341,2.27-1.228,4.39-3.498,4.73-2.27.34-4.391-1.229-4.73-3.499l-1.236-8.251h0ZM1183.21,1628.381c-.34-2.271,1.227-4.391,3.498-4.73,2.271-.34,4.391,1.227,4.731,3.498l1.235,8.251c.34,2.271-1.227,4.391-3.499,4.73-2.271.341-4.391-1.228-4.73-3.499l-1.235-8.25h0ZM1186.916,1653.135c-.34-2.271,1.228-4.391,3.499-4.73,2.27-.34,4.39,1.227,4.731,3.499l1.235,8.251c.34,2.271-1.228,4.39-3.499,4.73-2.271.34-4.391-1.229-4.73-3.499l-1.235-8.251h0ZM1190.622,1677.886c-.34-2.271,1.228-4.391,3.498-4.73,2.271-.34,4.391,1.227,4.731,3.499l1.235,8.25c.339,2.272-1.228,4.391-3.499,4.73-2.271.34-4.39-1.227-4.731-3.498l-1.235-8.251h0ZM1194.328,1702.641c-.339-2.271,1.228-4.391,3.499-4.73,2.271-.34,4.391,1.227,4.731,3.498l1.235,8.252c.34,2.27-1.227,4.39-3.499,4.729-2.271.341-4.39-1.227-4.73-3.498l-1.235-8.251h0ZM1198.033,1727.392c-.34-2.27,1.227-4.391,3.498-4.73,2.271-.34,4.391,1.228,4.731,3.499l1.235,8.25c.34,2.271-1.228,4.391-3.499,4.73-2.271.34-4.391-1.228-4.73-3.498l-1.235-8.251h0ZM1201.739,1752.145c-.34-2.272,1.227-4.391,3.499-4.73,2.27-.34,4.39,1.227,4.73,3.498l1.235,8.252c.34,2.27-1.227,4.391-3.498,4.73-2.271.34-4.391-1.228-4.731-3.498l-1.235-8.252h0ZM1205.445,1776.898c-.34-2.271,1.227-4.391,3.498-4.73,2.271-.34,4.391,1.228,4.731,3.498l1.234,8.251c.34,2.271-1.228,4.39-3.499,4.73-2.271.341-4.39-1.228-4.73-3.499l-1.235-8.25h0ZM1209.15,1801.648c-.34-2.271,1.227-4.391,3.499-4.73,2.27-.34,4.391,1.228,4.73,3.498l1.236,8.251c.34,2.271-1.227,4.391-3.499,4.731-2.271.34-4.391-1.228-4.73-3.499l-1.236-8.251h0ZM1212.856,1826.402c-.34-2.271,1.228-4.391,3.499-4.73,2.271-.34,4.39,1.229,4.73,3.499l1.236,8.251c.34,2.272-1.227,4.39-3.499,4.73-2.27.34-4.391-1.227-4.73-3.499l-1.235-8.251h0ZM1216.563,1851.154c-.34-2.271,1.227-4.391,3.498-4.73,2.271-.34,4.391,1.228,4.73,3.498l1.236,8.252c.34,2.27-1.228,4.391-3.499,4.73-2.271.34-4.391-1.228-4.73-3.499l-1.235-8.251h0ZM1220.268,1875.906c-.34-2.271,1.228-4.392,3.499-4.73,2.271-.341,4.391,1.227,4.731,3.498l1.235,8.251c.34,2.27-1.227,4.391-3.498,4.73-2.271.341-4.391-1.228-4.731-3.499l-1.236-8.25h0ZM1223.974,1900.659c-.34-2.27,1.228-4.39,3.499-4.729,2.27-.341,4.39,1.226,4.73,3.498l1.235,8.25c.34,2.271-1.228,4.392-3.499,4.731-2.271.34-4.39-1.228-4.731-3.499l-1.235-8.251h0ZM1227.68,1925.412c-.34-2.271,1.227-4.391,3.498-4.73,2.271-.341,4.39,1.228,4.73,3.498l1.235,8.251c.34,2.27-1.227,4.392-3.498,4.73-2.271.341-4.391-1.227-4.731-3.499l-1.235-8.25h0ZM1231.385,1950.164c-.34-2.27,1.228-4.39,3.498-4.73,2.271-.34,4.391,1.227,4.731,3.499l1.235,8.251c.34,2.27-1.227,4.391-3.498,4.73-2.271.34-4.39-1.228-4.73-3.499l-1.236-8.251h0ZM1235.091,1974.916c-.339-2.269,1.228-4.391,3.499-4.73,2.271-.34,4.391,1.229,4.731,3.499l1.235,8.251c.34,2.272-1.228,4.391-3.499,4.73-2.27.34-4.39-1.227-4.73-3.498l-1.235-8.252h0ZM1238.797,1999.669c-.34-2.271,1.227-4.391,3.498-4.731,2.27-.339,4.39,1.228,4.73,3.499l.617,4.126c.34,2.27-1.228,4.391-3.499,4.73-2.271.34-4.39-1.228-4.731-3.498l-.617-4.126h0Z" style="fill: #4b5eb5; fill-rule: evenodd; stroke: #4b5eb5; stroke-linejoin: round;"/>
        <path d="M1645.364,1694.366c26.213-3.925,50.68,14.17,54.605,40.384,3.925,26.211-14.171,50.679-40.383,54.603-26.213,3.924-50.681-14.171-54.605-40.383-3.924-26.213,14.171-50.681,40.384-54.604h0Z" style="fill: #4b5eb5; fill-rule: evenodd;"/>
        <path d="M1497.522,1775.538c-5.658.848-10.94-3.058-11.785-8.715-.848-5.658,3.058-10.938,8.715-11.786l82.688-12.379c5.657-.847,10.938,3.059,11.785,8.716.847,5.657-3.06,10.939-8.717,11.786l-82.685,12.378h0Z" style="fill: #4b5eb5; fill-rule: evenodd;"/>
        <path d="M1727.811,1741.06c-5.657.848-10.938-3.058-11.785-8.715-.847-5.658,3.058-10.939,8.716-11.786l82.688-12.379c5.656-.847,10.938,3.058,11.784,8.716.848,5.657-3.059,10.939-8.716,11.785l-82.686,12.379h0Z" style="fill: #4b5eb5; fill-rule: evenodd;"/>
        <path d="M1569.435,1167.333c-27.692,34.743-68.069,59.512-115.43,66.602-99.44,14.888-192.259-53.757-207.146-153.197-14.887-99.439,53.758-192.258,153.198-207.145,47.362-7.091,93.221,4.768,129.875,29.877,27.692-34.743,68.068-59.512,115.43-66.602,99.439-14.888,192.259,53.758,207.146,153.198,14.888,99.439-53.758,192.258-153.197,207.146-47.361,7.09-93.221-4.768-129.874-29.877h0ZM1261.857,1003.642c-7.241,23.773-9.438,49.482-5.516,75.677,14.104,94.206,102.038,159.238,196.243,145.135,44.711-6.694,82.85-30.017,109.076-62.749-33.329-25.493-57.951-62.441-67.371-106.044-26.268,14.504-9.879,29.288-25.099,50.772-16.009,22.595-45.204,16.463-40.004,35.68,5.199,19.217,40.217,46.698,5.211,50.323-35.006,3.625-70.223-91.287-91.047-106.26-20.824-14.973,15.385-42.947,8.994-64.051-6.392-21.104-23.617-33.629-57.247-10.012-14.774,10.375-25.673,4.376-33.24-8.472h0ZM1505.798,971.634c-6.14,22.441-7.816,46.489-4.152,70.96,13.144,87.791,90.404,150.246,177.106,146.931-14.654-22.557-8.516-45.117,12.63-45.259,22.6-.151,30.98-14.333,40.269-27.843,9.288-13.51,10.675-25.837,25.883-15.994,15.209,9.842,43.553,26.481,45.237,5.346,1.569-19.694,13.953-41.007,31.612-29.316,9.68-26.3,13.079-55.326,8.641-84.974-5.853-39.096-24.422-73.166-50.877-98.643-.153,11.114,2.605,20.587-5.832,32.861-9.952,14.477-39.516-10.301-59.588-4.065-20.072,6.237,21.407,24.265,28.591,50.66,7.184,26.395-27.428,17.25-18.21,35.043,4.662,8.997-20.225,14.486-13.692,27.096,10.164,19.62-18.431,28.747-14.114,35.239,4.59,6.903,25.629,2.106,29.256,6.536,10.658,13.018,10.241,23.461-12.856,18.479-24.263-5.233-29.617-8.493-39.644-37.693-5.009-14.587-14.37-37.312-28.542-25.621-13.803,11.388-9.882-25.591-18.998-18.97-18.218,13.231-7.801,63.814-32.531,52.539-34.686-15.813-26.61-70.346-56.169-51.378-28.253,18.131-16.674-17.372-44.017-41.934h0Z" style="fill: #4b5eb5; fill-rule: evenodd;"/>
        <path d="M1617.359,1076.17c7.867-4,10.311,4.112,14.773,12.331,4.463,8.219,8.445,24.03-4.689,22.64-13.136-1.389-22.576-10.479-15.265-15.613,7.311-5.134.677-17.068,5.181-19.358h0Z" style="fill: #4b5eb5; fill-rule: evenodd;"/>
        <path d="M1782.344,939.654c8.209-5.02,20.423,12.292,14.414,26.12-6.01,13.826-22.406,12.241-19.566,31.207,2.84,18.965-22.254,34.841-27.189,23.461-4.935-11.38-7.5-23.115,5.853-20.267,13.354,2.848,20.626-7.936,18.911-19.394-1.716-11.458,7.284-16.1,10.181-23.742,2.895-7.644-21.848-5.617-2.603-17.385h0Z" style="fill: #4b5eb5; fill-rule: evenodd;"/>
        <path d="M1284.014,1029.83c9.219-7.659,21.271,1.765,23.045,13.619,1.775,11.853,19.236,20.55,6.947,24.813-12.288,4.265-28.685,2.679-25.718-9.884,2.967-12.564-13.615-20.787-4.274-28.547h0Z" style="fill: #4b5eb5; fill-rule: evenodd;"/>
        <path d="M1854.815,613.174c-.689.123-1.195.802-1.884.925-.617.11-83.311,13.6-137.2,22.313-164.05,26.524-232.613,36.635-252.871,39.622-77.85,11.48-159.449,22.715-173.323,24.624l-162.861,22.171c-.436.059-.876.251-1.311.176-.287-.049-.415-.47-.701-.519.67-.116,1.153-.8,1.823-.917,23.538-4.068,47.137-7.77,70.711-11.621l141.02-22.816c11.723-1.868,87.545-13.947,146.619-22.775,60.243-9.002,156.599-22.45,170.224-24.351,66.567-9.29,195.348-26.883,197.682-27.166.695-.084,1.378.417,2.072.334h0Z" style="fill: #4b5eb5; fill-rule: evenodd;"/>
        <path d="M2049.804,1915.594c-.688.123-1.194.803-1.883.926-.618.109-83.31,13.6-137.201,22.313-164.05,26.523-232.613,36.635-252.87,39.622-77.85,11.481-159.449,22.715-173.323,24.625l-162.861,22.171c-.437.059-.876.25-1.311.176-.287-.049-.659-.23-.701-.52-.043-.287.258-.57.519-.701,0,0,71.584-11.766,72.015-11.836l141.02-22.816c11.724-1.867,87.546-13.947,146.62-22.775,60.243-9.002,156.599-22.449,170.223-24.351,66.567-9.29,195.349-26.884,197.683-27.167.694-.083,1.377.418,2.071.334h0Z" style="fill: #4b5eb5; fill-rule: evenodd;"/>
        <path d="M2110.055,1836.797c-.158-.944-.886-1.732-1.044-2.678-.163-.972-20.954-132.432-34.424-218.099-41.005-260.766-57.155-369.668-61.926-401.843-2.329-15.702-12.429-83.807-28.601-196.352l-47.77-337.377c-.097-.693-.349-1.383-.292-2.081.024-.29.231-.658.52-.701.287-.043.594.248.701.518,0,.002,18.087,113.804,18.195,114.489l47.623,303.845c2.364,15.329,17.225,111.663,29.052,191.681l33.628,231.917c15.148,105.702,44.07,310.152,44.553,313.814.124.949-.34,1.916-.215,2.865h0Z" style="fill: #4b5eb5; fill-rule: evenodd;"/>
        <path d="M1184.889,1975.307c-.159-.944-.886-1.732-1.044-2.678-.163-.972-20.954-132.432-34.425-218.099-41.003-260.766-57.153-369.668-61.925-401.843-2.329-15.702-12.428-83.807-28.6-196.353l-47.771-337.376c-.097-.694-.349-1.382-.292-2.08.024-.29.231-.659.519-.702.288-.043.594.249.701.519,0,.002,18.087,113.804,18.196,114.489l47.623,303.846c2.364,15.328,17.225,111.662,29.052,191.681l33.627,231.917c15.149,105.701,44.071,310.152,44.552,313.814.126.949-.339,1.916-.214,2.865h0Z" style="fill: #4b5eb5; fill-rule: evenodd;"/>
        <path d="M1313.126,2025.885l-87.992,13.173c-7.963,1.192-16.076-.827-22.55-5.615-6.475-4.789-10.782-11.953-11.974-19.917l-33.721-225.238c70.435-84.337,153.05-162.318,236.718-195.23-11.963,73.114-48.065,150.36-65.5,210.203-15.258,52.375-16.418,160.632-14.981,222.625h0Z" style="fill: #687acd; fill-rule: evenodd;"/>
        <path d="M519.228,2376.387c79.698-78.074,151.383-153.94,157.285-177.84,12.425-50.311,24.427-417.133,80.723-469.591,56.295-52.457,288.572-220.778,349.192-250.887l30.065,192.379c26.005-43.666,67.933-96.252,101.66-133.878,60.158-67.11,120.817-78.803,159.106-34.394,42.204,48.946-51.905,175.332-99.146,277.498-27.022,58.44-54.233,140.56-54.271,233.875-.04,93.314,6.291,167.65-90.052,286.387-96.344,118.736-153.982,118.62-187.929,166.754-15.901,22.545-59.546,98.119-107.228,180.857-121.503-61.754-237.28-150.43-339.405-271.16h0Z" style="fill: #ffc5b3; fill-rule: evenodd;"/>
        <path d="M965.174,1941.357c24.76-53.801,56.927-107.212,61.196-114.357,10.113-16.93,15.087-24.691,22.758-36.5,2.113-3.254,12.1-18.295,21.053-31.148,11.179-16.049,20.391-29.094,41.066-56.918,1.915-2.577,11.737-15.795,24.265-31.978.327-.423.311-.437.353-.455.507-.226.57.044,1.075-.181-.172.488.044,1.061-.128,1.551-.06.169-.105.144-3.336,5.153-5.292,8.204-20.793,32.516-29.259,45.974-.07.109-38.119,60.64-48.151,76.329q-7.866,12.303-15.832,24.54c-.798,1.229-5.517,8.34-13.915,21.389-2.681,4.166-28.981,44.314-48.542,77.725-7.41,12.657-11.228,19.574-11.229,19.574-.511-.055-.864-.643-1.375-.697h0Z" style="fill: #eb967b; fill-rule: evenodd;"/>
        <path d="M1034.177,2412.236l-.92-1.236c10.748-8.437,48.504-38.129,89.003-81.304,42.275-45.067,61.252-76.89,66.808-86.31,3.18-5.391,8.536-14.698,16.174-31.818,13.189-29.561,19.245-53.277,22.305-66.475,8.803-37.973,11.895-79.653,14.461-123.797.14-2.404,3.158-53.305,3.212-53.355.266-.247.533-.493.799-.741l.741.801c-.462,39.122-.368,59.086-1.161,86.453-1.045,36.076-3.52,73.962-13.657,112.23-2.491,9.404-8.146,29.625-19.611,54.408-6.638,14.35-11.912,23.187-15.97,29.711-12.761,20.518-28.606,39.441-31.325,42.689-52.371,62.547-115.215,107.688-130.86,118.742h0Z" style="fill: #eb967b; fill-rule: evenodd;"/>
        <path d="M1263.536,1564.896c20.02,20.059,68.675,43.387,92.874,47.104,16.878-18.798,36.968-74.203,31.039-87.581-5.929-13.379-41.267-30.619-65.658-23.802-24.391,6.816-45.323,39.439-58.256,64.279h0Z" style="fill: #fcd9cf; fill-rule: evenodd;"/>
        <path d="M1357.236,1611.527c-.295-.257-.711-.1-.465-.405,3.025-3.761,18.703-22.836,26.85-62.083,2.697-12.993,3.042-21.401,2.374-23.908-2.498-9.367-24.209-19.17-36.733-23.662-.569-.204-1.066-.375-1.159-.407-.037-.013-.086-.007-.109-.037-.131-.176-.074-.208-.207-.385.175-.019.322-.159.497-.178.038-.005,23.87,6.109,35.223,15.671,6.154,5.183,6.425,9.035,6.545,12.265.19,5.097-.491,14.063-3.195,25.005-4.189,16.954-13.454,40.789-29.622,58.125h0Z" style="fill: #f9ad96; fill-rule: evenodd;"/>
        <path d="M1265.848,1564.26c2.168,1.839,7.565,6.182,20.825,14.732,8.928,5.756,29.619,18.47,47.019,25.904,5.741,2.453,8.167,3.147,8.216,3.195.164.158.322.32.486.478-.228.011-.444.12-.671.13-.003.001-3.661-.958-8.471-2.685-24.544-8.813-58.979-28.291-70.797-39.389-.583-.549-1.227-1.179-.742-2.579,4.513-13.014,18.769-29.749,28.26-40.25,3.795-4.199,10.506-11.081,10.587-11.097.142-.028.293.016.435-.014-.066.167-.006.367-.073.534-.006.015-17.615,19.989-28.568,38.037-4.115,6.78-5.843,11.108-6.506,13.001h0Z" style="fill: #f9ad96; fill-rule: evenodd;"/>
      </g>
    </g>
  </g>
</svg>